%TF.GenerationSoftware,KiCad,Pcbnew,9.0.6*%
%TF.CreationDate,2026-03-13T13:57:13-04:00*%
%TF.ProjectId,senior_design,73656e69-6f72-45f6-9465-7369676e2e6b,rev?*%
%TF.SameCoordinates,Original*%
%TF.FileFunction,Legend,Top*%
%TF.FilePolarity,Positive*%
%FSLAX46Y46*%
G04 Gerber Fmt 4.6, Leading zero omitted, Abs format (unit mm)*
G04 Created by KiCad (PCBNEW 9.0.6) date 2026-03-13 13:57:13*
%MOMM*%
%LPD*%
G01*
G04 APERTURE LIST*
%ADD10C,0.250000*%
%ADD11C,0.150000*%
%ADD12C,0.080000*%
%ADD13C,0.127000*%
%ADD14C,0.200000*%
%ADD15C,0.120000*%
%ADD16C,0.152400*%
%ADD17C,0.050800*%
%ADD18C,0.300000*%
%ADD19C,0.600000*%
G04 APERTURE END LIST*
D10*
X216402568Y-116602798D02*
X216735901Y-116602798D01*
X216878758Y-117388512D02*
X216402568Y-117388512D01*
X216402568Y-117388512D02*
X216402568Y-115888512D01*
X216402568Y-115888512D02*
X216878758Y-115888512D01*
X217878758Y-117245655D02*
X217831139Y-117317084D01*
X217831139Y-117317084D02*
X217688282Y-117388512D01*
X217688282Y-117388512D02*
X217593044Y-117388512D01*
X217593044Y-117388512D02*
X217450187Y-117317084D01*
X217450187Y-117317084D02*
X217354949Y-117174226D01*
X217354949Y-117174226D02*
X217307330Y-117031369D01*
X217307330Y-117031369D02*
X217259711Y-116745655D01*
X217259711Y-116745655D02*
X217259711Y-116531369D01*
X217259711Y-116531369D02*
X217307330Y-116245655D01*
X217307330Y-116245655D02*
X217354949Y-116102798D01*
X217354949Y-116102798D02*
X217450187Y-115959941D01*
X217450187Y-115959941D02*
X217593044Y-115888512D01*
X217593044Y-115888512D02*
X217688282Y-115888512D01*
X217688282Y-115888512D02*
X217831139Y-115959941D01*
X217831139Y-115959941D02*
X217878758Y-116031369D01*
X218307330Y-116602798D02*
X218640663Y-116602798D01*
X218783520Y-117388512D02*
X218307330Y-117388512D01*
X218307330Y-117388512D02*
X218307330Y-115888512D01*
X218307330Y-115888512D02*
X218783520Y-115888512D01*
X220402568Y-116388512D02*
X220402568Y-117388512D01*
X220164473Y-115817084D02*
X219926378Y-116888512D01*
X219926378Y-116888512D02*
X220545425Y-116888512D01*
X220973997Y-117388512D02*
X221164473Y-117388512D01*
X221164473Y-117388512D02*
X221259711Y-117317084D01*
X221259711Y-117317084D02*
X221307330Y-117245655D01*
X221307330Y-117245655D02*
X221402568Y-117031369D01*
X221402568Y-117031369D02*
X221450187Y-116745655D01*
X221450187Y-116745655D02*
X221450187Y-116174226D01*
X221450187Y-116174226D02*
X221402568Y-116031369D01*
X221402568Y-116031369D02*
X221354949Y-115959941D01*
X221354949Y-115959941D02*
X221259711Y-115888512D01*
X221259711Y-115888512D02*
X221069235Y-115888512D01*
X221069235Y-115888512D02*
X220973997Y-115959941D01*
X220973997Y-115959941D02*
X220926378Y-116031369D01*
X220926378Y-116031369D02*
X220878759Y-116174226D01*
X220878759Y-116174226D02*
X220878759Y-116531369D01*
X220878759Y-116531369D02*
X220926378Y-116674226D01*
X220926378Y-116674226D02*
X220973997Y-116745655D01*
X220973997Y-116745655D02*
X221069235Y-116817084D01*
X221069235Y-116817084D02*
X221259711Y-116817084D01*
X221259711Y-116817084D02*
X221354949Y-116745655D01*
X221354949Y-116745655D02*
X221402568Y-116674226D01*
X221402568Y-116674226D02*
X221450187Y-116531369D01*
X222354949Y-115888512D02*
X221878759Y-115888512D01*
X221878759Y-115888512D02*
X221831140Y-116602798D01*
X221831140Y-116602798D02*
X221878759Y-116531369D01*
X221878759Y-116531369D02*
X221973997Y-116459941D01*
X221973997Y-116459941D02*
X222212092Y-116459941D01*
X222212092Y-116459941D02*
X222307330Y-116531369D01*
X222307330Y-116531369D02*
X222354949Y-116602798D01*
X222354949Y-116602798D02*
X222402568Y-116745655D01*
X222402568Y-116745655D02*
X222402568Y-117102798D01*
X222402568Y-117102798D02*
X222354949Y-117245655D01*
X222354949Y-117245655D02*
X222307330Y-117317084D01*
X222307330Y-117317084D02*
X222212092Y-117388512D01*
X222212092Y-117388512D02*
X221973997Y-117388512D01*
X221973997Y-117388512D02*
X221878759Y-117317084D01*
X221878759Y-117317084D02*
X221831140Y-117245655D01*
X222878759Y-117388512D02*
X223069235Y-117388512D01*
X223069235Y-117388512D02*
X223164473Y-117317084D01*
X223164473Y-117317084D02*
X223212092Y-117245655D01*
X223212092Y-117245655D02*
X223307330Y-117031369D01*
X223307330Y-117031369D02*
X223354949Y-116745655D01*
X223354949Y-116745655D02*
X223354949Y-116174226D01*
X223354949Y-116174226D02*
X223307330Y-116031369D01*
X223307330Y-116031369D02*
X223259711Y-115959941D01*
X223259711Y-115959941D02*
X223164473Y-115888512D01*
X223164473Y-115888512D02*
X222973997Y-115888512D01*
X222973997Y-115888512D02*
X222878759Y-115959941D01*
X222878759Y-115959941D02*
X222831140Y-116031369D01*
X222831140Y-116031369D02*
X222783521Y-116174226D01*
X222783521Y-116174226D02*
X222783521Y-116531369D01*
X222783521Y-116531369D02*
X222831140Y-116674226D01*
X222831140Y-116674226D02*
X222878759Y-116745655D01*
X222878759Y-116745655D02*
X222973997Y-116817084D01*
X222973997Y-116817084D02*
X223164473Y-116817084D01*
X223164473Y-116817084D02*
X223259711Y-116745655D01*
X223259711Y-116745655D02*
X223307330Y-116674226D01*
X223307330Y-116674226D02*
X223354949Y-116531369D01*
X224259711Y-115888512D02*
X223783521Y-115888512D01*
X223783521Y-115888512D02*
X223735902Y-116602798D01*
X223735902Y-116602798D02*
X223783521Y-116531369D01*
X223783521Y-116531369D02*
X223878759Y-116459941D01*
X223878759Y-116459941D02*
X224116854Y-116459941D01*
X224116854Y-116459941D02*
X224212092Y-116531369D01*
X224212092Y-116531369D02*
X224259711Y-116602798D01*
X224259711Y-116602798D02*
X224307330Y-116745655D01*
X224307330Y-116745655D02*
X224307330Y-117102798D01*
X224307330Y-117102798D02*
X224259711Y-117245655D01*
X224259711Y-117245655D02*
X224212092Y-117317084D01*
X224212092Y-117317084D02*
X224116854Y-117388512D01*
X224116854Y-117388512D02*
X223878759Y-117388512D01*
X223878759Y-117388512D02*
X223783521Y-117317084D01*
X223783521Y-117317084D02*
X223735902Y-117245655D01*
X225354950Y-115888512D02*
X225926378Y-115888512D01*
X225640664Y-117388512D02*
X225640664Y-115888512D01*
X226640664Y-117317084D02*
X226545426Y-117388512D01*
X226545426Y-117388512D02*
X226354950Y-117388512D01*
X226354950Y-117388512D02*
X226259712Y-117317084D01*
X226259712Y-117317084D02*
X226212093Y-117174226D01*
X226212093Y-117174226D02*
X226212093Y-116602798D01*
X226212093Y-116602798D02*
X226259712Y-116459941D01*
X226259712Y-116459941D02*
X226354950Y-116388512D01*
X226354950Y-116388512D02*
X226545426Y-116388512D01*
X226545426Y-116388512D02*
X226640664Y-116459941D01*
X226640664Y-116459941D02*
X226688283Y-116602798D01*
X226688283Y-116602798D02*
X226688283Y-116745655D01*
X226688283Y-116745655D02*
X226212093Y-116888512D01*
X227545426Y-117388512D02*
X227545426Y-116602798D01*
X227545426Y-116602798D02*
X227497807Y-116459941D01*
X227497807Y-116459941D02*
X227402569Y-116388512D01*
X227402569Y-116388512D02*
X227212093Y-116388512D01*
X227212093Y-116388512D02*
X227116855Y-116459941D01*
X227545426Y-117317084D02*
X227450188Y-117388512D01*
X227450188Y-117388512D02*
X227212093Y-117388512D01*
X227212093Y-117388512D02*
X227116855Y-117317084D01*
X227116855Y-117317084D02*
X227069236Y-117174226D01*
X227069236Y-117174226D02*
X227069236Y-117031369D01*
X227069236Y-117031369D02*
X227116855Y-116888512D01*
X227116855Y-116888512D02*
X227212093Y-116817084D01*
X227212093Y-116817084D02*
X227450188Y-116817084D01*
X227450188Y-116817084D02*
X227545426Y-116745655D01*
X228021617Y-117388512D02*
X228021617Y-116388512D01*
X228021617Y-116531369D02*
X228069236Y-116459941D01*
X228069236Y-116459941D02*
X228164474Y-116388512D01*
X228164474Y-116388512D02*
X228307331Y-116388512D01*
X228307331Y-116388512D02*
X228402569Y-116459941D01*
X228402569Y-116459941D02*
X228450188Y-116602798D01*
X228450188Y-116602798D02*
X228450188Y-117388512D01*
X228450188Y-116602798D02*
X228497807Y-116459941D01*
X228497807Y-116459941D02*
X228593045Y-116388512D01*
X228593045Y-116388512D02*
X228735902Y-116388512D01*
X228735902Y-116388512D02*
X228831141Y-116459941D01*
X228831141Y-116459941D02*
X228878760Y-116602798D01*
X228878760Y-116602798D02*
X228878760Y-117388512D01*
X230640664Y-117388512D02*
X230069236Y-117388512D01*
X230354950Y-117388512D02*
X230354950Y-115888512D01*
X230354950Y-115888512D02*
X230259712Y-116102798D01*
X230259712Y-116102798D02*
X230164474Y-116245655D01*
X230164474Y-116245655D02*
X230069236Y-116317084D01*
X231497807Y-115888512D02*
X231307331Y-115888512D01*
X231307331Y-115888512D02*
X231212093Y-115959941D01*
X231212093Y-115959941D02*
X231164474Y-116031369D01*
X231164474Y-116031369D02*
X231069236Y-116245655D01*
X231069236Y-116245655D02*
X231021617Y-116531369D01*
X231021617Y-116531369D02*
X231021617Y-117102798D01*
X231021617Y-117102798D02*
X231069236Y-117245655D01*
X231069236Y-117245655D02*
X231116855Y-117317084D01*
X231116855Y-117317084D02*
X231212093Y-117388512D01*
X231212093Y-117388512D02*
X231402569Y-117388512D01*
X231402569Y-117388512D02*
X231497807Y-117317084D01*
X231497807Y-117317084D02*
X231545426Y-117245655D01*
X231545426Y-117245655D02*
X231593045Y-117102798D01*
X231593045Y-117102798D02*
X231593045Y-116745655D01*
X231593045Y-116745655D02*
X231545426Y-116602798D01*
X231545426Y-116602798D02*
X231497807Y-116531369D01*
X231497807Y-116531369D02*
X231402569Y-116459941D01*
X231402569Y-116459941D02*
X231212093Y-116459941D01*
X231212093Y-116459941D02*
X231116855Y-116531369D01*
X231116855Y-116531369D02*
X231069236Y-116602798D01*
X231069236Y-116602798D02*
X231021617Y-116745655D01*
X232783522Y-116817084D02*
X233545427Y-116817084D01*
X235307331Y-115959941D02*
X235212093Y-115888512D01*
X235212093Y-115888512D02*
X235069236Y-115888512D01*
X235069236Y-115888512D02*
X234926379Y-115959941D01*
X234926379Y-115959941D02*
X234831141Y-116102798D01*
X234831141Y-116102798D02*
X234783522Y-116245655D01*
X234783522Y-116245655D02*
X234735903Y-116531369D01*
X234735903Y-116531369D02*
X234735903Y-116745655D01*
X234735903Y-116745655D02*
X234783522Y-117031369D01*
X234783522Y-117031369D02*
X234831141Y-117174226D01*
X234831141Y-117174226D02*
X234926379Y-117317084D01*
X234926379Y-117317084D02*
X235069236Y-117388512D01*
X235069236Y-117388512D02*
X235164474Y-117388512D01*
X235164474Y-117388512D02*
X235307331Y-117317084D01*
X235307331Y-117317084D02*
X235354950Y-117245655D01*
X235354950Y-117245655D02*
X235354950Y-116745655D01*
X235354950Y-116745655D02*
X235164474Y-116745655D01*
X235783522Y-117388512D02*
X235783522Y-116388512D01*
X235783522Y-116674226D02*
X235831141Y-116531369D01*
X235831141Y-116531369D02*
X235878760Y-116459941D01*
X235878760Y-116459941D02*
X235973998Y-116388512D01*
X235973998Y-116388512D02*
X236069236Y-116388512D01*
X236402570Y-117388512D02*
X236402570Y-116388512D01*
X236402570Y-115888512D02*
X236354951Y-115959941D01*
X236354951Y-115959941D02*
X236402570Y-116031369D01*
X236402570Y-116031369D02*
X236450189Y-115959941D01*
X236450189Y-115959941D02*
X236402570Y-115888512D01*
X236402570Y-115888512D02*
X236402570Y-116031369D01*
X236878760Y-116388512D02*
X236878760Y-117888512D01*
X236878760Y-116459941D02*
X236973998Y-116388512D01*
X236973998Y-116388512D02*
X237164474Y-116388512D01*
X237164474Y-116388512D02*
X237259712Y-116459941D01*
X237259712Y-116459941D02*
X237307331Y-116531369D01*
X237307331Y-116531369D02*
X237354950Y-116674226D01*
X237354950Y-116674226D02*
X237354950Y-117102798D01*
X237354950Y-117102798D02*
X237307331Y-117245655D01*
X237307331Y-117245655D02*
X237259712Y-117317084D01*
X237259712Y-117317084D02*
X237164474Y-117388512D01*
X237164474Y-117388512D02*
X236973998Y-117388512D01*
X236973998Y-117388512D02*
X236878760Y-117317084D01*
X238259712Y-117388512D02*
X237783522Y-117388512D01*
X237783522Y-117388512D02*
X237783522Y-115888512D01*
X239021617Y-117388512D02*
X239021617Y-116602798D01*
X239021617Y-116602798D02*
X238973998Y-116459941D01*
X238973998Y-116459941D02*
X238878760Y-116388512D01*
X238878760Y-116388512D02*
X238688284Y-116388512D01*
X238688284Y-116388512D02*
X238593046Y-116459941D01*
X239021617Y-117317084D02*
X238926379Y-117388512D01*
X238926379Y-117388512D02*
X238688284Y-117388512D01*
X238688284Y-117388512D02*
X238593046Y-117317084D01*
X238593046Y-117317084D02*
X238545427Y-117174226D01*
X238545427Y-117174226D02*
X238545427Y-117031369D01*
X238545427Y-117031369D02*
X238593046Y-116888512D01*
X238593046Y-116888512D02*
X238688284Y-116817084D01*
X238688284Y-116817084D02*
X238926379Y-116817084D01*
X238926379Y-116817084D02*
X239021617Y-116745655D01*
X239497808Y-117388512D02*
X239497808Y-115888512D01*
X239497808Y-116459941D02*
X239593046Y-116388512D01*
X239593046Y-116388512D02*
X239783522Y-116388512D01*
X239783522Y-116388512D02*
X239878760Y-116459941D01*
X239878760Y-116459941D02*
X239926379Y-116531369D01*
X239926379Y-116531369D02*
X239973998Y-116674226D01*
X239973998Y-116674226D02*
X239973998Y-117102798D01*
X239973998Y-117102798D02*
X239926379Y-117245655D01*
X239926379Y-117245655D02*
X239878760Y-117317084D01*
X239878760Y-117317084D02*
X239783522Y-117388512D01*
X239783522Y-117388512D02*
X239593046Y-117388512D01*
X239593046Y-117388512D02*
X239497808Y-117317084D01*
X216354949Y-119374857D02*
X216831139Y-119374857D01*
X216259711Y-119803428D02*
X216593044Y-118303428D01*
X216593044Y-118303428D02*
X216926377Y-119803428D01*
X217259711Y-118803428D02*
X217259711Y-119803428D01*
X217259711Y-118946285D02*
X217307330Y-118874857D01*
X217307330Y-118874857D02*
X217402568Y-118803428D01*
X217402568Y-118803428D02*
X217545425Y-118803428D01*
X217545425Y-118803428D02*
X217640663Y-118874857D01*
X217640663Y-118874857D02*
X217688282Y-119017714D01*
X217688282Y-119017714D02*
X217688282Y-119803428D01*
X218593044Y-119803428D02*
X218593044Y-118303428D01*
X218593044Y-119732000D02*
X218497806Y-119803428D01*
X218497806Y-119803428D02*
X218307330Y-119803428D01*
X218307330Y-119803428D02*
X218212092Y-119732000D01*
X218212092Y-119732000D02*
X218164473Y-119660571D01*
X218164473Y-119660571D02*
X218116854Y-119517714D01*
X218116854Y-119517714D02*
X218116854Y-119089142D01*
X218116854Y-119089142D02*
X218164473Y-118946285D01*
X218164473Y-118946285D02*
X218212092Y-118874857D01*
X218212092Y-118874857D02*
X218307330Y-118803428D01*
X218307330Y-118803428D02*
X218497806Y-118803428D01*
X218497806Y-118803428D02*
X218593044Y-118874857D01*
X219069235Y-119803428D02*
X219069235Y-118803428D01*
X219069235Y-119089142D02*
X219116854Y-118946285D01*
X219116854Y-118946285D02*
X219164473Y-118874857D01*
X219164473Y-118874857D02*
X219259711Y-118803428D01*
X219259711Y-118803428D02*
X219354949Y-118803428D01*
X220069235Y-119732000D02*
X219973997Y-119803428D01*
X219973997Y-119803428D02*
X219783521Y-119803428D01*
X219783521Y-119803428D02*
X219688283Y-119732000D01*
X219688283Y-119732000D02*
X219640664Y-119589142D01*
X219640664Y-119589142D02*
X219640664Y-119017714D01*
X219640664Y-119017714D02*
X219688283Y-118874857D01*
X219688283Y-118874857D02*
X219783521Y-118803428D01*
X219783521Y-118803428D02*
X219973997Y-118803428D01*
X219973997Y-118803428D02*
X220069235Y-118874857D01*
X220069235Y-118874857D02*
X220116854Y-119017714D01*
X220116854Y-119017714D02*
X220116854Y-119160571D01*
X220116854Y-119160571D02*
X219640664Y-119303428D01*
X220450188Y-118803428D02*
X220640664Y-119803428D01*
X220640664Y-119803428D02*
X220831140Y-119089142D01*
X220831140Y-119089142D02*
X221021616Y-119803428D01*
X221021616Y-119803428D02*
X221212092Y-118803428D01*
X222354950Y-119803428D02*
X222354950Y-118303428D01*
X222354950Y-118303428D02*
X222593045Y-118303428D01*
X222593045Y-118303428D02*
X222735902Y-118374857D01*
X222735902Y-118374857D02*
X222831140Y-118517714D01*
X222831140Y-118517714D02*
X222878759Y-118660571D01*
X222878759Y-118660571D02*
X222926378Y-118946285D01*
X222926378Y-118946285D02*
X222926378Y-119160571D01*
X222926378Y-119160571D02*
X222878759Y-119446285D01*
X222878759Y-119446285D02*
X222831140Y-119589142D01*
X222831140Y-119589142D02*
X222735902Y-119732000D01*
X222735902Y-119732000D02*
X222593045Y-119803428D01*
X222593045Y-119803428D02*
X222354950Y-119803428D01*
X223354950Y-119660571D02*
X223402569Y-119732000D01*
X223402569Y-119732000D02*
X223354950Y-119803428D01*
X223354950Y-119803428D02*
X223307331Y-119732000D01*
X223307331Y-119732000D02*
X223354950Y-119660571D01*
X223354950Y-119660571D02*
X223354950Y-119803428D01*
X223878759Y-119732000D02*
X223878759Y-119803428D01*
X223878759Y-119803428D02*
X223831140Y-119946285D01*
X223831140Y-119946285D02*
X223783521Y-120017714D01*
X225021616Y-119374857D02*
X225497806Y-119374857D01*
X224926378Y-119803428D02*
X225259711Y-118303428D01*
X225259711Y-118303428D02*
X225593044Y-119803428D01*
X226069235Y-119803428D02*
X225973997Y-119732000D01*
X225973997Y-119732000D02*
X225926378Y-119589142D01*
X225926378Y-119589142D02*
X225926378Y-118303428D01*
X226831140Y-119732000D02*
X226735902Y-119803428D01*
X226735902Y-119803428D02*
X226545426Y-119803428D01*
X226545426Y-119803428D02*
X226450188Y-119732000D01*
X226450188Y-119732000D02*
X226402569Y-119589142D01*
X226402569Y-119589142D02*
X226402569Y-119017714D01*
X226402569Y-119017714D02*
X226450188Y-118874857D01*
X226450188Y-118874857D02*
X226545426Y-118803428D01*
X226545426Y-118803428D02*
X226735902Y-118803428D01*
X226735902Y-118803428D02*
X226831140Y-118874857D01*
X226831140Y-118874857D02*
X226878759Y-119017714D01*
X226878759Y-119017714D02*
X226878759Y-119160571D01*
X226878759Y-119160571D02*
X226402569Y-119303428D01*
X227212093Y-119803428D02*
X227735902Y-118803428D01*
X227212093Y-118803428D02*
X227735902Y-119803428D01*
X229212093Y-119017714D02*
X228878760Y-119017714D01*
X228878760Y-119803428D02*
X228878760Y-118303428D01*
X228878760Y-118303428D02*
X229354950Y-118303428D01*
X229735903Y-119660571D02*
X229783522Y-119732000D01*
X229783522Y-119732000D02*
X229735903Y-119803428D01*
X229735903Y-119803428D02*
X229688284Y-119732000D01*
X229688284Y-119732000D02*
X229735903Y-119660571D01*
X229735903Y-119660571D02*
X229735903Y-119803428D01*
X230259712Y-119732000D02*
X230259712Y-119803428D01*
X230259712Y-119803428D02*
X230212093Y-119946285D01*
X230212093Y-119946285D02*
X230164474Y-120017714D01*
X231402569Y-119732000D02*
X231545426Y-119803428D01*
X231545426Y-119803428D02*
X231783521Y-119803428D01*
X231783521Y-119803428D02*
X231878759Y-119732000D01*
X231878759Y-119732000D02*
X231926378Y-119660571D01*
X231926378Y-119660571D02*
X231973997Y-119517714D01*
X231973997Y-119517714D02*
X231973997Y-119374857D01*
X231973997Y-119374857D02*
X231926378Y-119232000D01*
X231926378Y-119232000D02*
X231878759Y-119160571D01*
X231878759Y-119160571D02*
X231783521Y-119089142D01*
X231783521Y-119089142D02*
X231593045Y-119017714D01*
X231593045Y-119017714D02*
X231497807Y-118946285D01*
X231497807Y-118946285D02*
X231450188Y-118874857D01*
X231450188Y-118874857D02*
X231402569Y-118732000D01*
X231402569Y-118732000D02*
X231402569Y-118589142D01*
X231402569Y-118589142D02*
X231450188Y-118446285D01*
X231450188Y-118446285D02*
X231497807Y-118374857D01*
X231497807Y-118374857D02*
X231593045Y-118303428D01*
X231593045Y-118303428D02*
X231831140Y-118303428D01*
X231831140Y-118303428D02*
X231973997Y-118374857D01*
X232402569Y-119803428D02*
X232402569Y-118303428D01*
X232831140Y-119803428D02*
X232831140Y-119017714D01*
X232831140Y-119017714D02*
X232783521Y-118874857D01*
X232783521Y-118874857D02*
X232688283Y-118803428D01*
X232688283Y-118803428D02*
X232545426Y-118803428D01*
X232545426Y-118803428D02*
X232450188Y-118874857D01*
X232450188Y-118874857D02*
X232402569Y-118946285D01*
X233735902Y-119803428D02*
X233735902Y-119017714D01*
X233735902Y-119017714D02*
X233688283Y-118874857D01*
X233688283Y-118874857D02*
X233593045Y-118803428D01*
X233593045Y-118803428D02*
X233402569Y-118803428D01*
X233402569Y-118803428D02*
X233307331Y-118874857D01*
X233735902Y-119732000D02*
X233640664Y-119803428D01*
X233640664Y-119803428D02*
X233402569Y-119803428D01*
X233402569Y-119803428D02*
X233307331Y-119732000D01*
X233307331Y-119732000D02*
X233259712Y-119589142D01*
X233259712Y-119589142D02*
X233259712Y-119446285D01*
X233259712Y-119446285D02*
X233307331Y-119303428D01*
X233307331Y-119303428D02*
X233402569Y-119232000D01*
X233402569Y-119232000D02*
X233640664Y-119232000D01*
X233640664Y-119232000D02*
X233735902Y-119160571D01*
X234164474Y-119732000D02*
X234259712Y-119803428D01*
X234259712Y-119803428D02*
X234450188Y-119803428D01*
X234450188Y-119803428D02*
X234545426Y-119732000D01*
X234545426Y-119732000D02*
X234593045Y-119589142D01*
X234593045Y-119589142D02*
X234593045Y-119517714D01*
X234593045Y-119517714D02*
X234545426Y-119374857D01*
X234545426Y-119374857D02*
X234450188Y-119303428D01*
X234450188Y-119303428D02*
X234307331Y-119303428D01*
X234307331Y-119303428D02*
X234212093Y-119232000D01*
X234212093Y-119232000D02*
X234164474Y-119089142D01*
X234164474Y-119089142D02*
X234164474Y-119017714D01*
X234164474Y-119017714D02*
X234212093Y-118874857D01*
X234212093Y-118874857D02*
X234307331Y-118803428D01*
X234307331Y-118803428D02*
X234450188Y-118803428D01*
X234450188Y-118803428D02*
X234545426Y-118874857D01*
X235021617Y-119803428D02*
X235021617Y-118303428D01*
X235450188Y-119803428D02*
X235450188Y-119017714D01*
X235450188Y-119017714D02*
X235402569Y-118874857D01*
X235402569Y-118874857D02*
X235307331Y-118803428D01*
X235307331Y-118803428D02*
X235164474Y-118803428D01*
X235164474Y-118803428D02*
X235069236Y-118874857D01*
X235069236Y-118874857D02*
X235021617Y-118946285D01*
X236354950Y-119803428D02*
X236354950Y-119017714D01*
X236354950Y-119017714D02*
X236307331Y-118874857D01*
X236307331Y-118874857D02*
X236212093Y-118803428D01*
X236212093Y-118803428D02*
X236021617Y-118803428D01*
X236021617Y-118803428D02*
X235926379Y-118874857D01*
X236354950Y-119732000D02*
X236259712Y-119803428D01*
X236259712Y-119803428D02*
X236021617Y-119803428D01*
X236021617Y-119803428D02*
X235926379Y-119732000D01*
X235926379Y-119732000D02*
X235878760Y-119589142D01*
X235878760Y-119589142D02*
X235878760Y-119446285D01*
X235878760Y-119446285D02*
X235926379Y-119303428D01*
X235926379Y-119303428D02*
X236021617Y-119232000D01*
X236021617Y-119232000D02*
X236259712Y-119232000D01*
X236259712Y-119232000D02*
X236354950Y-119160571D01*
X236831141Y-118803428D02*
X236831141Y-119803428D01*
X236831141Y-118946285D02*
X236878760Y-118874857D01*
X236878760Y-118874857D02*
X236973998Y-118803428D01*
X236973998Y-118803428D02*
X237116855Y-118803428D01*
X237116855Y-118803428D02*
X237212093Y-118874857D01*
X237212093Y-118874857D02*
X237259712Y-119017714D01*
X237259712Y-119017714D02*
X237259712Y-119803428D01*
X237735903Y-119803428D02*
X237735903Y-118303428D01*
X237831141Y-119232000D02*
X238116855Y-119803428D01*
X238116855Y-118803428D02*
X237735903Y-119374857D01*
X239831141Y-118374857D02*
X239735903Y-118303428D01*
X239735903Y-118303428D02*
X239593046Y-118303428D01*
X239593046Y-118303428D02*
X239450189Y-118374857D01*
X239450189Y-118374857D02*
X239354951Y-118517714D01*
X239354951Y-118517714D02*
X239307332Y-118660571D01*
X239307332Y-118660571D02*
X239259713Y-118946285D01*
X239259713Y-118946285D02*
X239259713Y-119160571D01*
X239259713Y-119160571D02*
X239307332Y-119446285D01*
X239307332Y-119446285D02*
X239354951Y-119589142D01*
X239354951Y-119589142D02*
X239450189Y-119732000D01*
X239450189Y-119732000D02*
X239593046Y-119803428D01*
X239593046Y-119803428D02*
X239688284Y-119803428D01*
X239688284Y-119803428D02*
X239831141Y-119732000D01*
X239831141Y-119732000D02*
X239878760Y-119660571D01*
X239878760Y-119660571D02*
X239878760Y-119160571D01*
X239878760Y-119160571D02*
X239688284Y-119160571D01*
X240307332Y-119660571D02*
X240354951Y-119732000D01*
X240354951Y-119732000D02*
X240307332Y-119803428D01*
X240307332Y-119803428D02*
X240259713Y-119732000D01*
X240259713Y-119732000D02*
X240307332Y-119660571D01*
X240307332Y-119660571D02*
X240307332Y-119803428D01*
X240831141Y-119732000D02*
X240831141Y-119803428D01*
X240831141Y-119803428D02*
X240783522Y-119946285D01*
X240783522Y-119946285D02*
X240735903Y-120017714D01*
X242307331Y-118303428D02*
X242307331Y-119374857D01*
X242307331Y-119374857D02*
X242259712Y-119589142D01*
X242259712Y-119589142D02*
X242164474Y-119732000D01*
X242164474Y-119732000D02*
X242021617Y-119803428D01*
X242021617Y-119803428D02*
X241926379Y-119803428D01*
X243212093Y-119803428D02*
X243212093Y-119017714D01*
X243212093Y-119017714D02*
X243164474Y-118874857D01*
X243164474Y-118874857D02*
X243069236Y-118803428D01*
X243069236Y-118803428D02*
X242878760Y-118803428D01*
X242878760Y-118803428D02*
X242783522Y-118874857D01*
X243212093Y-119732000D02*
X243116855Y-119803428D01*
X243116855Y-119803428D02*
X242878760Y-119803428D01*
X242878760Y-119803428D02*
X242783522Y-119732000D01*
X242783522Y-119732000D02*
X242735903Y-119589142D01*
X242735903Y-119589142D02*
X242735903Y-119446285D01*
X242735903Y-119446285D02*
X242783522Y-119303428D01*
X242783522Y-119303428D02*
X242878760Y-119232000D01*
X242878760Y-119232000D02*
X243116855Y-119232000D01*
X243116855Y-119232000D02*
X243212093Y-119160571D01*
X244116855Y-119732000D02*
X244021617Y-119803428D01*
X244021617Y-119803428D02*
X243831141Y-119803428D01*
X243831141Y-119803428D02*
X243735903Y-119732000D01*
X243735903Y-119732000D02*
X243688284Y-119660571D01*
X243688284Y-119660571D02*
X243640665Y-119517714D01*
X243640665Y-119517714D02*
X243640665Y-119089142D01*
X243640665Y-119089142D02*
X243688284Y-118946285D01*
X243688284Y-118946285D02*
X243735903Y-118874857D01*
X243735903Y-118874857D02*
X243831141Y-118803428D01*
X243831141Y-118803428D02*
X244021617Y-118803428D01*
X244021617Y-118803428D02*
X244116855Y-118874857D01*
X244545427Y-119803428D02*
X244545427Y-118303428D01*
X244640665Y-119232000D02*
X244926379Y-119803428D01*
X244926379Y-118803428D02*
X244545427Y-119374857D01*
X246593046Y-119803428D02*
X246116856Y-119803428D01*
X246116856Y-119803428D02*
X246116856Y-118303428D01*
X246926380Y-119660571D02*
X246973999Y-119732000D01*
X246973999Y-119732000D02*
X246926380Y-119803428D01*
X246926380Y-119803428D02*
X246878761Y-119732000D01*
X246878761Y-119732000D02*
X246926380Y-119660571D01*
X246926380Y-119660571D02*
X246926380Y-119803428D01*
D11*
X173476163Y-56250239D02*
X172473257Y-56250239D01*
X172473257Y-56250239D02*
X172473257Y-56011452D01*
X172473257Y-56011452D02*
X172521014Y-55868180D01*
X172521014Y-55868180D02*
X172616529Y-55772665D01*
X172616529Y-55772665D02*
X172712044Y-55724908D01*
X172712044Y-55724908D02*
X172903074Y-55677150D01*
X172903074Y-55677150D02*
X173046346Y-55677150D01*
X173046346Y-55677150D02*
X173237376Y-55724908D01*
X173237376Y-55724908D02*
X173332891Y-55772665D01*
X173332891Y-55772665D02*
X173428406Y-55868180D01*
X173428406Y-55868180D02*
X173476163Y-56011452D01*
X173476163Y-56011452D02*
X173476163Y-56250239D01*
X172473257Y-54817517D02*
X172473257Y-55008546D01*
X172473257Y-55008546D02*
X172521014Y-55104061D01*
X172521014Y-55104061D02*
X172568772Y-55151819D01*
X172568772Y-55151819D02*
X172712044Y-55247333D01*
X172712044Y-55247333D02*
X172903074Y-55295091D01*
X172903074Y-55295091D02*
X173285133Y-55295091D01*
X173285133Y-55295091D02*
X173380648Y-55247333D01*
X173380648Y-55247333D02*
X173428406Y-55199576D01*
X173428406Y-55199576D02*
X173476163Y-55104061D01*
X173476163Y-55104061D02*
X173476163Y-54913031D01*
X173476163Y-54913031D02*
X173428406Y-54817517D01*
X173428406Y-54817517D02*
X173380648Y-54769759D01*
X173380648Y-54769759D02*
X173285133Y-54722002D01*
X173285133Y-54722002D02*
X173046346Y-54722002D01*
X173046346Y-54722002D02*
X172950831Y-54769759D01*
X172950831Y-54769759D02*
X172903074Y-54817517D01*
X172903074Y-54817517D02*
X172855316Y-54913031D01*
X172855316Y-54913031D02*
X172855316Y-55104061D01*
X172855316Y-55104061D02*
X172903074Y-55199576D01*
X172903074Y-55199576D02*
X172950831Y-55247333D01*
X172950831Y-55247333D02*
X173046346Y-55295091D01*
X236504819Y-64239457D02*
X236028628Y-64572790D01*
X236504819Y-64810885D02*
X235504819Y-64810885D01*
X235504819Y-64810885D02*
X235504819Y-64429933D01*
X235504819Y-64429933D02*
X235552438Y-64334695D01*
X235552438Y-64334695D02*
X235600057Y-64287076D01*
X235600057Y-64287076D02*
X235695295Y-64239457D01*
X235695295Y-64239457D02*
X235838152Y-64239457D01*
X235838152Y-64239457D02*
X235933390Y-64287076D01*
X235933390Y-64287076D02*
X235981009Y-64334695D01*
X235981009Y-64334695D02*
X236028628Y-64429933D01*
X236028628Y-64429933D02*
X236028628Y-64810885D01*
X235504819Y-63906123D02*
X235504819Y-63287076D01*
X235504819Y-63287076D02*
X235885771Y-63620409D01*
X235885771Y-63620409D02*
X235885771Y-63477552D01*
X235885771Y-63477552D02*
X235933390Y-63382314D01*
X235933390Y-63382314D02*
X235981009Y-63334695D01*
X235981009Y-63334695D02*
X236076247Y-63287076D01*
X236076247Y-63287076D02*
X236314342Y-63287076D01*
X236314342Y-63287076D02*
X236409580Y-63334695D01*
X236409580Y-63334695D02*
X236457200Y-63382314D01*
X236457200Y-63382314D02*
X236504819Y-63477552D01*
X236504819Y-63477552D02*
X236504819Y-63763266D01*
X236504819Y-63763266D02*
X236457200Y-63858504D01*
X236457200Y-63858504D02*
X236409580Y-63906123D01*
X236504819Y-62810885D02*
X236504819Y-62620409D01*
X236504819Y-62620409D02*
X236457200Y-62525171D01*
X236457200Y-62525171D02*
X236409580Y-62477552D01*
X236409580Y-62477552D02*
X236266723Y-62382314D01*
X236266723Y-62382314D02*
X236076247Y-62334695D01*
X236076247Y-62334695D02*
X235695295Y-62334695D01*
X235695295Y-62334695D02*
X235600057Y-62382314D01*
X235600057Y-62382314D02*
X235552438Y-62429933D01*
X235552438Y-62429933D02*
X235504819Y-62525171D01*
X235504819Y-62525171D02*
X235504819Y-62715647D01*
X235504819Y-62715647D02*
X235552438Y-62810885D01*
X235552438Y-62810885D02*
X235600057Y-62858504D01*
X235600057Y-62858504D02*
X235695295Y-62906123D01*
X235695295Y-62906123D02*
X235933390Y-62906123D01*
X235933390Y-62906123D02*
X236028628Y-62858504D01*
X236028628Y-62858504D02*
X236076247Y-62810885D01*
X236076247Y-62810885D02*
X236123866Y-62715647D01*
X236123866Y-62715647D02*
X236123866Y-62525171D01*
X236123866Y-62525171D02*
X236076247Y-62429933D01*
X236076247Y-62429933D02*
X236028628Y-62382314D01*
X236028628Y-62382314D02*
X235933390Y-62334695D01*
X207007142Y-101289580D02*
X206959523Y-101337200D01*
X206959523Y-101337200D02*
X206816666Y-101384819D01*
X206816666Y-101384819D02*
X206721428Y-101384819D01*
X206721428Y-101384819D02*
X206578571Y-101337200D01*
X206578571Y-101337200D02*
X206483333Y-101241961D01*
X206483333Y-101241961D02*
X206435714Y-101146723D01*
X206435714Y-101146723D02*
X206388095Y-100956247D01*
X206388095Y-100956247D02*
X206388095Y-100813390D01*
X206388095Y-100813390D02*
X206435714Y-100622914D01*
X206435714Y-100622914D02*
X206483333Y-100527676D01*
X206483333Y-100527676D02*
X206578571Y-100432438D01*
X206578571Y-100432438D02*
X206721428Y-100384819D01*
X206721428Y-100384819D02*
X206816666Y-100384819D01*
X206816666Y-100384819D02*
X206959523Y-100432438D01*
X206959523Y-100432438D02*
X207007142Y-100480057D01*
X207388095Y-100480057D02*
X207435714Y-100432438D01*
X207435714Y-100432438D02*
X207530952Y-100384819D01*
X207530952Y-100384819D02*
X207769047Y-100384819D01*
X207769047Y-100384819D02*
X207864285Y-100432438D01*
X207864285Y-100432438D02*
X207911904Y-100480057D01*
X207911904Y-100480057D02*
X207959523Y-100575295D01*
X207959523Y-100575295D02*
X207959523Y-100670533D01*
X207959523Y-100670533D02*
X207911904Y-100813390D01*
X207911904Y-100813390D02*
X207340476Y-101384819D01*
X207340476Y-101384819D02*
X207959523Y-101384819D01*
X208864285Y-100384819D02*
X208388095Y-100384819D01*
X208388095Y-100384819D02*
X208340476Y-100861009D01*
X208340476Y-100861009D02*
X208388095Y-100813390D01*
X208388095Y-100813390D02*
X208483333Y-100765771D01*
X208483333Y-100765771D02*
X208721428Y-100765771D01*
X208721428Y-100765771D02*
X208816666Y-100813390D01*
X208816666Y-100813390D02*
X208864285Y-100861009D01*
X208864285Y-100861009D02*
X208911904Y-100956247D01*
X208911904Y-100956247D02*
X208911904Y-101194342D01*
X208911904Y-101194342D02*
X208864285Y-101289580D01*
X208864285Y-101289580D02*
X208816666Y-101337200D01*
X208816666Y-101337200D02*
X208721428Y-101384819D01*
X208721428Y-101384819D02*
X208483333Y-101384819D01*
X208483333Y-101384819D02*
X208388095Y-101337200D01*
X208388095Y-101337200D02*
X208340476Y-101289580D01*
X207657142Y-98989580D02*
X207609523Y-99037200D01*
X207609523Y-99037200D02*
X207466666Y-99084819D01*
X207466666Y-99084819D02*
X207371428Y-99084819D01*
X207371428Y-99084819D02*
X207228571Y-99037200D01*
X207228571Y-99037200D02*
X207133333Y-98941961D01*
X207133333Y-98941961D02*
X207085714Y-98846723D01*
X207085714Y-98846723D02*
X207038095Y-98656247D01*
X207038095Y-98656247D02*
X207038095Y-98513390D01*
X207038095Y-98513390D02*
X207085714Y-98322914D01*
X207085714Y-98322914D02*
X207133333Y-98227676D01*
X207133333Y-98227676D02*
X207228571Y-98132438D01*
X207228571Y-98132438D02*
X207371428Y-98084819D01*
X207371428Y-98084819D02*
X207466666Y-98084819D01*
X207466666Y-98084819D02*
X207609523Y-98132438D01*
X207609523Y-98132438D02*
X207657142Y-98180057D01*
X208038095Y-98180057D02*
X208085714Y-98132438D01*
X208085714Y-98132438D02*
X208180952Y-98084819D01*
X208180952Y-98084819D02*
X208419047Y-98084819D01*
X208419047Y-98084819D02*
X208514285Y-98132438D01*
X208514285Y-98132438D02*
X208561904Y-98180057D01*
X208561904Y-98180057D02*
X208609523Y-98275295D01*
X208609523Y-98275295D02*
X208609523Y-98370533D01*
X208609523Y-98370533D02*
X208561904Y-98513390D01*
X208561904Y-98513390D02*
X207990476Y-99084819D01*
X207990476Y-99084819D02*
X208609523Y-99084819D01*
X209466666Y-98084819D02*
X209276190Y-98084819D01*
X209276190Y-98084819D02*
X209180952Y-98132438D01*
X209180952Y-98132438D02*
X209133333Y-98180057D01*
X209133333Y-98180057D02*
X209038095Y-98322914D01*
X209038095Y-98322914D02*
X208990476Y-98513390D01*
X208990476Y-98513390D02*
X208990476Y-98894342D01*
X208990476Y-98894342D02*
X209038095Y-98989580D01*
X209038095Y-98989580D02*
X209085714Y-99037200D01*
X209085714Y-99037200D02*
X209180952Y-99084819D01*
X209180952Y-99084819D02*
X209371428Y-99084819D01*
X209371428Y-99084819D02*
X209466666Y-99037200D01*
X209466666Y-99037200D02*
X209514285Y-98989580D01*
X209514285Y-98989580D02*
X209561904Y-98894342D01*
X209561904Y-98894342D02*
X209561904Y-98656247D01*
X209561904Y-98656247D02*
X209514285Y-98561009D01*
X209514285Y-98561009D02*
X209466666Y-98513390D01*
X209466666Y-98513390D02*
X209371428Y-98465771D01*
X209371428Y-98465771D02*
X209180952Y-98465771D01*
X209180952Y-98465771D02*
X209085714Y-98513390D01*
X209085714Y-98513390D02*
X209038095Y-98561009D01*
X209038095Y-98561009D02*
X208990476Y-98656247D01*
X131218333Y-84794819D02*
X130885000Y-84318628D01*
X130646905Y-84794819D02*
X130646905Y-83794819D01*
X130646905Y-83794819D02*
X131027857Y-83794819D01*
X131027857Y-83794819D02*
X131123095Y-83842438D01*
X131123095Y-83842438D02*
X131170714Y-83890057D01*
X131170714Y-83890057D02*
X131218333Y-83985295D01*
X131218333Y-83985295D02*
X131218333Y-84128152D01*
X131218333Y-84128152D02*
X131170714Y-84223390D01*
X131170714Y-84223390D02*
X131123095Y-84271009D01*
X131123095Y-84271009D02*
X131027857Y-84318628D01*
X131027857Y-84318628D02*
X130646905Y-84318628D01*
X132075476Y-84128152D02*
X132075476Y-84794819D01*
X131837381Y-83747200D02*
X131599286Y-84461485D01*
X131599286Y-84461485D02*
X132218333Y-84461485D01*
D12*
X180094530Y-88838333D02*
X180118340Y-88862142D01*
X180118340Y-88862142D02*
X180142149Y-88933571D01*
X180142149Y-88933571D02*
X180142149Y-88981190D01*
X180142149Y-88981190D02*
X180118340Y-89052618D01*
X180118340Y-89052618D02*
X180070720Y-89100237D01*
X180070720Y-89100237D02*
X180023101Y-89124047D01*
X180023101Y-89124047D02*
X179927863Y-89147856D01*
X179927863Y-89147856D02*
X179856435Y-89147856D01*
X179856435Y-89147856D02*
X179761197Y-89124047D01*
X179761197Y-89124047D02*
X179713578Y-89100237D01*
X179713578Y-89100237D02*
X179665959Y-89052618D01*
X179665959Y-89052618D02*
X179642149Y-88981190D01*
X179642149Y-88981190D02*
X179642149Y-88933571D01*
X179642149Y-88933571D02*
X179665959Y-88862142D01*
X179665959Y-88862142D02*
X179689768Y-88838333D01*
X179642149Y-88385952D02*
X179642149Y-88624047D01*
X179642149Y-88624047D02*
X179880244Y-88647856D01*
X179880244Y-88647856D02*
X179856435Y-88624047D01*
X179856435Y-88624047D02*
X179832625Y-88576428D01*
X179832625Y-88576428D02*
X179832625Y-88457380D01*
X179832625Y-88457380D02*
X179856435Y-88409761D01*
X179856435Y-88409761D02*
X179880244Y-88385952D01*
X179880244Y-88385952D02*
X179927863Y-88362142D01*
X179927863Y-88362142D02*
X180046911Y-88362142D01*
X180046911Y-88362142D02*
X180094530Y-88385952D01*
X180094530Y-88385952D02*
X180118340Y-88409761D01*
X180118340Y-88409761D02*
X180142149Y-88457380D01*
X180142149Y-88457380D02*
X180142149Y-88576428D01*
X180142149Y-88576428D02*
X180118340Y-88624047D01*
X180118340Y-88624047D02*
X180094530Y-88647856D01*
D11*
X233258276Y-62207619D02*
X233776371Y-62207619D01*
X233776371Y-62207619D02*
X233837323Y-62177142D01*
X233837323Y-62177142D02*
X233867800Y-62146666D01*
X233867800Y-62146666D02*
X233898276Y-62085714D01*
X233898276Y-62085714D02*
X233898276Y-61963809D01*
X233898276Y-61963809D02*
X233867800Y-61902857D01*
X233867800Y-61902857D02*
X233837323Y-61872380D01*
X233837323Y-61872380D02*
X233776371Y-61841904D01*
X233776371Y-61841904D02*
X233258276Y-61841904D01*
X233898276Y-61201904D02*
X233898276Y-61567619D01*
X233898276Y-61384762D02*
X233258276Y-61384762D01*
X233258276Y-61384762D02*
X233349704Y-61445714D01*
X233349704Y-61445714D02*
X233410657Y-61506666D01*
X233410657Y-61506666D02*
X233441133Y-61567619D01*
X130191666Y-87854819D02*
X130191666Y-88569104D01*
X130191666Y-88569104D02*
X130144047Y-88711961D01*
X130144047Y-88711961D02*
X130048809Y-88807200D01*
X130048809Y-88807200D02*
X129905952Y-88854819D01*
X129905952Y-88854819D02*
X129810714Y-88854819D01*
X130620238Y-87950057D02*
X130667857Y-87902438D01*
X130667857Y-87902438D02*
X130763095Y-87854819D01*
X130763095Y-87854819D02*
X131001190Y-87854819D01*
X131001190Y-87854819D02*
X131096428Y-87902438D01*
X131096428Y-87902438D02*
X131144047Y-87950057D01*
X131144047Y-87950057D02*
X131191666Y-88045295D01*
X131191666Y-88045295D02*
X131191666Y-88140533D01*
X131191666Y-88140533D02*
X131144047Y-88283390D01*
X131144047Y-88283390D02*
X130572619Y-88854819D01*
X130572619Y-88854819D02*
X131191666Y-88854819D01*
X128886666Y-121964819D02*
X128553333Y-121488628D01*
X128315238Y-121964819D02*
X128315238Y-120964819D01*
X128315238Y-120964819D02*
X128696190Y-120964819D01*
X128696190Y-120964819D02*
X128791428Y-121012438D01*
X128791428Y-121012438D02*
X128839047Y-121060057D01*
X128839047Y-121060057D02*
X128886666Y-121155295D01*
X128886666Y-121155295D02*
X128886666Y-121298152D01*
X128886666Y-121298152D02*
X128839047Y-121393390D01*
X128839047Y-121393390D02*
X128791428Y-121441009D01*
X128791428Y-121441009D02*
X128696190Y-121488628D01*
X128696190Y-121488628D02*
X128315238Y-121488628D01*
X129315238Y-121441009D02*
X129648571Y-121441009D01*
X129791428Y-121964819D02*
X129315238Y-121964819D01*
X129315238Y-121964819D02*
X129315238Y-120964819D01*
X129315238Y-120964819D02*
X129791428Y-120964819D01*
X130553333Y-121441009D02*
X130220000Y-121441009D01*
X130220000Y-121964819D02*
X130220000Y-120964819D01*
X130220000Y-120964819D02*
X130696190Y-120964819D01*
X131220000Y-120964819D02*
X131220000Y-121202914D01*
X130981905Y-121107676D02*
X131220000Y-121202914D01*
X131220000Y-121202914D02*
X131458095Y-121107676D01*
X131077143Y-121393390D02*
X131220000Y-121202914D01*
X131220000Y-121202914D02*
X131362857Y-121393390D01*
X131981905Y-120964819D02*
X131981905Y-121202914D01*
X131743810Y-121107676D02*
X131981905Y-121202914D01*
X131981905Y-121202914D02*
X132220000Y-121107676D01*
X131839048Y-121393390D02*
X131981905Y-121202914D01*
X131981905Y-121202914D02*
X132124762Y-121393390D01*
X137955833Y-77924819D02*
X137622500Y-77448628D01*
X137384405Y-77924819D02*
X137384405Y-76924819D01*
X137384405Y-76924819D02*
X137765357Y-76924819D01*
X137765357Y-76924819D02*
X137860595Y-76972438D01*
X137860595Y-76972438D02*
X137908214Y-77020057D01*
X137908214Y-77020057D02*
X137955833Y-77115295D01*
X137955833Y-77115295D02*
X137955833Y-77258152D01*
X137955833Y-77258152D02*
X137908214Y-77353390D01*
X137908214Y-77353390D02*
X137860595Y-77401009D01*
X137860595Y-77401009D02*
X137765357Y-77448628D01*
X137765357Y-77448628D02*
X137384405Y-77448628D01*
X138812976Y-76924819D02*
X138622500Y-76924819D01*
X138622500Y-76924819D02*
X138527262Y-76972438D01*
X138527262Y-76972438D02*
X138479643Y-77020057D01*
X138479643Y-77020057D02*
X138384405Y-77162914D01*
X138384405Y-77162914D02*
X138336786Y-77353390D01*
X138336786Y-77353390D02*
X138336786Y-77734342D01*
X138336786Y-77734342D02*
X138384405Y-77829580D01*
X138384405Y-77829580D02*
X138432024Y-77877200D01*
X138432024Y-77877200D02*
X138527262Y-77924819D01*
X138527262Y-77924819D02*
X138717738Y-77924819D01*
X138717738Y-77924819D02*
X138812976Y-77877200D01*
X138812976Y-77877200D02*
X138860595Y-77829580D01*
X138860595Y-77829580D02*
X138908214Y-77734342D01*
X138908214Y-77734342D02*
X138908214Y-77496247D01*
X138908214Y-77496247D02*
X138860595Y-77401009D01*
X138860595Y-77401009D02*
X138812976Y-77353390D01*
X138812976Y-77353390D02*
X138717738Y-77305771D01*
X138717738Y-77305771D02*
X138527262Y-77305771D01*
X138527262Y-77305771D02*
X138432024Y-77353390D01*
X138432024Y-77353390D02*
X138384405Y-77401009D01*
X138384405Y-77401009D02*
X138336786Y-77496247D01*
X179364580Y-90392857D02*
X179412200Y-90440476D01*
X179412200Y-90440476D02*
X179459819Y-90583333D01*
X179459819Y-90583333D02*
X179459819Y-90678571D01*
X179459819Y-90678571D02*
X179412200Y-90821428D01*
X179412200Y-90821428D02*
X179316961Y-90916666D01*
X179316961Y-90916666D02*
X179221723Y-90964285D01*
X179221723Y-90964285D02*
X179031247Y-91011904D01*
X179031247Y-91011904D02*
X178888390Y-91011904D01*
X178888390Y-91011904D02*
X178697914Y-90964285D01*
X178697914Y-90964285D02*
X178602676Y-90916666D01*
X178602676Y-90916666D02*
X178507438Y-90821428D01*
X178507438Y-90821428D02*
X178459819Y-90678571D01*
X178459819Y-90678571D02*
X178459819Y-90583333D01*
X178459819Y-90583333D02*
X178507438Y-90440476D01*
X178507438Y-90440476D02*
X178555057Y-90392857D01*
X179459819Y-89440476D02*
X179459819Y-90011904D01*
X179459819Y-89726190D02*
X178459819Y-89726190D01*
X178459819Y-89726190D02*
X178602676Y-89821428D01*
X178602676Y-89821428D02*
X178697914Y-89916666D01*
X178697914Y-89916666D02*
X178745533Y-90011904D01*
X178459819Y-89107142D02*
X178459819Y-88488095D01*
X178459819Y-88488095D02*
X178840771Y-88821428D01*
X178840771Y-88821428D02*
X178840771Y-88678571D01*
X178840771Y-88678571D02*
X178888390Y-88583333D01*
X178888390Y-88583333D02*
X178936009Y-88535714D01*
X178936009Y-88535714D02*
X179031247Y-88488095D01*
X179031247Y-88488095D02*
X179269342Y-88488095D01*
X179269342Y-88488095D02*
X179364580Y-88535714D01*
X179364580Y-88535714D02*
X179412200Y-88583333D01*
X179412200Y-88583333D02*
X179459819Y-88678571D01*
X179459819Y-88678571D02*
X179459819Y-88964285D01*
X179459819Y-88964285D02*
X179412200Y-89059523D01*
X179412200Y-89059523D02*
X179364580Y-89107142D01*
X184709580Y-80622857D02*
X184757200Y-80670476D01*
X184757200Y-80670476D02*
X184804819Y-80813333D01*
X184804819Y-80813333D02*
X184804819Y-80908571D01*
X184804819Y-80908571D02*
X184757200Y-81051428D01*
X184757200Y-81051428D02*
X184661961Y-81146666D01*
X184661961Y-81146666D02*
X184566723Y-81194285D01*
X184566723Y-81194285D02*
X184376247Y-81241904D01*
X184376247Y-81241904D02*
X184233390Y-81241904D01*
X184233390Y-81241904D02*
X184042914Y-81194285D01*
X184042914Y-81194285D02*
X183947676Y-81146666D01*
X183947676Y-81146666D02*
X183852438Y-81051428D01*
X183852438Y-81051428D02*
X183804819Y-80908571D01*
X183804819Y-80908571D02*
X183804819Y-80813333D01*
X183804819Y-80813333D02*
X183852438Y-80670476D01*
X183852438Y-80670476D02*
X183900057Y-80622857D01*
X184804819Y-79670476D02*
X184804819Y-80241904D01*
X184804819Y-79956190D02*
X183804819Y-79956190D01*
X183804819Y-79956190D02*
X183947676Y-80051428D01*
X183947676Y-80051428D02*
X184042914Y-80146666D01*
X184042914Y-80146666D02*
X184090533Y-80241904D01*
X183900057Y-79289523D02*
X183852438Y-79241904D01*
X183852438Y-79241904D02*
X183804819Y-79146666D01*
X183804819Y-79146666D02*
X183804819Y-78908571D01*
X183804819Y-78908571D02*
X183852438Y-78813333D01*
X183852438Y-78813333D02*
X183900057Y-78765714D01*
X183900057Y-78765714D02*
X183995295Y-78718095D01*
X183995295Y-78718095D02*
X184090533Y-78718095D01*
X184090533Y-78718095D02*
X184233390Y-78765714D01*
X184233390Y-78765714D02*
X184804819Y-79337142D01*
X184804819Y-79337142D02*
X184804819Y-78718095D01*
X129741666Y-104454819D02*
X129741666Y-105169104D01*
X129741666Y-105169104D02*
X129694047Y-105311961D01*
X129694047Y-105311961D02*
X129598809Y-105407200D01*
X129598809Y-105407200D02*
X129455952Y-105454819D01*
X129455952Y-105454819D02*
X129360714Y-105454819D01*
X130360714Y-104883390D02*
X130265476Y-104835771D01*
X130265476Y-104835771D02*
X130217857Y-104788152D01*
X130217857Y-104788152D02*
X130170238Y-104692914D01*
X130170238Y-104692914D02*
X130170238Y-104645295D01*
X130170238Y-104645295D02*
X130217857Y-104550057D01*
X130217857Y-104550057D02*
X130265476Y-104502438D01*
X130265476Y-104502438D02*
X130360714Y-104454819D01*
X130360714Y-104454819D02*
X130551190Y-104454819D01*
X130551190Y-104454819D02*
X130646428Y-104502438D01*
X130646428Y-104502438D02*
X130694047Y-104550057D01*
X130694047Y-104550057D02*
X130741666Y-104645295D01*
X130741666Y-104645295D02*
X130741666Y-104692914D01*
X130741666Y-104692914D02*
X130694047Y-104788152D01*
X130694047Y-104788152D02*
X130646428Y-104835771D01*
X130646428Y-104835771D02*
X130551190Y-104883390D01*
X130551190Y-104883390D02*
X130360714Y-104883390D01*
X130360714Y-104883390D02*
X130265476Y-104931009D01*
X130265476Y-104931009D02*
X130217857Y-104978628D01*
X130217857Y-104978628D02*
X130170238Y-105073866D01*
X130170238Y-105073866D02*
X130170238Y-105264342D01*
X130170238Y-105264342D02*
X130217857Y-105359580D01*
X130217857Y-105359580D02*
X130265476Y-105407200D01*
X130265476Y-105407200D02*
X130360714Y-105454819D01*
X130360714Y-105454819D02*
X130551190Y-105454819D01*
X130551190Y-105454819D02*
X130646428Y-105407200D01*
X130646428Y-105407200D02*
X130694047Y-105359580D01*
X130694047Y-105359580D02*
X130741666Y-105264342D01*
X130741666Y-105264342D02*
X130741666Y-105073866D01*
X130741666Y-105073866D02*
X130694047Y-104978628D01*
X130694047Y-104978628D02*
X130646428Y-104931009D01*
X130646428Y-104931009D02*
X130551190Y-104883390D01*
X181199405Y-93934819D02*
X181199405Y-92934819D01*
X181199405Y-92934819D02*
X181437500Y-92934819D01*
X181437500Y-92934819D02*
X181580357Y-92982438D01*
X181580357Y-92982438D02*
X181675595Y-93077676D01*
X181675595Y-93077676D02*
X181723214Y-93172914D01*
X181723214Y-93172914D02*
X181770833Y-93363390D01*
X181770833Y-93363390D02*
X181770833Y-93506247D01*
X181770833Y-93506247D02*
X181723214Y-93696723D01*
X181723214Y-93696723D02*
X181675595Y-93791961D01*
X181675595Y-93791961D02*
X181580357Y-93887200D01*
X181580357Y-93887200D02*
X181437500Y-93934819D01*
X181437500Y-93934819D02*
X181199405Y-93934819D01*
X182104167Y-92934819D02*
X182723214Y-92934819D01*
X182723214Y-92934819D02*
X182389881Y-93315771D01*
X182389881Y-93315771D02*
X182532738Y-93315771D01*
X182532738Y-93315771D02*
X182627976Y-93363390D01*
X182627976Y-93363390D02*
X182675595Y-93411009D01*
X182675595Y-93411009D02*
X182723214Y-93506247D01*
X182723214Y-93506247D02*
X182723214Y-93744342D01*
X182723214Y-93744342D02*
X182675595Y-93839580D01*
X182675595Y-93839580D02*
X182627976Y-93887200D01*
X182627976Y-93887200D02*
X182532738Y-93934819D01*
X182532738Y-93934819D02*
X182247024Y-93934819D01*
X182247024Y-93934819D02*
X182151786Y-93887200D01*
X182151786Y-93887200D02*
X182104167Y-93839580D01*
X227909580Y-61842857D02*
X227957200Y-61890476D01*
X227957200Y-61890476D02*
X228004819Y-62033333D01*
X228004819Y-62033333D02*
X228004819Y-62128571D01*
X228004819Y-62128571D02*
X227957200Y-62271428D01*
X227957200Y-62271428D02*
X227861961Y-62366666D01*
X227861961Y-62366666D02*
X227766723Y-62414285D01*
X227766723Y-62414285D02*
X227576247Y-62461904D01*
X227576247Y-62461904D02*
X227433390Y-62461904D01*
X227433390Y-62461904D02*
X227242914Y-62414285D01*
X227242914Y-62414285D02*
X227147676Y-62366666D01*
X227147676Y-62366666D02*
X227052438Y-62271428D01*
X227052438Y-62271428D02*
X227004819Y-62128571D01*
X227004819Y-62128571D02*
X227004819Y-62033333D01*
X227004819Y-62033333D02*
X227052438Y-61890476D01*
X227052438Y-61890476D02*
X227100057Y-61842857D01*
X227004819Y-61509523D02*
X227004819Y-60890476D01*
X227004819Y-60890476D02*
X227385771Y-61223809D01*
X227385771Y-61223809D02*
X227385771Y-61080952D01*
X227385771Y-61080952D02*
X227433390Y-60985714D01*
X227433390Y-60985714D02*
X227481009Y-60938095D01*
X227481009Y-60938095D02*
X227576247Y-60890476D01*
X227576247Y-60890476D02*
X227814342Y-60890476D01*
X227814342Y-60890476D02*
X227909580Y-60938095D01*
X227909580Y-60938095D02*
X227957200Y-60985714D01*
X227957200Y-60985714D02*
X228004819Y-61080952D01*
X228004819Y-61080952D02*
X228004819Y-61366666D01*
X228004819Y-61366666D02*
X227957200Y-61461904D01*
X227957200Y-61461904D02*
X227909580Y-61509523D01*
X228004819Y-60414285D02*
X228004819Y-60223809D01*
X228004819Y-60223809D02*
X227957200Y-60128571D01*
X227957200Y-60128571D02*
X227909580Y-60080952D01*
X227909580Y-60080952D02*
X227766723Y-59985714D01*
X227766723Y-59985714D02*
X227576247Y-59938095D01*
X227576247Y-59938095D02*
X227195295Y-59938095D01*
X227195295Y-59938095D02*
X227100057Y-59985714D01*
X227100057Y-59985714D02*
X227052438Y-60033333D01*
X227052438Y-60033333D02*
X227004819Y-60128571D01*
X227004819Y-60128571D02*
X227004819Y-60319047D01*
X227004819Y-60319047D02*
X227052438Y-60414285D01*
X227052438Y-60414285D02*
X227100057Y-60461904D01*
X227100057Y-60461904D02*
X227195295Y-60509523D01*
X227195295Y-60509523D02*
X227433390Y-60509523D01*
X227433390Y-60509523D02*
X227528628Y-60461904D01*
X227528628Y-60461904D02*
X227576247Y-60414285D01*
X227576247Y-60414285D02*
X227623866Y-60319047D01*
X227623866Y-60319047D02*
X227623866Y-60128571D01*
X227623866Y-60128571D02*
X227576247Y-60033333D01*
X227576247Y-60033333D02*
X227528628Y-59985714D01*
X227528628Y-59985714D02*
X227433390Y-59938095D01*
D12*
X177389530Y-81948333D02*
X177413340Y-81972142D01*
X177413340Y-81972142D02*
X177437149Y-82043571D01*
X177437149Y-82043571D02*
X177437149Y-82091190D01*
X177437149Y-82091190D02*
X177413340Y-82162618D01*
X177413340Y-82162618D02*
X177365720Y-82210237D01*
X177365720Y-82210237D02*
X177318101Y-82234047D01*
X177318101Y-82234047D02*
X177222863Y-82257856D01*
X177222863Y-82257856D02*
X177151435Y-82257856D01*
X177151435Y-82257856D02*
X177056197Y-82234047D01*
X177056197Y-82234047D02*
X177008578Y-82210237D01*
X177008578Y-82210237D02*
X176960959Y-82162618D01*
X176960959Y-82162618D02*
X176937149Y-82091190D01*
X176937149Y-82091190D02*
X176937149Y-82043571D01*
X176937149Y-82043571D02*
X176960959Y-81972142D01*
X176960959Y-81972142D02*
X176984768Y-81948333D01*
X177437149Y-81472142D02*
X177437149Y-81757856D01*
X177437149Y-81614999D02*
X176937149Y-81614999D01*
X176937149Y-81614999D02*
X177008578Y-81662618D01*
X177008578Y-81662618D02*
X177056197Y-81710237D01*
X177056197Y-81710237D02*
X177080006Y-81757856D01*
D11*
X216107142Y-104139580D02*
X216059523Y-104187200D01*
X216059523Y-104187200D02*
X215916666Y-104234819D01*
X215916666Y-104234819D02*
X215821428Y-104234819D01*
X215821428Y-104234819D02*
X215678571Y-104187200D01*
X215678571Y-104187200D02*
X215583333Y-104091961D01*
X215583333Y-104091961D02*
X215535714Y-103996723D01*
X215535714Y-103996723D02*
X215488095Y-103806247D01*
X215488095Y-103806247D02*
X215488095Y-103663390D01*
X215488095Y-103663390D02*
X215535714Y-103472914D01*
X215535714Y-103472914D02*
X215583333Y-103377676D01*
X215583333Y-103377676D02*
X215678571Y-103282438D01*
X215678571Y-103282438D02*
X215821428Y-103234819D01*
X215821428Y-103234819D02*
X215916666Y-103234819D01*
X215916666Y-103234819D02*
X216059523Y-103282438D01*
X216059523Y-103282438D02*
X216107142Y-103330057D01*
X216488095Y-103330057D02*
X216535714Y-103282438D01*
X216535714Y-103282438D02*
X216630952Y-103234819D01*
X216630952Y-103234819D02*
X216869047Y-103234819D01*
X216869047Y-103234819D02*
X216964285Y-103282438D01*
X216964285Y-103282438D02*
X217011904Y-103330057D01*
X217011904Y-103330057D02*
X217059523Y-103425295D01*
X217059523Y-103425295D02*
X217059523Y-103520533D01*
X217059523Y-103520533D02*
X217011904Y-103663390D01*
X217011904Y-103663390D02*
X216440476Y-104234819D01*
X216440476Y-104234819D02*
X217059523Y-104234819D01*
X217916666Y-103568152D02*
X217916666Y-104234819D01*
X217678571Y-103187200D02*
X217440476Y-103901485D01*
X217440476Y-103901485D02*
X218059523Y-103901485D01*
X240837142Y-66929580D02*
X240789523Y-66977200D01*
X240789523Y-66977200D02*
X240646666Y-67024819D01*
X240646666Y-67024819D02*
X240551428Y-67024819D01*
X240551428Y-67024819D02*
X240408571Y-66977200D01*
X240408571Y-66977200D02*
X240313333Y-66881961D01*
X240313333Y-66881961D02*
X240265714Y-66786723D01*
X240265714Y-66786723D02*
X240218095Y-66596247D01*
X240218095Y-66596247D02*
X240218095Y-66453390D01*
X240218095Y-66453390D02*
X240265714Y-66262914D01*
X240265714Y-66262914D02*
X240313333Y-66167676D01*
X240313333Y-66167676D02*
X240408571Y-66072438D01*
X240408571Y-66072438D02*
X240551428Y-66024819D01*
X240551428Y-66024819D02*
X240646666Y-66024819D01*
X240646666Y-66024819D02*
X240789523Y-66072438D01*
X240789523Y-66072438D02*
X240837142Y-66120057D01*
X241789523Y-67024819D02*
X241218095Y-67024819D01*
X241503809Y-67024819D02*
X241503809Y-66024819D01*
X241503809Y-66024819D02*
X241408571Y-66167676D01*
X241408571Y-66167676D02*
X241313333Y-66262914D01*
X241313333Y-66262914D02*
X241218095Y-66310533D01*
X242646666Y-66024819D02*
X242456190Y-66024819D01*
X242456190Y-66024819D02*
X242360952Y-66072438D01*
X242360952Y-66072438D02*
X242313333Y-66120057D01*
X242313333Y-66120057D02*
X242218095Y-66262914D01*
X242218095Y-66262914D02*
X242170476Y-66453390D01*
X242170476Y-66453390D02*
X242170476Y-66834342D01*
X242170476Y-66834342D02*
X242218095Y-66929580D01*
X242218095Y-66929580D02*
X242265714Y-66977200D01*
X242265714Y-66977200D02*
X242360952Y-67024819D01*
X242360952Y-67024819D02*
X242551428Y-67024819D01*
X242551428Y-67024819D02*
X242646666Y-66977200D01*
X242646666Y-66977200D02*
X242694285Y-66929580D01*
X242694285Y-66929580D02*
X242741904Y-66834342D01*
X242741904Y-66834342D02*
X242741904Y-66596247D01*
X242741904Y-66596247D02*
X242694285Y-66501009D01*
X242694285Y-66501009D02*
X242646666Y-66453390D01*
X242646666Y-66453390D02*
X242551428Y-66405771D01*
X242551428Y-66405771D02*
X242360952Y-66405771D01*
X242360952Y-66405771D02*
X242265714Y-66453390D01*
X242265714Y-66453390D02*
X242218095Y-66501009D01*
X242218095Y-66501009D02*
X242170476Y-66596247D01*
X194704819Y-54580357D02*
X194228628Y-54913690D01*
X194704819Y-55151785D02*
X193704819Y-55151785D01*
X193704819Y-55151785D02*
X193704819Y-54770833D01*
X193704819Y-54770833D02*
X193752438Y-54675595D01*
X193752438Y-54675595D02*
X193800057Y-54627976D01*
X193800057Y-54627976D02*
X193895295Y-54580357D01*
X193895295Y-54580357D02*
X194038152Y-54580357D01*
X194038152Y-54580357D02*
X194133390Y-54627976D01*
X194133390Y-54627976D02*
X194181009Y-54675595D01*
X194181009Y-54675595D02*
X194228628Y-54770833D01*
X194228628Y-54770833D02*
X194228628Y-55151785D01*
X194704819Y-53627976D02*
X194704819Y-54199404D01*
X194704819Y-53913690D02*
X193704819Y-53913690D01*
X193704819Y-53913690D02*
X193847676Y-54008928D01*
X193847676Y-54008928D02*
X193942914Y-54104166D01*
X193942914Y-54104166D02*
X193990533Y-54199404D01*
X193704819Y-52770833D02*
X193704819Y-52961309D01*
X193704819Y-52961309D02*
X193752438Y-53056547D01*
X193752438Y-53056547D02*
X193800057Y-53104166D01*
X193800057Y-53104166D02*
X193942914Y-53199404D01*
X193942914Y-53199404D02*
X194133390Y-53247023D01*
X194133390Y-53247023D02*
X194514342Y-53247023D01*
X194514342Y-53247023D02*
X194609580Y-53199404D01*
X194609580Y-53199404D02*
X194657200Y-53151785D01*
X194657200Y-53151785D02*
X194704819Y-53056547D01*
X194704819Y-53056547D02*
X194704819Y-52866071D01*
X194704819Y-52866071D02*
X194657200Y-52770833D01*
X194657200Y-52770833D02*
X194609580Y-52723214D01*
X194609580Y-52723214D02*
X194514342Y-52675595D01*
X194514342Y-52675595D02*
X194276247Y-52675595D01*
X194276247Y-52675595D02*
X194181009Y-52723214D01*
X194181009Y-52723214D02*
X194133390Y-52770833D01*
X194133390Y-52770833D02*
X194085771Y-52866071D01*
X194085771Y-52866071D02*
X194085771Y-53056547D01*
X194085771Y-53056547D02*
X194133390Y-53151785D01*
X194133390Y-53151785D02*
X194181009Y-53199404D01*
X194181009Y-53199404D02*
X194276247Y-53247023D01*
X151947319Y-88966666D02*
X151471128Y-89299999D01*
X151947319Y-89538094D02*
X150947319Y-89538094D01*
X150947319Y-89538094D02*
X150947319Y-89157142D01*
X150947319Y-89157142D02*
X150994938Y-89061904D01*
X150994938Y-89061904D02*
X151042557Y-89014285D01*
X151042557Y-89014285D02*
X151137795Y-88966666D01*
X151137795Y-88966666D02*
X151280652Y-88966666D01*
X151280652Y-88966666D02*
X151375890Y-89014285D01*
X151375890Y-89014285D02*
X151423509Y-89061904D01*
X151423509Y-89061904D02*
X151471128Y-89157142D01*
X151471128Y-89157142D02*
X151471128Y-89538094D01*
X151375890Y-88395237D02*
X151328271Y-88490475D01*
X151328271Y-88490475D02*
X151280652Y-88538094D01*
X151280652Y-88538094D02*
X151185414Y-88585713D01*
X151185414Y-88585713D02*
X151137795Y-88585713D01*
X151137795Y-88585713D02*
X151042557Y-88538094D01*
X151042557Y-88538094D02*
X150994938Y-88490475D01*
X150994938Y-88490475D02*
X150947319Y-88395237D01*
X150947319Y-88395237D02*
X150947319Y-88204761D01*
X150947319Y-88204761D02*
X150994938Y-88109523D01*
X150994938Y-88109523D02*
X151042557Y-88061904D01*
X151042557Y-88061904D02*
X151137795Y-88014285D01*
X151137795Y-88014285D02*
X151185414Y-88014285D01*
X151185414Y-88014285D02*
X151280652Y-88061904D01*
X151280652Y-88061904D02*
X151328271Y-88109523D01*
X151328271Y-88109523D02*
X151375890Y-88204761D01*
X151375890Y-88204761D02*
X151375890Y-88395237D01*
X151375890Y-88395237D02*
X151423509Y-88490475D01*
X151423509Y-88490475D02*
X151471128Y-88538094D01*
X151471128Y-88538094D02*
X151566366Y-88585713D01*
X151566366Y-88585713D02*
X151756842Y-88585713D01*
X151756842Y-88585713D02*
X151852080Y-88538094D01*
X151852080Y-88538094D02*
X151899700Y-88490475D01*
X151899700Y-88490475D02*
X151947319Y-88395237D01*
X151947319Y-88395237D02*
X151947319Y-88204761D01*
X151947319Y-88204761D02*
X151899700Y-88109523D01*
X151899700Y-88109523D02*
X151852080Y-88061904D01*
X151852080Y-88061904D02*
X151756842Y-88014285D01*
X151756842Y-88014285D02*
X151566366Y-88014285D01*
X151566366Y-88014285D02*
X151471128Y-88061904D01*
X151471128Y-88061904D02*
X151423509Y-88109523D01*
X151423509Y-88109523D02*
X151375890Y-88204761D01*
X140797319Y-89476666D02*
X140321128Y-89809999D01*
X140797319Y-90048094D02*
X139797319Y-90048094D01*
X139797319Y-90048094D02*
X139797319Y-89667142D01*
X139797319Y-89667142D02*
X139844938Y-89571904D01*
X139844938Y-89571904D02*
X139892557Y-89524285D01*
X139892557Y-89524285D02*
X139987795Y-89476666D01*
X139987795Y-89476666D02*
X140130652Y-89476666D01*
X140130652Y-89476666D02*
X140225890Y-89524285D01*
X140225890Y-89524285D02*
X140273509Y-89571904D01*
X140273509Y-89571904D02*
X140321128Y-89667142D01*
X140321128Y-89667142D02*
X140321128Y-90048094D01*
X139797319Y-89143332D02*
X139797319Y-88524285D01*
X139797319Y-88524285D02*
X140178271Y-88857618D01*
X140178271Y-88857618D02*
X140178271Y-88714761D01*
X140178271Y-88714761D02*
X140225890Y-88619523D01*
X140225890Y-88619523D02*
X140273509Y-88571904D01*
X140273509Y-88571904D02*
X140368747Y-88524285D01*
X140368747Y-88524285D02*
X140606842Y-88524285D01*
X140606842Y-88524285D02*
X140702080Y-88571904D01*
X140702080Y-88571904D02*
X140749700Y-88619523D01*
X140749700Y-88619523D02*
X140797319Y-88714761D01*
X140797319Y-88714761D02*
X140797319Y-89000475D01*
X140797319Y-89000475D02*
X140749700Y-89095713D01*
X140749700Y-89095713D02*
X140702080Y-89143332D01*
X137764819Y-95692857D02*
X137288628Y-96026190D01*
X137764819Y-96264285D02*
X136764819Y-96264285D01*
X136764819Y-96264285D02*
X136764819Y-95883333D01*
X136764819Y-95883333D02*
X136812438Y-95788095D01*
X136812438Y-95788095D02*
X136860057Y-95740476D01*
X136860057Y-95740476D02*
X136955295Y-95692857D01*
X136955295Y-95692857D02*
X137098152Y-95692857D01*
X137098152Y-95692857D02*
X137193390Y-95740476D01*
X137193390Y-95740476D02*
X137241009Y-95788095D01*
X137241009Y-95788095D02*
X137288628Y-95883333D01*
X137288628Y-95883333D02*
X137288628Y-96264285D01*
X137098152Y-94835714D02*
X137764819Y-94835714D01*
X136717200Y-95073809D02*
X137431485Y-95311904D01*
X137431485Y-95311904D02*
X137431485Y-94692857D01*
X137098152Y-93883333D02*
X137764819Y-93883333D01*
X136717200Y-94121428D02*
X137431485Y-94359523D01*
X137431485Y-94359523D02*
X137431485Y-93740476D01*
X187407142Y-72459580D02*
X187359523Y-72507200D01*
X187359523Y-72507200D02*
X187216666Y-72554819D01*
X187216666Y-72554819D02*
X187121428Y-72554819D01*
X187121428Y-72554819D02*
X186978571Y-72507200D01*
X186978571Y-72507200D02*
X186883333Y-72411961D01*
X186883333Y-72411961D02*
X186835714Y-72316723D01*
X186835714Y-72316723D02*
X186788095Y-72126247D01*
X186788095Y-72126247D02*
X186788095Y-71983390D01*
X186788095Y-71983390D02*
X186835714Y-71792914D01*
X186835714Y-71792914D02*
X186883333Y-71697676D01*
X186883333Y-71697676D02*
X186978571Y-71602438D01*
X186978571Y-71602438D02*
X187121428Y-71554819D01*
X187121428Y-71554819D02*
X187216666Y-71554819D01*
X187216666Y-71554819D02*
X187359523Y-71602438D01*
X187359523Y-71602438D02*
X187407142Y-71650057D01*
X188359523Y-72554819D02*
X187788095Y-72554819D01*
X188073809Y-72554819D02*
X188073809Y-71554819D01*
X188073809Y-71554819D02*
X187978571Y-71697676D01*
X187978571Y-71697676D02*
X187883333Y-71792914D01*
X187883333Y-71792914D02*
X187788095Y-71840533D01*
X189311904Y-72554819D02*
X188740476Y-72554819D01*
X189026190Y-72554819D02*
X189026190Y-71554819D01*
X189026190Y-71554819D02*
X188930952Y-71697676D01*
X188930952Y-71697676D02*
X188835714Y-71792914D01*
X188835714Y-71792914D02*
X188740476Y-71840533D01*
X235977142Y-73639580D02*
X235929523Y-73687200D01*
X235929523Y-73687200D02*
X235786666Y-73734819D01*
X235786666Y-73734819D02*
X235691428Y-73734819D01*
X235691428Y-73734819D02*
X235548571Y-73687200D01*
X235548571Y-73687200D02*
X235453333Y-73591961D01*
X235453333Y-73591961D02*
X235405714Y-73496723D01*
X235405714Y-73496723D02*
X235358095Y-73306247D01*
X235358095Y-73306247D02*
X235358095Y-73163390D01*
X235358095Y-73163390D02*
X235405714Y-72972914D01*
X235405714Y-72972914D02*
X235453333Y-72877676D01*
X235453333Y-72877676D02*
X235548571Y-72782438D01*
X235548571Y-72782438D02*
X235691428Y-72734819D01*
X235691428Y-72734819D02*
X235786666Y-72734819D01*
X235786666Y-72734819D02*
X235929523Y-72782438D01*
X235929523Y-72782438D02*
X235977142Y-72830057D01*
X236929523Y-73734819D02*
X236358095Y-73734819D01*
X236643809Y-73734819D02*
X236643809Y-72734819D01*
X236643809Y-72734819D02*
X236548571Y-72877676D01*
X236548571Y-72877676D02*
X236453333Y-72972914D01*
X236453333Y-72972914D02*
X236358095Y-73020533D01*
X237834285Y-72734819D02*
X237358095Y-72734819D01*
X237358095Y-72734819D02*
X237310476Y-73211009D01*
X237310476Y-73211009D02*
X237358095Y-73163390D01*
X237358095Y-73163390D02*
X237453333Y-73115771D01*
X237453333Y-73115771D02*
X237691428Y-73115771D01*
X237691428Y-73115771D02*
X237786666Y-73163390D01*
X237786666Y-73163390D02*
X237834285Y-73211009D01*
X237834285Y-73211009D02*
X237881904Y-73306247D01*
X237881904Y-73306247D02*
X237881904Y-73544342D01*
X237881904Y-73544342D02*
X237834285Y-73639580D01*
X237834285Y-73639580D02*
X237786666Y-73687200D01*
X237786666Y-73687200D02*
X237691428Y-73734819D01*
X237691428Y-73734819D02*
X237453333Y-73734819D01*
X237453333Y-73734819D02*
X237358095Y-73687200D01*
X237358095Y-73687200D02*
X237310476Y-73639580D01*
X190661905Y-69254819D02*
X190661905Y-68254819D01*
X190661905Y-68254819D02*
X190900000Y-68254819D01*
X190900000Y-68254819D02*
X191042857Y-68302438D01*
X191042857Y-68302438D02*
X191138095Y-68397676D01*
X191138095Y-68397676D02*
X191185714Y-68492914D01*
X191185714Y-68492914D02*
X191233333Y-68683390D01*
X191233333Y-68683390D02*
X191233333Y-68826247D01*
X191233333Y-68826247D02*
X191185714Y-69016723D01*
X191185714Y-69016723D02*
X191138095Y-69111961D01*
X191138095Y-69111961D02*
X191042857Y-69207200D01*
X191042857Y-69207200D02*
X190900000Y-69254819D01*
X190900000Y-69254819D02*
X190661905Y-69254819D01*
X192090476Y-68588152D02*
X192090476Y-69254819D01*
X191852381Y-68207200D02*
X191614286Y-68921485D01*
X191614286Y-68921485D02*
X192233333Y-68921485D01*
X150817142Y-103074819D02*
X150483809Y-102598628D01*
X150245714Y-103074819D02*
X150245714Y-102074819D01*
X150245714Y-102074819D02*
X150626666Y-102074819D01*
X150626666Y-102074819D02*
X150721904Y-102122438D01*
X150721904Y-102122438D02*
X150769523Y-102170057D01*
X150769523Y-102170057D02*
X150817142Y-102265295D01*
X150817142Y-102265295D02*
X150817142Y-102408152D01*
X150817142Y-102408152D02*
X150769523Y-102503390D01*
X150769523Y-102503390D02*
X150721904Y-102551009D01*
X150721904Y-102551009D02*
X150626666Y-102598628D01*
X150626666Y-102598628D02*
X150245714Y-102598628D01*
X151721904Y-102074819D02*
X151245714Y-102074819D01*
X151245714Y-102074819D02*
X151198095Y-102551009D01*
X151198095Y-102551009D02*
X151245714Y-102503390D01*
X151245714Y-102503390D02*
X151340952Y-102455771D01*
X151340952Y-102455771D02*
X151579047Y-102455771D01*
X151579047Y-102455771D02*
X151674285Y-102503390D01*
X151674285Y-102503390D02*
X151721904Y-102551009D01*
X151721904Y-102551009D02*
X151769523Y-102646247D01*
X151769523Y-102646247D02*
X151769523Y-102884342D01*
X151769523Y-102884342D02*
X151721904Y-102979580D01*
X151721904Y-102979580D02*
X151674285Y-103027200D01*
X151674285Y-103027200D02*
X151579047Y-103074819D01*
X151579047Y-103074819D02*
X151340952Y-103074819D01*
X151340952Y-103074819D02*
X151245714Y-103027200D01*
X151245714Y-103027200D02*
X151198095Y-102979580D01*
X152388571Y-102074819D02*
X152483809Y-102074819D01*
X152483809Y-102074819D02*
X152579047Y-102122438D01*
X152579047Y-102122438D02*
X152626666Y-102170057D01*
X152626666Y-102170057D02*
X152674285Y-102265295D01*
X152674285Y-102265295D02*
X152721904Y-102455771D01*
X152721904Y-102455771D02*
X152721904Y-102693866D01*
X152721904Y-102693866D02*
X152674285Y-102884342D01*
X152674285Y-102884342D02*
X152626666Y-102979580D01*
X152626666Y-102979580D02*
X152579047Y-103027200D01*
X152579047Y-103027200D02*
X152483809Y-103074819D01*
X152483809Y-103074819D02*
X152388571Y-103074819D01*
X152388571Y-103074819D02*
X152293333Y-103027200D01*
X152293333Y-103027200D02*
X152245714Y-102979580D01*
X152245714Y-102979580D02*
X152198095Y-102884342D01*
X152198095Y-102884342D02*
X152150476Y-102693866D01*
X152150476Y-102693866D02*
X152150476Y-102455771D01*
X152150476Y-102455771D02*
X152198095Y-102265295D01*
X152198095Y-102265295D02*
X152245714Y-102170057D01*
X152245714Y-102170057D02*
X152293333Y-102122438D01*
X152293333Y-102122438D02*
X152388571Y-102074819D01*
X130797142Y-101894819D02*
X130463809Y-101418628D01*
X130225714Y-101894819D02*
X130225714Y-100894819D01*
X130225714Y-100894819D02*
X130606666Y-100894819D01*
X130606666Y-100894819D02*
X130701904Y-100942438D01*
X130701904Y-100942438D02*
X130749523Y-100990057D01*
X130749523Y-100990057D02*
X130797142Y-101085295D01*
X130797142Y-101085295D02*
X130797142Y-101228152D01*
X130797142Y-101228152D02*
X130749523Y-101323390D01*
X130749523Y-101323390D02*
X130701904Y-101371009D01*
X130701904Y-101371009D02*
X130606666Y-101418628D01*
X130606666Y-101418628D02*
X130225714Y-101418628D01*
X131654285Y-101228152D02*
X131654285Y-101894819D01*
X131416190Y-100847200D02*
X131178095Y-101561485D01*
X131178095Y-101561485D02*
X131797142Y-101561485D01*
X132606666Y-100894819D02*
X132416190Y-100894819D01*
X132416190Y-100894819D02*
X132320952Y-100942438D01*
X132320952Y-100942438D02*
X132273333Y-100990057D01*
X132273333Y-100990057D02*
X132178095Y-101132914D01*
X132178095Y-101132914D02*
X132130476Y-101323390D01*
X132130476Y-101323390D02*
X132130476Y-101704342D01*
X132130476Y-101704342D02*
X132178095Y-101799580D01*
X132178095Y-101799580D02*
X132225714Y-101847200D01*
X132225714Y-101847200D02*
X132320952Y-101894819D01*
X132320952Y-101894819D02*
X132511428Y-101894819D01*
X132511428Y-101894819D02*
X132606666Y-101847200D01*
X132606666Y-101847200D02*
X132654285Y-101799580D01*
X132654285Y-101799580D02*
X132701904Y-101704342D01*
X132701904Y-101704342D02*
X132701904Y-101466247D01*
X132701904Y-101466247D02*
X132654285Y-101371009D01*
X132654285Y-101371009D02*
X132606666Y-101323390D01*
X132606666Y-101323390D02*
X132511428Y-101275771D01*
X132511428Y-101275771D02*
X132320952Y-101275771D01*
X132320952Y-101275771D02*
X132225714Y-101323390D01*
X132225714Y-101323390D02*
X132178095Y-101371009D01*
X132178095Y-101371009D02*
X132130476Y-101466247D01*
X130954819Y-92289285D02*
X129954819Y-92289285D01*
X129954819Y-92289285D02*
X129954819Y-92051190D01*
X129954819Y-92051190D02*
X130002438Y-91908333D01*
X130002438Y-91908333D02*
X130097676Y-91813095D01*
X130097676Y-91813095D02*
X130192914Y-91765476D01*
X130192914Y-91765476D02*
X130383390Y-91717857D01*
X130383390Y-91717857D02*
X130526247Y-91717857D01*
X130526247Y-91717857D02*
X130716723Y-91765476D01*
X130716723Y-91765476D02*
X130811961Y-91813095D01*
X130811961Y-91813095D02*
X130907200Y-91908333D01*
X130907200Y-91908333D02*
X130954819Y-92051190D01*
X130954819Y-92051190D02*
X130954819Y-92289285D01*
X130954819Y-90765476D02*
X130954819Y-91336904D01*
X130954819Y-91051190D02*
X129954819Y-91051190D01*
X129954819Y-91051190D02*
X130097676Y-91146428D01*
X130097676Y-91146428D02*
X130192914Y-91241666D01*
X130192914Y-91241666D02*
X130240533Y-91336904D01*
X130954819Y-89813095D02*
X130954819Y-90384523D01*
X130954819Y-90098809D02*
X129954819Y-90098809D01*
X129954819Y-90098809D02*
X130097676Y-90194047D01*
X130097676Y-90194047D02*
X130192914Y-90289285D01*
X130192914Y-90289285D02*
X130240533Y-90384523D01*
X177204819Y-66220594D02*
X176204819Y-66220594D01*
X176204819Y-66220594D02*
X176204819Y-65982499D01*
X176204819Y-65982499D02*
X176252438Y-65839642D01*
X176252438Y-65839642D02*
X176347676Y-65744404D01*
X176347676Y-65744404D02*
X176442914Y-65696785D01*
X176442914Y-65696785D02*
X176633390Y-65649166D01*
X176633390Y-65649166D02*
X176776247Y-65649166D01*
X176776247Y-65649166D02*
X176966723Y-65696785D01*
X176966723Y-65696785D02*
X177061961Y-65744404D01*
X177061961Y-65744404D02*
X177157200Y-65839642D01*
X177157200Y-65839642D02*
X177204819Y-65982499D01*
X177204819Y-65982499D02*
X177204819Y-66220594D01*
X176300057Y-65268213D02*
X176252438Y-65220594D01*
X176252438Y-65220594D02*
X176204819Y-65125356D01*
X176204819Y-65125356D02*
X176204819Y-64887261D01*
X176204819Y-64887261D02*
X176252438Y-64792023D01*
X176252438Y-64792023D02*
X176300057Y-64744404D01*
X176300057Y-64744404D02*
X176395295Y-64696785D01*
X176395295Y-64696785D02*
X176490533Y-64696785D01*
X176490533Y-64696785D02*
X176633390Y-64744404D01*
X176633390Y-64744404D02*
X177204819Y-65315832D01*
X177204819Y-65315832D02*
X177204819Y-64696785D01*
X229287142Y-56549580D02*
X229239523Y-56597200D01*
X229239523Y-56597200D02*
X229096666Y-56644819D01*
X229096666Y-56644819D02*
X229001428Y-56644819D01*
X229001428Y-56644819D02*
X228858571Y-56597200D01*
X228858571Y-56597200D02*
X228763333Y-56501961D01*
X228763333Y-56501961D02*
X228715714Y-56406723D01*
X228715714Y-56406723D02*
X228668095Y-56216247D01*
X228668095Y-56216247D02*
X228668095Y-56073390D01*
X228668095Y-56073390D02*
X228715714Y-55882914D01*
X228715714Y-55882914D02*
X228763333Y-55787676D01*
X228763333Y-55787676D02*
X228858571Y-55692438D01*
X228858571Y-55692438D02*
X229001428Y-55644819D01*
X229001428Y-55644819D02*
X229096666Y-55644819D01*
X229096666Y-55644819D02*
X229239523Y-55692438D01*
X229239523Y-55692438D02*
X229287142Y-55740057D01*
X229620476Y-55644819D02*
X230239523Y-55644819D01*
X230239523Y-55644819D02*
X229906190Y-56025771D01*
X229906190Y-56025771D02*
X230049047Y-56025771D01*
X230049047Y-56025771D02*
X230144285Y-56073390D01*
X230144285Y-56073390D02*
X230191904Y-56121009D01*
X230191904Y-56121009D02*
X230239523Y-56216247D01*
X230239523Y-56216247D02*
X230239523Y-56454342D01*
X230239523Y-56454342D02*
X230191904Y-56549580D01*
X230191904Y-56549580D02*
X230144285Y-56597200D01*
X230144285Y-56597200D02*
X230049047Y-56644819D01*
X230049047Y-56644819D02*
X229763333Y-56644819D01*
X229763333Y-56644819D02*
X229668095Y-56597200D01*
X229668095Y-56597200D02*
X229620476Y-56549580D01*
X230620476Y-55740057D02*
X230668095Y-55692438D01*
X230668095Y-55692438D02*
X230763333Y-55644819D01*
X230763333Y-55644819D02*
X231001428Y-55644819D01*
X231001428Y-55644819D02*
X231096666Y-55692438D01*
X231096666Y-55692438D02*
X231144285Y-55740057D01*
X231144285Y-55740057D02*
X231191904Y-55835295D01*
X231191904Y-55835295D02*
X231191904Y-55930533D01*
X231191904Y-55930533D02*
X231144285Y-56073390D01*
X231144285Y-56073390D02*
X230572857Y-56644819D01*
X230572857Y-56644819D02*
X231191904Y-56644819D01*
X180049580Y-77317857D02*
X180097200Y-77365476D01*
X180097200Y-77365476D02*
X180144819Y-77508333D01*
X180144819Y-77508333D02*
X180144819Y-77603571D01*
X180144819Y-77603571D02*
X180097200Y-77746428D01*
X180097200Y-77746428D02*
X180001961Y-77841666D01*
X180001961Y-77841666D02*
X179906723Y-77889285D01*
X179906723Y-77889285D02*
X179716247Y-77936904D01*
X179716247Y-77936904D02*
X179573390Y-77936904D01*
X179573390Y-77936904D02*
X179382914Y-77889285D01*
X179382914Y-77889285D02*
X179287676Y-77841666D01*
X179287676Y-77841666D02*
X179192438Y-77746428D01*
X179192438Y-77746428D02*
X179144819Y-77603571D01*
X179144819Y-77603571D02*
X179144819Y-77508333D01*
X179144819Y-77508333D02*
X179192438Y-77365476D01*
X179192438Y-77365476D02*
X179240057Y-77317857D01*
X179240057Y-76936904D02*
X179192438Y-76889285D01*
X179192438Y-76889285D02*
X179144819Y-76794047D01*
X179144819Y-76794047D02*
X179144819Y-76555952D01*
X179144819Y-76555952D02*
X179192438Y-76460714D01*
X179192438Y-76460714D02*
X179240057Y-76413095D01*
X179240057Y-76413095D02*
X179335295Y-76365476D01*
X179335295Y-76365476D02*
X179430533Y-76365476D01*
X179430533Y-76365476D02*
X179573390Y-76413095D01*
X179573390Y-76413095D02*
X180144819Y-76984523D01*
X180144819Y-76984523D02*
X180144819Y-76365476D01*
X179144819Y-76032142D02*
X179144819Y-75365476D01*
X179144819Y-75365476D02*
X180144819Y-75794047D01*
X180182142Y-84354819D02*
X179848809Y-83878628D01*
X179610714Y-84354819D02*
X179610714Y-83354819D01*
X179610714Y-83354819D02*
X179991666Y-83354819D01*
X179991666Y-83354819D02*
X180086904Y-83402438D01*
X180086904Y-83402438D02*
X180134523Y-83450057D01*
X180134523Y-83450057D02*
X180182142Y-83545295D01*
X180182142Y-83545295D02*
X180182142Y-83688152D01*
X180182142Y-83688152D02*
X180134523Y-83783390D01*
X180134523Y-83783390D02*
X180086904Y-83831009D01*
X180086904Y-83831009D02*
X179991666Y-83878628D01*
X179991666Y-83878628D02*
X179610714Y-83878628D01*
X181039285Y-83688152D02*
X181039285Y-84354819D01*
X180801190Y-83307200D02*
X180563095Y-84021485D01*
X180563095Y-84021485D02*
X181182142Y-84021485D01*
X181515476Y-83450057D02*
X181563095Y-83402438D01*
X181563095Y-83402438D02*
X181658333Y-83354819D01*
X181658333Y-83354819D02*
X181896428Y-83354819D01*
X181896428Y-83354819D02*
X181991666Y-83402438D01*
X181991666Y-83402438D02*
X182039285Y-83450057D01*
X182039285Y-83450057D02*
X182086904Y-83545295D01*
X182086904Y-83545295D02*
X182086904Y-83640533D01*
X182086904Y-83640533D02*
X182039285Y-83783390D01*
X182039285Y-83783390D02*
X181467857Y-84354819D01*
X181467857Y-84354819D02*
X182086904Y-84354819D01*
X193829580Y-70766666D02*
X193877200Y-70814285D01*
X193877200Y-70814285D02*
X193924819Y-70957142D01*
X193924819Y-70957142D02*
X193924819Y-71052380D01*
X193924819Y-71052380D02*
X193877200Y-71195237D01*
X193877200Y-71195237D02*
X193781961Y-71290475D01*
X193781961Y-71290475D02*
X193686723Y-71338094D01*
X193686723Y-71338094D02*
X193496247Y-71385713D01*
X193496247Y-71385713D02*
X193353390Y-71385713D01*
X193353390Y-71385713D02*
X193162914Y-71338094D01*
X193162914Y-71338094D02*
X193067676Y-71290475D01*
X193067676Y-71290475D02*
X192972438Y-71195237D01*
X192972438Y-71195237D02*
X192924819Y-71052380D01*
X192924819Y-71052380D02*
X192924819Y-70957142D01*
X192924819Y-70957142D02*
X192972438Y-70814285D01*
X192972438Y-70814285D02*
X193020057Y-70766666D01*
X192924819Y-70433332D02*
X192924819Y-69766666D01*
X192924819Y-69766666D02*
X193924819Y-70195237D01*
X247986666Y-122454819D02*
X247653333Y-121978628D01*
X247415238Y-122454819D02*
X247415238Y-121454819D01*
X247415238Y-121454819D02*
X247796190Y-121454819D01*
X247796190Y-121454819D02*
X247891428Y-121502438D01*
X247891428Y-121502438D02*
X247939047Y-121550057D01*
X247939047Y-121550057D02*
X247986666Y-121645295D01*
X247986666Y-121645295D02*
X247986666Y-121788152D01*
X247986666Y-121788152D02*
X247939047Y-121883390D01*
X247939047Y-121883390D02*
X247891428Y-121931009D01*
X247891428Y-121931009D02*
X247796190Y-121978628D01*
X247796190Y-121978628D02*
X247415238Y-121978628D01*
X248415238Y-121931009D02*
X248748571Y-121931009D01*
X248891428Y-122454819D02*
X248415238Y-122454819D01*
X248415238Y-122454819D02*
X248415238Y-121454819D01*
X248415238Y-121454819D02*
X248891428Y-121454819D01*
X249653333Y-121931009D02*
X249320000Y-121931009D01*
X249320000Y-122454819D02*
X249320000Y-121454819D01*
X249320000Y-121454819D02*
X249796190Y-121454819D01*
X250320000Y-121454819D02*
X250320000Y-121692914D01*
X250081905Y-121597676D02*
X250320000Y-121692914D01*
X250320000Y-121692914D02*
X250558095Y-121597676D01*
X250177143Y-121883390D02*
X250320000Y-121692914D01*
X250320000Y-121692914D02*
X250462857Y-121883390D01*
X251081905Y-121454819D02*
X251081905Y-121692914D01*
X250843810Y-121597676D02*
X251081905Y-121692914D01*
X251081905Y-121692914D02*
X251320000Y-121597676D01*
X250939048Y-121883390D02*
X251081905Y-121692914D01*
X251081905Y-121692914D02*
X251224762Y-121883390D01*
X213239571Y-109139855D02*
X213239571Y-109949596D01*
X213239571Y-109949596D02*
X213287202Y-110044860D01*
X213287202Y-110044860D02*
X213334834Y-110092492D01*
X213334834Y-110092492D02*
X213430098Y-110140123D01*
X213430098Y-110140123D02*
X213620625Y-110140123D01*
X213620625Y-110140123D02*
X213715889Y-110092492D01*
X213715889Y-110092492D02*
X213763520Y-110044860D01*
X213763520Y-110044860D02*
X213811152Y-109949596D01*
X213811152Y-109949596D02*
X213811152Y-109139855D01*
X214192207Y-109139855D02*
X214859052Y-109139855D01*
X214859052Y-109139855D02*
X214430366Y-110140123D01*
X182029819Y-75641666D02*
X181553628Y-75974999D01*
X182029819Y-76213094D02*
X181029819Y-76213094D01*
X181029819Y-76213094D02*
X181029819Y-75832142D01*
X181029819Y-75832142D02*
X181077438Y-75736904D01*
X181077438Y-75736904D02*
X181125057Y-75689285D01*
X181125057Y-75689285D02*
X181220295Y-75641666D01*
X181220295Y-75641666D02*
X181363152Y-75641666D01*
X181363152Y-75641666D02*
X181458390Y-75689285D01*
X181458390Y-75689285D02*
X181506009Y-75736904D01*
X181506009Y-75736904D02*
X181553628Y-75832142D01*
X181553628Y-75832142D02*
X181553628Y-76213094D01*
X182029819Y-75165475D02*
X182029819Y-74974999D01*
X182029819Y-74974999D02*
X181982200Y-74879761D01*
X181982200Y-74879761D02*
X181934580Y-74832142D01*
X181934580Y-74832142D02*
X181791723Y-74736904D01*
X181791723Y-74736904D02*
X181601247Y-74689285D01*
X181601247Y-74689285D02*
X181220295Y-74689285D01*
X181220295Y-74689285D02*
X181125057Y-74736904D01*
X181125057Y-74736904D02*
X181077438Y-74784523D01*
X181077438Y-74784523D02*
X181029819Y-74879761D01*
X181029819Y-74879761D02*
X181029819Y-75070237D01*
X181029819Y-75070237D02*
X181077438Y-75165475D01*
X181077438Y-75165475D02*
X181125057Y-75213094D01*
X181125057Y-75213094D02*
X181220295Y-75260713D01*
X181220295Y-75260713D02*
X181458390Y-75260713D01*
X181458390Y-75260713D02*
X181553628Y-75213094D01*
X181553628Y-75213094D02*
X181601247Y-75165475D01*
X181601247Y-75165475D02*
X181648866Y-75070237D01*
X181648866Y-75070237D02*
X181648866Y-74879761D01*
X181648866Y-74879761D02*
X181601247Y-74784523D01*
X181601247Y-74784523D02*
X181553628Y-74736904D01*
X181553628Y-74736904D02*
X181458390Y-74689285D01*
D12*
X180139649Y-86716428D02*
X179901554Y-86883094D01*
X180139649Y-87002142D02*
X179639649Y-87002142D01*
X179639649Y-87002142D02*
X179639649Y-86811666D01*
X179639649Y-86811666D02*
X179663459Y-86764047D01*
X179663459Y-86764047D02*
X179687268Y-86740237D01*
X179687268Y-86740237D02*
X179734887Y-86716428D01*
X179734887Y-86716428D02*
X179806316Y-86716428D01*
X179806316Y-86716428D02*
X179853935Y-86740237D01*
X179853935Y-86740237D02*
X179877744Y-86764047D01*
X179877744Y-86764047D02*
X179901554Y-86811666D01*
X179901554Y-86811666D02*
X179901554Y-87002142D01*
X179806316Y-86287856D02*
X180139649Y-86287856D01*
X179615840Y-86406904D02*
X179972982Y-86525951D01*
X179972982Y-86525951D02*
X179972982Y-86216428D01*
X179639649Y-85930714D02*
X179639649Y-85883095D01*
X179639649Y-85883095D02*
X179663459Y-85835476D01*
X179663459Y-85835476D02*
X179687268Y-85811666D01*
X179687268Y-85811666D02*
X179734887Y-85787857D01*
X179734887Y-85787857D02*
X179830125Y-85764047D01*
X179830125Y-85764047D02*
X179949173Y-85764047D01*
X179949173Y-85764047D02*
X180044411Y-85787857D01*
X180044411Y-85787857D02*
X180092030Y-85811666D01*
X180092030Y-85811666D02*
X180115840Y-85835476D01*
X180115840Y-85835476D02*
X180139649Y-85883095D01*
X180139649Y-85883095D02*
X180139649Y-85930714D01*
X180139649Y-85930714D02*
X180115840Y-85978333D01*
X180115840Y-85978333D02*
X180092030Y-86002142D01*
X180092030Y-86002142D02*
X180044411Y-86025952D01*
X180044411Y-86025952D02*
X179949173Y-86049761D01*
X179949173Y-86049761D02*
X179830125Y-86049761D01*
X179830125Y-86049761D02*
X179734887Y-86025952D01*
X179734887Y-86025952D02*
X179687268Y-86002142D01*
X179687268Y-86002142D02*
X179663459Y-85978333D01*
X179663459Y-85978333D02*
X179639649Y-85930714D01*
D11*
X229831905Y-74934819D02*
X229831905Y-73934819D01*
X229831905Y-73934819D02*
X230070000Y-73934819D01*
X230070000Y-73934819D02*
X230212857Y-73982438D01*
X230212857Y-73982438D02*
X230308095Y-74077676D01*
X230308095Y-74077676D02*
X230355714Y-74172914D01*
X230355714Y-74172914D02*
X230403333Y-74363390D01*
X230403333Y-74363390D02*
X230403333Y-74506247D01*
X230403333Y-74506247D02*
X230355714Y-74696723D01*
X230355714Y-74696723D02*
X230308095Y-74791961D01*
X230308095Y-74791961D02*
X230212857Y-74887200D01*
X230212857Y-74887200D02*
X230070000Y-74934819D01*
X230070000Y-74934819D02*
X229831905Y-74934819D01*
X230736667Y-73934819D02*
X231403333Y-73934819D01*
X231403333Y-73934819D02*
X230974762Y-74934819D01*
X129324819Y-81385594D02*
X128324819Y-81385594D01*
X128324819Y-81385594D02*
X128324819Y-81147499D01*
X128324819Y-81147499D02*
X128372438Y-81004642D01*
X128372438Y-81004642D02*
X128467676Y-80909404D01*
X128467676Y-80909404D02*
X128562914Y-80861785D01*
X128562914Y-80861785D02*
X128753390Y-80814166D01*
X128753390Y-80814166D02*
X128896247Y-80814166D01*
X128896247Y-80814166D02*
X129086723Y-80861785D01*
X129086723Y-80861785D02*
X129181961Y-80909404D01*
X129181961Y-80909404D02*
X129277200Y-81004642D01*
X129277200Y-81004642D02*
X129324819Y-81147499D01*
X129324819Y-81147499D02*
X129324819Y-81385594D01*
X129324819Y-80337975D02*
X129324819Y-80147499D01*
X129324819Y-80147499D02*
X129277200Y-80052261D01*
X129277200Y-80052261D02*
X129229580Y-80004642D01*
X129229580Y-80004642D02*
X129086723Y-79909404D01*
X129086723Y-79909404D02*
X128896247Y-79861785D01*
X128896247Y-79861785D02*
X128515295Y-79861785D01*
X128515295Y-79861785D02*
X128420057Y-79909404D01*
X128420057Y-79909404D02*
X128372438Y-79957023D01*
X128372438Y-79957023D02*
X128324819Y-80052261D01*
X128324819Y-80052261D02*
X128324819Y-80242737D01*
X128324819Y-80242737D02*
X128372438Y-80337975D01*
X128372438Y-80337975D02*
X128420057Y-80385594D01*
X128420057Y-80385594D02*
X128515295Y-80433213D01*
X128515295Y-80433213D02*
X128753390Y-80433213D01*
X128753390Y-80433213D02*
X128848628Y-80385594D01*
X128848628Y-80385594D02*
X128896247Y-80337975D01*
X128896247Y-80337975D02*
X128943866Y-80242737D01*
X128943866Y-80242737D02*
X128943866Y-80052261D01*
X128943866Y-80052261D02*
X128896247Y-79957023D01*
X128896247Y-79957023D02*
X128848628Y-79909404D01*
X128848628Y-79909404D02*
X128753390Y-79861785D01*
X172929819Y-75861904D02*
X173739342Y-75861904D01*
X173739342Y-75861904D02*
X173834580Y-75814285D01*
X173834580Y-75814285D02*
X173882200Y-75766666D01*
X173882200Y-75766666D02*
X173929819Y-75671428D01*
X173929819Y-75671428D02*
X173929819Y-75480952D01*
X173929819Y-75480952D02*
X173882200Y-75385714D01*
X173882200Y-75385714D02*
X173834580Y-75338095D01*
X173834580Y-75338095D02*
X173739342Y-75290476D01*
X173739342Y-75290476D02*
X172929819Y-75290476D01*
X172929819Y-74338095D02*
X172929819Y-74814285D01*
X172929819Y-74814285D02*
X173406009Y-74861904D01*
X173406009Y-74861904D02*
X173358390Y-74814285D01*
X173358390Y-74814285D02*
X173310771Y-74719047D01*
X173310771Y-74719047D02*
X173310771Y-74480952D01*
X173310771Y-74480952D02*
X173358390Y-74385714D01*
X173358390Y-74385714D02*
X173406009Y-74338095D01*
X173406009Y-74338095D02*
X173501247Y-74290476D01*
X173501247Y-74290476D02*
X173739342Y-74290476D01*
X173739342Y-74290476D02*
X173834580Y-74338095D01*
X173834580Y-74338095D02*
X173882200Y-74385714D01*
X173882200Y-74385714D02*
X173929819Y-74480952D01*
X173929819Y-74480952D02*
X173929819Y-74719047D01*
X173929819Y-74719047D02*
X173882200Y-74814285D01*
X173882200Y-74814285D02*
X173834580Y-74861904D01*
X190254819Y-58991666D02*
X189778628Y-59324999D01*
X190254819Y-59563094D02*
X189254819Y-59563094D01*
X189254819Y-59563094D02*
X189254819Y-59182142D01*
X189254819Y-59182142D02*
X189302438Y-59086904D01*
X189302438Y-59086904D02*
X189350057Y-59039285D01*
X189350057Y-59039285D02*
X189445295Y-58991666D01*
X189445295Y-58991666D02*
X189588152Y-58991666D01*
X189588152Y-58991666D02*
X189683390Y-59039285D01*
X189683390Y-59039285D02*
X189731009Y-59086904D01*
X189731009Y-59086904D02*
X189778628Y-59182142D01*
X189778628Y-59182142D02*
X189778628Y-59563094D01*
X190254819Y-58039285D02*
X190254819Y-58610713D01*
X190254819Y-58324999D02*
X189254819Y-58324999D01*
X189254819Y-58324999D02*
X189397676Y-58420237D01*
X189397676Y-58420237D02*
X189492914Y-58515475D01*
X189492914Y-58515475D02*
X189540533Y-58610713D01*
X238357142Y-112704819D02*
X238023809Y-112228628D01*
X237785714Y-112704819D02*
X237785714Y-111704819D01*
X237785714Y-111704819D02*
X238166666Y-111704819D01*
X238166666Y-111704819D02*
X238261904Y-111752438D01*
X238261904Y-111752438D02*
X238309523Y-111800057D01*
X238309523Y-111800057D02*
X238357142Y-111895295D01*
X238357142Y-111895295D02*
X238357142Y-112038152D01*
X238357142Y-112038152D02*
X238309523Y-112133390D01*
X238309523Y-112133390D02*
X238261904Y-112181009D01*
X238261904Y-112181009D02*
X238166666Y-112228628D01*
X238166666Y-112228628D02*
X237785714Y-112228628D01*
X238690476Y-111704819D02*
X239309523Y-111704819D01*
X239309523Y-111704819D02*
X238976190Y-112085771D01*
X238976190Y-112085771D02*
X239119047Y-112085771D01*
X239119047Y-112085771D02*
X239214285Y-112133390D01*
X239214285Y-112133390D02*
X239261904Y-112181009D01*
X239261904Y-112181009D02*
X239309523Y-112276247D01*
X239309523Y-112276247D02*
X239309523Y-112514342D01*
X239309523Y-112514342D02*
X239261904Y-112609580D01*
X239261904Y-112609580D02*
X239214285Y-112657200D01*
X239214285Y-112657200D02*
X239119047Y-112704819D01*
X239119047Y-112704819D02*
X238833333Y-112704819D01*
X238833333Y-112704819D02*
X238738095Y-112657200D01*
X238738095Y-112657200D02*
X238690476Y-112609580D01*
X239642857Y-111704819D02*
X240261904Y-111704819D01*
X240261904Y-111704819D02*
X239928571Y-112085771D01*
X239928571Y-112085771D02*
X240071428Y-112085771D01*
X240071428Y-112085771D02*
X240166666Y-112133390D01*
X240166666Y-112133390D02*
X240214285Y-112181009D01*
X240214285Y-112181009D02*
X240261904Y-112276247D01*
X240261904Y-112276247D02*
X240261904Y-112514342D01*
X240261904Y-112514342D02*
X240214285Y-112609580D01*
X240214285Y-112609580D02*
X240166666Y-112657200D01*
X240166666Y-112657200D02*
X240071428Y-112704819D01*
X240071428Y-112704819D02*
X239785714Y-112704819D01*
X239785714Y-112704819D02*
X239690476Y-112657200D01*
X239690476Y-112657200D02*
X239642857Y-112609580D01*
X168316666Y-83581009D02*
X167983333Y-83581009D01*
X167983333Y-84104819D02*
X167983333Y-83104819D01*
X167983333Y-83104819D02*
X168459523Y-83104819D01*
X169173809Y-83581009D02*
X169316666Y-83628628D01*
X169316666Y-83628628D02*
X169364285Y-83676247D01*
X169364285Y-83676247D02*
X169411904Y-83771485D01*
X169411904Y-83771485D02*
X169411904Y-83914342D01*
X169411904Y-83914342D02*
X169364285Y-84009580D01*
X169364285Y-84009580D02*
X169316666Y-84057200D01*
X169316666Y-84057200D02*
X169221428Y-84104819D01*
X169221428Y-84104819D02*
X168840476Y-84104819D01*
X168840476Y-84104819D02*
X168840476Y-83104819D01*
X168840476Y-83104819D02*
X169173809Y-83104819D01*
X169173809Y-83104819D02*
X169269047Y-83152438D01*
X169269047Y-83152438D02*
X169316666Y-83200057D01*
X169316666Y-83200057D02*
X169364285Y-83295295D01*
X169364285Y-83295295D02*
X169364285Y-83390533D01*
X169364285Y-83390533D02*
X169316666Y-83485771D01*
X169316666Y-83485771D02*
X169269047Y-83533390D01*
X169269047Y-83533390D02*
X169173809Y-83581009D01*
X169173809Y-83581009D02*
X168840476Y-83581009D01*
X170364285Y-84104819D02*
X169792857Y-84104819D01*
X170078571Y-84104819D02*
X170078571Y-83104819D01*
X170078571Y-83104819D02*
X169983333Y-83247676D01*
X169983333Y-83247676D02*
X169888095Y-83342914D01*
X169888095Y-83342914D02*
X169792857Y-83390533D01*
X204812185Y-63376163D02*
X204812185Y-62373257D01*
X204812185Y-62373257D02*
X205050972Y-62373257D01*
X205050972Y-62373257D02*
X205194244Y-62421014D01*
X205194244Y-62421014D02*
X205289759Y-62516529D01*
X205289759Y-62516529D02*
X205337516Y-62612044D01*
X205337516Y-62612044D02*
X205385274Y-62803074D01*
X205385274Y-62803074D02*
X205385274Y-62946346D01*
X205385274Y-62946346D02*
X205337516Y-63137376D01*
X205337516Y-63137376D02*
X205289759Y-63232891D01*
X205289759Y-63232891D02*
X205194244Y-63328406D01*
X205194244Y-63328406D02*
X205050972Y-63376163D01*
X205050972Y-63376163D02*
X204812185Y-63376163D01*
X206340422Y-63376163D02*
X205767333Y-63376163D01*
X206053878Y-63376163D02*
X206053878Y-62373257D01*
X206053878Y-62373257D02*
X205958363Y-62516529D01*
X205958363Y-62516529D02*
X205862848Y-62612044D01*
X205862848Y-62612044D02*
X205767333Y-62659802D01*
X206674725Y-62373257D02*
X207295571Y-62373257D01*
X207295571Y-62373257D02*
X206961269Y-62755316D01*
X206961269Y-62755316D02*
X207104542Y-62755316D01*
X207104542Y-62755316D02*
X207200057Y-62803074D01*
X207200057Y-62803074D02*
X207247814Y-62850831D01*
X207247814Y-62850831D02*
X207295571Y-62946346D01*
X207295571Y-62946346D02*
X207295571Y-63185133D01*
X207295571Y-63185133D02*
X207247814Y-63280648D01*
X207247814Y-63280648D02*
X207200057Y-63328406D01*
X207200057Y-63328406D02*
X207104542Y-63376163D01*
X207104542Y-63376163D02*
X206817997Y-63376163D01*
X206817997Y-63376163D02*
X206722482Y-63328406D01*
X206722482Y-63328406D02*
X206674725Y-63280648D01*
X147684819Y-97782857D02*
X147208628Y-98116190D01*
X147684819Y-98354285D02*
X146684819Y-98354285D01*
X146684819Y-98354285D02*
X146684819Y-97973333D01*
X146684819Y-97973333D02*
X146732438Y-97878095D01*
X146732438Y-97878095D02*
X146780057Y-97830476D01*
X146780057Y-97830476D02*
X146875295Y-97782857D01*
X146875295Y-97782857D02*
X147018152Y-97782857D01*
X147018152Y-97782857D02*
X147113390Y-97830476D01*
X147113390Y-97830476D02*
X147161009Y-97878095D01*
X147161009Y-97878095D02*
X147208628Y-97973333D01*
X147208628Y-97973333D02*
X147208628Y-98354285D01*
X147018152Y-96925714D02*
X147684819Y-96925714D01*
X146637200Y-97163809D02*
X147351485Y-97401904D01*
X147351485Y-97401904D02*
X147351485Y-96782857D01*
X147684819Y-96354285D02*
X147684819Y-96163809D01*
X147684819Y-96163809D02*
X147637200Y-96068571D01*
X147637200Y-96068571D02*
X147589580Y-96020952D01*
X147589580Y-96020952D02*
X147446723Y-95925714D01*
X147446723Y-95925714D02*
X147256247Y-95878095D01*
X147256247Y-95878095D02*
X146875295Y-95878095D01*
X146875295Y-95878095D02*
X146780057Y-95925714D01*
X146780057Y-95925714D02*
X146732438Y-95973333D01*
X146732438Y-95973333D02*
X146684819Y-96068571D01*
X146684819Y-96068571D02*
X146684819Y-96259047D01*
X146684819Y-96259047D02*
X146732438Y-96354285D01*
X146732438Y-96354285D02*
X146780057Y-96401904D01*
X146780057Y-96401904D02*
X146875295Y-96449523D01*
X146875295Y-96449523D02*
X147113390Y-96449523D01*
X147113390Y-96449523D02*
X147208628Y-96401904D01*
X147208628Y-96401904D02*
X147256247Y-96354285D01*
X147256247Y-96354285D02*
X147303866Y-96259047D01*
X147303866Y-96259047D02*
X147303866Y-96068571D01*
X147303866Y-96068571D02*
X147256247Y-95973333D01*
X147256247Y-95973333D02*
X147208628Y-95925714D01*
X147208628Y-95925714D02*
X147113390Y-95878095D01*
X141167142Y-97904819D02*
X140833809Y-97428628D01*
X140595714Y-97904819D02*
X140595714Y-96904819D01*
X140595714Y-96904819D02*
X140976666Y-96904819D01*
X140976666Y-96904819D02*
X141071904Y-96952438D01*
X141071904Y-96952438D02*
X141119523Y-97000057D01*
X141119523Y-97000057D02*
X141167142Y-97095295D01*
X141167142Y-97095295D02*
X141167142Y-97238152D01*
X141167142Y-97238152D02*
X141119523Y-97333390D01*
X141119523Y-97333390D02*
X141071904Y-97381009D01*
X141071904Y-97381009D02*
X140976666Y-97428628D01*
X140976666Y-97428628D02*
X140595714Y-97428628D01*
X142024285Y-97238152D02*
X142024285Y-97904819D01*
X141786190Y-96857200D02*
X141548095Y-97571485D01*
X141548095Y-97571485D02*
X142167142Y-97571485D01*
X142452857Y-96904819D02*
X143071904Y-96904819D01*
X143071904Y-96904819D02*
X142738571Y-97285771D01*
X142738571Y-97285771D02*
X142881428Y-97285771D01*
X142881428Y-97285771D02*
X142976666Y-97333390D01*
X142976666Y-97333390D02*
X143024285Y-97381009D01*
X143024285Y-97381009D02*
X143071904Y-97476247D01*
X143071904Y-97476247D02*
X143071904Y-97714342D01*
X143071904Y-97714342D02*
X143024285Y-97809580D01*
X143024285Y-97809580D02*
X142976666Y-97857200D01*
X142976666Y-97857200D02*
X142881428Y-97904819D01*
X142881428Y-97904819D02*
X142595714Y-97904819D01*
X142595714Y-97904819D02*
X142500476Y-97857200D01*
X142500476Y-97857200D02*
X142452857Y-97809580D01*
X221389580Y-107766666D02*
X221437200Y-107814285D01*
X221437200Y-107814285D02*
X221484819Y-107957142D01*
X221484819Y-107957142D02*
X221484819Y-108052380D01*
X221484819Y-108052380D02*
X221437200Y-108195237D01*
X221437200Y-108195237D02*
X221341961Y-108290475D01*
X221341961Y-108290475D02*
X221246723Y-108338094D01*
X221246723Y-108338094D02*
X221056247Y-108385713D01*
X221056247Y-108385713D02*
X220913390Y-108385713D01*
X220913390Y-108385713D02*
X220722914Y-108338094D01*
X220722914Y-108338094D02*
X220627676Y-108290475D01*
X220627676Y-108290475D02*
X220532438Y-108195237D01*
X220532438Y-108195237D02*
X220484819Y-108052380D01*
X220484819Y-108052380D02*
X220484819Y-107957142D01*
X220484819Y-107957142D02*
X220532438Y-107814285D01*
X220532438Y-107814285D02*
X220580057Y-107766666D01*
X220484819Y-107433332D02*
X220484819Y-106814285D01*
X220484819Y-106814285D02*
X220865771Y-107147618D01*
X220865771Y-107147618D02*
X220865771Y-107004761D01*
X220865771Y-107004761D02*
X220913390Y-106909523D01*
X220913390Y-106909523D02*
X220961009Y-106861904D01*
X220961009Y-106861904D02*
X221056247Y-106814285D01*
X221056247Y-106814285D02*
X221294342Y-106814285D01*
X221294342Y-106814285D02*
X221389580Y-106861904D01*
X221389580Y-106861904D02*
X221437200Y-106909523D01*
X221437200Y-106909523D02*
X221484819Y-107004761D01*
X221484819Y-107004761D02*
X221484819Y-107290475D01*
X221484819Y-107290475D02*
X221437200Y-107385713D01*
X221437200Y-107385713D02*
X221389580Y-107433332D01*
X164534642Y-79134819D02*
X164201309Y-78658628D01*
X163963214Y-79134819D02*
X163963214Y-78134819D01*
X163963214Y-78134819D02*
X164344166Y-78134819D01*
X164344166Y-78134819D02*
X164439404Y-78182438D01*
X164439404Y-78182438D02*
X164487023Y-78230057D01*
X164487023Y-78230057D02*
X164534642Y-78325295D01*
X164534642Y-78325295D02*
X164534642Y-78468152D01*
X164534642Y-78468152D02*
X164487023Y-78563390D01*
X164487023Y-78563390D02*
X164439404Y-78611009D01*
X164439404Y-78611009D02*
X164344166Y-78658628D01*
X164344166Y-78658628D02*
X163963214Y-78658628D01*
X165487023Y-79134819D02*
X164915595Y-79134819D01*
X165201309Y-79134819D02*
X165201309Y-78134819D01*
X165201309Y-78134819D02*
X165106071Y-78277676D01*
X165106071Y-78277676D02*
X165010833Y-78372914D01*
X165010833Y-78372914D02*
X164915595Y-78420533D01*
X166391785Y-78134819D02*
X165915595Y-78134819D01*
X165915595Y-78134819D02*
X165867976Y-78611009D01*
X165867976Y-78611009D02*
X165915595Y-78563390D01*
X165915595Y-78563390D02*
X166010833Y-78515771D01*
X166010833Y-78515771D02*
X166248928Y-78515771D01*
X166248928Y-78515771D02*
X166344166Y-78563390D01*
X166344166Y-78563390D02*
X166391785Y-78611009D01*
X166391785Y-78611009D02*
X166439404Y-78706247D01*
X166439404Y-78706247D02*
X166439404Y-78944342D01*
X166439404Y-78944342D02*
X166391785Y-79039580D01*
X166391785Y-79039580D02*
X166344166Y-79087200D01*
X166344166Y-79087200D02*
X166248928Y-79134819D01*
X166248928Y-79134819D02*
X166010833Y-79134819D01*
X166010833Y-79134819D02*
X165915595Y-79087200D01*
X165915595Y-79087200D02*
X165867976Y-79039580D01*
X207349819Y-127629523D02*
X208064104Y-127629523D01*
X208064104Y-127629523D02*
X208206961Y-127677142D01*
X208206961Y-127677142D02*
X208302200Y-127772380D01*
X208302200Y-127772380D02*
X208349819Y-127915237D01*
X208349819Y-127915237D02*
X208349819Y-128010475D01*
X208349819Y-126629523D02*
X208349819Y-127200951D01*
X208349819Y-126915237D02*
X207349819Y-126915237D01*
X207349819Y-126915237D02*
X207492676Y-127010475D01*
X207492676Y-127010475D02*
X207587914Y-127105713D01*
X207587914Y-127105713D02*
X207635533Y-127200951D01*
X207349819Y-126296189D02*
X207349819Y-125677142D01*
X207349819Y-125677142D02*
X207730771Y-126010475D01*
X207730771Y-126010475D02*
X207730771Y-125867618D01*
X207730771Y-125867618D02*
X207778390Y-125772380D01*
X207778390Y-125772380D02*
X207826009Y-125724761D01*
X207826009Y-125724761D02*
X207921247Y-125677142D01*
X207921247Y-125677142D02*
X208159342Y-125677142D01*
X208159342Y-125677142D02*
X208254580Y-125724761D01*
X208254580Y-125724761D02*
X208302200Y-125772380D01*
X208302200Y-125772380D02*
X208349819Y-125867618D01*
X208349819Y-125867618D02*
X208349819Y-126153332D01*
X208349819Y-126153332D02*
X208302200Y-126248570D01*
X208302200Y-126248570D02*
X208254580Y-126296189D01*
X242107142Y-106704819D02*
X241773809Y-106228628D01*
X241535714Y-106704819D02*
X241535714Y-105704819D01*
X241535714Y-105704819D02*
X241916666Y-105704819D01*
X241916666Y-105704819D02*
X242011904Y-105752438D01*
X242011904Y-105752438D02*
X242059523Y-105800057D01*
X242059523Y-105800057D02*
X242107142Y-105895295D01*
X242107142Y-105895295D02*
X242107142Y-106038152D01*
X242107142Y-106038152D02*
X242059523Y-106133390D01*
X242059523Y-106133390D02*
X242011904Y-106181009D01*
X242011904Y-106181009D02*
X241916666Y-106228628D01*
X241916666Y-106228628D02*
X241535714Y-106228628D01*
X242440476Y-105704819D02*
X243059523Y-105704819D01*
X243059523Y-105704819D02*
X242726190Y-106085771D01*
X242726190Y-106085771D02*
X242869047Y-106085771D01*
X242869047Y-106085771D02*
X242964285Y-106133390D01*
X242964285Y-106133390D02*
X243011904Y-106181009D01*
X243011904Y-106181009D02*
X243059523Y-106276247D01*
X243059523Y-106276247D02*
X243059523Y-106514342D01*
X243059523Y-106514342D02*
X243011904Y-106609580D01*
X243011904Y-106609580D02*
X242964285Y-106657200D01*
X242964285Y-106657200D02*
X242869047Y-106704819D01*
X242869047Y-106704819D02*
X242583333Y-106704819D01*
X242583333Y-106704819D02*
X242488095Y-106657200D01*
X242488095Y-106657200D02*
X242440476Y-106609580D01*
X243964285Y-105704819D02*
X243488095Y-105704819D01*
X243488095Y-105704819D02*
X243440476Y-106181009D01*
X243440476Y-106181009D02*
X243488095Y-106133390D01*
X243488095Y-106133390D02*
X243583333Y-106085771D01*
X243583333Y-106085771D02*
X243821428Y-106085771D01*
X243821428Y-106085771D02*
X243916666Y-106133390D01*
X243916666Y-106133390D02*
X243964285Y-106181009D01*
X243964285Y-106181009D02*
X244011904Y-106276247D01*
X244011904Y-106276247D02*
X244011904Y-106514342D01*
X244011904Y-106514342D02*
X243964285Y-106609580D01*
X243964285Y-106609580D02*
X243916666Y-106657200D01*
X243916666Y-106657200D02*
X243821428Y-106704819D01*
X243821428Y-106704819D02*
X243583333Y-106704819D01*
X243583333Y-106704819D02*
X243488095Y-106657200D01*
X243488095Y-106657200D02*
X243440476Y-106609580D01*
X141064819Y-106562857D02*
X140588628Y-106896190D01*
X141064819Y-107134285D02*
X140064819Y-107134285D01*
X140064819Y-107134285D02*
X140064819Y-106753333D01*
X140064819Y-106753333D02*
X140112438Y-106658095D01*
X140112438Y-106658095D02*
X140160057Y-106610476D01*
X140160057Y-106610476D02*
X140255295Y-106562857D01*
X140255295Y-106562857D02*
X140398152Y-106562857D01*
X140398152Y-106562857D02*
X140493390Y-106610476D01*
X140493390Y-106610476D02*
X140541009Y-106658095D01*
X140541009Y-106658095D02*
X140588628Y-106753333D01*
X140588628Y-106753333D02*
X140588628Y-107134285D01*
X140398152Y-105705714D02*
X141064819Y-105705714D01*
X140017200Y-105943809D02*
X140731485Y-106181904D01*
X140731485Y-106181904D02*
X140731485Y-105562857D01*
X140493390Y-105039047D02*
X140445771Y-105134285D01*
X140445771Y-105134285D02*
X140398152Y-105181904D01*
X140398152Y-105181904D02*
X140302914Y-105229523D01*
X140302914Y-105229523D02*
X140255295Y-105229523D01*
X140255295Y-105229523D02*
X140160057Y-105181904D01*
X140160057Y-105181904D02*
X140112438Y-105134285D01*
X140112438Y-105134285D02*
X140064819Y-105039047D01*
X140064819Y-105039047D02*
X140064819Y-104848571D01*
X140064819Y-104848571D02*
X140112438Y-104753333D01*
X140112438Y-104753333D02*
X140160057Y-104705714D01*
X140160057Y-104705714D02*
X140255295Y-104658095D01*
X140255295Y-104658095D02*
X140302914Y-104658095D01*
X140302914Y-104658095D02*
X140398152Y-104705714D01*
X140398152Y-104705714D02*
X140445771Y-104753333D01*
X140445771Y-104753333D02*
X140493390Y-104848571D01*
X140493390Y-104848571D02*
X140493390Y-105039047D01*
X140493390Y-105039047D02*
X140541009Y-105134285D01*
X140541009Y-105134285D02*
X140588628Y-105181904D01*
X140588628Y-105181904D02*
X140683866Y-105229523D01*
X140683866Y-105229523D02*
X140874342Y-105229523D01*
X140874342Y-105229523D02*
X140969580Y-105181904D01*
X140969580Y-105181904D02*
X141017200Y-105134285D01*
X141017200Y-105134285D02*
X141064819Y-105039047D01*
X141064819Y-105039047D02*
X141064819Y-104848571D01*
X141064819Y-104848571D02*
X141017200Y-104753333D01*
X141017200Y-104753333D02*
X140969580Y-104705714D01*
X140969580Y-104705714D02*
X140874342Y-104658095D01*
X140874342Y-104658095D02*
X140683866Y-104658095D01*
X140683866Y-104658095D02*
X140588628Y-104705714D01*
X140588628Y-104705714D02*
X140541009Y-104753333D01*
X140541009Y-104753333D02*
X140493390Y-104848571D01*
X170041667Y-82262200D02*
X170184524Y-82309819D01*
X170184524Y-82309819D02*
X170422619Y-82309819D01*
X170422619Y-82309819D02*
X170517857Y-82262200D01*
X170517857Y-82262200D02*
X170565476Y-82214580D01*
X170565476Y-82214580D02*
X170613095Y-82119342D01*
X170613095Y-82119342D02*
X170613095Y-82024104D01*
X170613095Y-82024104D02*
X170565476Y-81928866D01*
X170565476Y-81928866D02*
X170517857Y-81881247D01*
X170517857Y-81881247D02*
X170422619Y-81833628D01*
X170422619Y-81833628D02*
X170232143Y-81786009D01*
X170232143Y-81786009D02*
X170136905Y-81738390D01*
X170136905Y-81738390D02*
X170089286Y-81690771D01*
X170089286Y-81690771D02*
X170041667Y-81595533D01*
X170041667Y-81595533D02*
X170041667Y-81500295D01*
X170041667Y-81500295D02*
X170089286Y-81405057D01*
X170089286Y-81405057D02*
X170136905Y-81357438D01*
X170136905Y-81357438D02*
X170232143Y-81309819D01*
X170232143Y-81309819D02*
X170470238Y-81309819D01*
X170470238Y-81309819D02*
X170613095Y-81357438D01*
X170946429Y-81309819D02*
X171184524Y-82309819D01*
X171184524Y-82309819D02*
X171375000Y-81595533D01*
X171375000Y-81595533D02*
X171565476Y-82309819D01*
X171565476Y-82309819D02*
X171803572Y-81309819D01*
X172708333Y-82309819D02*
X172136905Y-82309819D01*
X172422619Y-82309819D02*
X172422619Y-81309819D01*
X172422619Y-81309819D02*
X172327381Y-81452676D01*
X172327381Y-81452676D02*
X172232143Y-81547914D01*
X172232143Y-81547914D02*
X172136905Y-81595533D01*
X204151428Y-80402842D02*
X204108571Y-80445700D01*
X204108571Y-80445700D02*
X203979999Y-80488557D01*
X203979999Y-80488557D02*
X203894285Y-80488557D01*
X203894285Y-80488557D02*
X203765714Y-80445700D01*
X203765714Y-80445700D02*
X203679999Y-80359985D01*
X203679999Y-80359985D02*
X203637142Y-80274271D01*
X203637142Y-80274271D02*
X203594285Y-80102842D01*
X203594285Y-80102842D02*
X203594285Y-79974271D01*
X203594285Y-79974271D02*
X203637142Y-79802842D01*
X203637142Y-79802842D02*
X203679999Y-79717128D01*
X203679999Y-79717128D02*
X203765714Y-79631414D01*
X203765714Y-79631414D02*
X203894285Y-79588557D01*
X203894285Y-79588557D02*
X203979999Y-79588557D01*
X203979999Y-79588557D02*
X204108571Y-79631414D01*
X204108571Y-79631414D02*
X204151428Y-79674271D01*
X204494285Y-79674271D02*
X204537142Y-79631414D01*
X204537142Y-79631414D02*
X204622857Y-79588557D01*
X204622857Y-79588557D02*
X204837142Y-79588557D01*
X204837142Y-79588557D02*
X204922857Y-79631414D01*
X204922857Y-79631414D02*
X204965714Y-79674271D01*
X204965714Y-79674271D02*
X205008571Y-79759985D01*
X205008571Y-79759985D02*
X205008571Y-79845700D01*
X205008571Y-79845700D02*
X204965714Y-79974271D01*
X204965714Y-79974271D02*
X204451428Y-80488557D01*
X204451428Y-80488557D02*
X205008571Y-80488557D01*
X205351428Y-79674271D02*
X205394285Y-79631414D01*
X205394285Y-79631414D02*
X205480000Y-79588557D01*
X205480000Y-79588557D02*
X205694285Y-79588557D01*
X205694285Y-79588557D02*
X205780000Y-79631414D01*
X205780000Y-79631414D02*
X205822857Y-79674271D01*
X205822857Y-79674271D02*
X205865714Y-79759985D01*
X205865714Y-79759985D02*
X205865714Y-79845700D01*
X205865714Y-79845700D02*
X205822857Y-79974271D01*
X205822857Y-79974271D02*
X205308571Y-80488557D01*
X205308571Y-80488557D02*
X205865714Y-80488557D01*
X195844819Y-66133333D02*
X196559104Y-66133333D01*
X196559104Y-66133333D02*
X196701961Y-66180952D01*
X196701961Y-66180952D02*
X196797200Y-66276190D01*
X196797200Y-66276190D02*
X196844819Y-66419047D01*
X196844819Y-66419047D02*
X196844819Y-66514285D01*
X195844819Y-65752380D02*
X195844819Y-65133333D01*
X195844819Y-65133333D02*
X196225771Y-65466666D01*
X196225771Y-65466666D02*
X196225771Y-65323809D01*
X196225771Y-65323809D02*
X196273390Y-65228571D01*
X196273390Y-65228571D02*
X196321009Y-65180952D01*
X196321009Y-65180952D02*
X196416247Y-65133333D01*
X196416247Y-65133333D02*
X196654342Y-65133333D01*
X196654342Y-65133333D02*
X196749580Y-65180952D01*
X196749580Y-65180952D02*
X196797200Y-65228571D01*
X196797200Y-65228571D02*
X196844819Y-65323809D01*
X196844819Y-65323809D02*
X196844819Y-65609523D01*
X196844819Y-65609523D02*
X196797200Y-65704761D01*
X196797200Y-65704761D02*
X196749580Y-65752380D01*
X151715476Y-94124819D02*
X151715476Y-94839104D01*
X151715476Y-94839104D02*
X151667857Y-94981961D01*
X151667857Y-94981961D02*
X151572619Y-95077200D01*
X151572619Y-95077200D02*
X151429762Y-95124819D01*
X151429762Y-95124819D02*
X151334524Y-95124819D01*
X152715476Y-95124819D02*
X152144048Y-95124819D01*
X152429762Y-95124819D02*
X152429762Y-94124819D01*
X152429762Y-94124819D02*
X152334524Y-94267676D01*
X152334524Y-94267676D02*
X152239286Y-94362914D01*
X152239286Y-94362914D02*
X152144048Y-94410533D01*
X153334524Y-94124819D02*
X153429762Y-94124819D01*
X153429762Y-94124819D02*
X153525000Y-94172438D01*
X153525000Y-94172438D02*
X153572619Y-94220057D01*
X153572619Y-94220057D02*
X153620238Y-94315295D01*
X153620238Y-94315295D02*
X153667857Y-94505771D01*
X153667857Y-94505771D02*
X153667857Y-94743866D01*
X153667857Y-94743866D02*
X153620238Y-94934342D01*
X153620238Y-94934342D02*
X153572619Y-95029580D01*
X153572619Y-95029580D02*
X153525000Y-95077200D01*
X153525000Y-95077200D02*
X153429762Y-95124819D01*
X153429762Y-95124819D02*
X153334524Y-95124819D01*
X153334524Y-95124819D02*
X153239286Y-95077200D01*
X153239286Y-95077200D02*
X153191667Y-95029580D01*
X153191667Y-95029580D02*
X153144048Y-94934342D01*
X153144048Y-94934342D02*
X153096429Y-94743866D01*
X153096429Y-94743866D02*
X153096429Y-94505771D01*
X153096429Y-94505771D02*
X153144048Y-94315295D01*
X153144048Y-94315295D02*
X153191667Y-94220057D01*
X153191667Y-94220057D02*
X153239286Y-94172438D01*
X153239286Y-94172438D02*
X153334524Y-94124819D01*
X206346905Y-56924819D02*
X206346905Y-55924819D01*
X206346905Y-55924819D02*
X206585000Y-55924819D01*
X206585000Y-55924819D02*
X206727857Y-55972438D01*
X206727857Y-55972438D02*
X206823095Y-56067676D01*
X206823095Y-56067676D02*
X206870714Y-56162914D01*
X206870714Y-56162914D02*
X206918333Y-56353390D01*
X206918333Y-56353390D02*
X206918333Y-56496247D01*
X206918333Y-56496247D02*
X206870714Y-56686723D01*
X206870714Y-56686723D02*
X206823095Y-56781961D01*
X206823095Y-56781961D02*
X206727857Y-56877200D01*
X206727857Y-56877200D02*
X206585000Y-56924819D01*
X206585000Y-56924819D02*
X206346905Y-56924819D01*
X207823095Y-55924819D02*
X207346905Y-55924819D01*
X207346905Y-55924819D02*
X207299286Y-56401009D01*
X207299286Y-56401009D02*
X207346905Y-56353390D01*
X207346905Y-56353390D02*
X207442143Y-56305771D01*
X207442143Y-56305771D02*
X207680238Y-56305771D01*
X207680238Y-56305771D02*
X207775476Y-56353390D01*
X207775476Y-56353390D02*
X207823095Y-56401009D01*
X207823095Y-56401009D02*
X207870714Y-56496247D01*
X207870714Y-56496247D02*
X207870714Y-56734342D01*
X207870714Y-56734342D02*
X207823095Y-56829580D01*
X207823095Y-56829580D02*
X207775476Y-56877200D01*
X207775476Y-56877200D02*
X207680238Y-56924819D01*
X207680238Y-56924819D02*
X207442143Y-56924819D01*
X207442143Y-56924819D02*
X207346905Y-56877200D01*
X207346905Y-56877200D02*
X207299286Y-56829580D01*
X196636666Y-55884819D02*
X196636666Y-56599104D01*
X196636666Y-56599104D02*
X196589047Y-56741961D01*
X196589047Y-56741961D02*
X196493809Y-56837200D01*
X196493809Y-56837200D02*
X196350952Y-56884819D01*
X196350952Y-56884819D02*
X196255714Y-56884819D01*
X197541428Y-56218152D02*
X197541428Y-56884819D01*
X197303333Y-55837200D02*
X197065238Y-56551485D01*
X197065238Y-56551485D02*
X197684285Y-56551485D01*
X147484819Y-90951904D02*
X148294342Y-90951904D01*
X148294342Y-90951904D02*
X148389580Y-90904285D01*
X148389580Y-90904285D02*
X148437200Y-90856666D01*
X148437200Y-90856666D02*
X148484819Y-90761428D01*
X148484819Y-90761428D02*
X148484819Y-90570952D01*
X148484819Y-90570952D02*
X148437200Y-90475714D01*
X148437200Y-90475714D02*
X148389580Y-90428095D01*
X148389580Y-90428095D02*
X148294342Y-90380476D01*
X148294342Y-90380476D02*
X147484819Y-90380476D01*
X147818152Y-89475714D02*
X148484819Y-89475714D01*
X147437200Y-89713809D02*
X148151485Y-89951904D01*
X148151485Y-89951904D02*
X148151485Y-89332857D01*
X148184819Y-83356666D02*
X147708628Y-83689999D01*
X148184819Y-83928094D02*
X147184819Y-83928094D01*
X147184819Y-83928094D02*
X147184819Y-83547142D01*
X147184819Y-83547142D02*
X147232438Y-83451904D01*
X147232438Y-83451904D02*
X147280057Y-83404285D01*
X147280057Y-83404285D02*
X147375295Y-83356666D01*
X147375295Y-83356666D02*
X147518152Y-83356666D01*
X147518152Y-83356666D02*
X147613390Y-83404285D01*
X147613390Y-83404285D02*
X147661009Y-83451904D01*
X147661009Y-83451904D02*
X147708628Y-83547142D01*
X147708628Y-83547142D02*
X147708628Y-83928094D01*
X147184819Y-83023332D02*
X147184819Y-82356666D01*
X147184819Y-82356666D02*
X148184819Y-82785237D01*
X169717142Y-62149580D02*
X169669523Y-62197200D01*
X169669523Y-62197200D02*
X169526666Y-62244819D01*
X169526666Y-62244819D02*
X169431428Y-62244819D01*
X169431428Y-62244819D02*
X169288571Y-62197200D01*
X169288571Y-62197200D02*
X169193333Y-62101961D01*
X169193333Y-62101961D02*
X169145714Y-62006723D01*
X169145714Y-62006723D02*
X169098095Y-61816247D01*
X169098095Y-61816247D02*
X169098095Y-61673390D01*
X169098095Y-61673390D02*
X169145714Y-61482914D01*
X169145714Y-61482914D02*
X169193333Y-61387676D01*
X169193333Y-61387676D02*
X169288571Y-61292438D01*
X169288571Y-61292438D02*
X169431428Y-61244819D01*
X169431428Y-61244819D02*
X169526666Y-61244819D01*
X169526666Y-61244819D02*
X169669523Y-61292438D01*
X169669523Y-61292438D02*
X169717142Y-61340057D01*
X170098095Y-61340057D02*
X170145714Y-61292438D01*
X170145714Y-61292438D02*
X170240952Y-61244819D01*
X170240952Y-61244819D02*
X170479047Y-61244819D01*
X170479047Y-61244819D02*
X170574285Y-61292438D01*
X170574285Y-61292438D02*
X170621904Y-61340057D01*
X170621904Y-61340057D02*
X170669523Y-61435295D01*
X170669523Y-61435295D02*
X170669523Y-61530533D01*
X170669523Y-61530533D02*
X170621904Y-61673390D01*
X170621904Y-61673390D02*
X170050476Y-62244819D01*
X170050476Y-62244819D02*
X170669523Y-62244819D01*
X171288571Y-61244819D02*
X171383809Y-61244819D01*
X171383809Y-61244819D02*
X171479047Y-61292438D01*
X171479047Y-61292438D02*
X171526666Y-61340057D01*
X171526666Y-61340057D02*
X171574285Y-61435295D01*
X171574285Y-61435295D02*
X171621904Y-61625771D01*
X171621904Y-61625771D02*
X171621904Y-61863866D01*
X171621904Y-61863866D02*
X171574285Y-62054342D01*
X171574285Y-62054342D02*
X171526666Y-62149580D01*
X171526666Y-62149580D02*
X171479047Y-62197200D01*
X171479047Y-62197200D02*
X171383809Y-62244819D01*
X171383809Y-62244819D02*
X171288571Y-62244819D01*
X171288571Y-62244819D02*
X171193333Y-62197200D01*
X171193333Y-62197200D02*
X171145714Y-62149580D01*
X171145714Y-62149580D02*
X171098095Y-62054342D01*
X171098095Y-62054342D02*
X171050476Y-61863866D01*
X171050476Y-61863866D02*
X171050476Y-61625771D01*
X171050476Y-61625771D02*
X171098095Y-61435295D01*
X171098095Y-61435295D02*
X171145714Y-61340057D01*
X171145714Y-61340057D02*
X171193333Y-61292438D01*
X171193333Y-61292438D02*
X171288571Y-61244819D01*
D12*
X181329530Y-91348333D02*
X181353340Y-91372142D01*
X181353340Y-91372142D02*
X181377149Y-91443571D01*
X181377149Y-91443571D02*
X181377149Y-91491190D01*
X181377149Y-91491190D02*
X181353340Y-91562618D01*
X181353340Y-91562618D02*
X181305720Y-91610237D01*
X181305720Y-91610237D02*
X181258101Y-91634047D01*
X181258101Y-91634047D02*
X181162863Y-91657856D01*
X181162863Y-91657856D02*
X181091435Y-91657856D01*
X181091435Y-91657856D02*
X180996197Y-91634047D01*
X180996197Y-91634047D02*
X180948578Y-91610237D01*
X180948578Y-91610237D02*
X180900959Y-91562618D01*
X180900959Y-91562618D02*
X180877149Y-91491190D01*
X180877149Y-91491190D02*
X180877149Y-91443571D01*
X180877149Y-91443571D02*
X180900959Y-91372142D01*
X180900959Y-91372142D02*
X180924768Y-91348333D01*
X180924768Y-91157856D02*
X180900959Y-91134047D01*
X180900959Y-91134047D02*
X180877149Y-91086428D01*
X180877149Y-91086428D02*
X180877149Y-90967380D01*
X180877149Y-90967380D02*
X180900959Y-90919761D01*
X180900959Y-90919761D02*
X180924768Y-90895952D01*
X180924768Y-90895952D02*
X180972387Y-90872142D01*
X180972387Y-90872142D02*
X181020006Y-90872142D01*
X181020006Y-90872142D02*
X181091435Y-90895952D01*
X181091435Y-90895952D02*
X181377149Y-91181666D01*
X181377149Y-91181666D02*
X181377149Y-90872142D01*
D11*
X191154819Y-74430357D02*
X190678628Y-74763690D01*
X191154819Y-75001785D02*
X190154819Y-75001785D01*
X190154819Y-75001785D02*
X190154819Y-74620833D01*
X190154819Y-74620833D02*
X190202438Y-74525595D01*
X190202438Y-74525595D02*
X190250057Y-74477976D01*
X190250057Y-74477976D02*
X190345295Y-74430357D01*
X190345295Y-74430357D02*
X190488152Y-74430357D01*
X190488152Y-74430357D02*
X190583390Y-74477976D01*
X190583390Y-74477976D02*
X190631009Y-74525595D01*
X190631009Y-74525595D02*
X190678628Y-74620833D01*
X190678628Y-74620833D02*
X190678628Y-75001785D01*
X191154819Y-73477976D02*
X191154819Y-74049404D01*
X191154819Y-73763690D02*
X190154819Y-73763690D01*
X190154819Y-73763690D02*
X190297676Y-73858928D01*
X190297676Y-73858928D02*
X190392914Y-73954166D01*
X190392914Y-73954166D02*
X190440533Y-74049404D01*
X190488152Y-72620833D02*
X191154819Y-72620833D01*
X190107200Y-72858928D02*
X190821485Y-73097023D01*
X190821485Y-73097023D02*
X190821485Y-72477976D01*
X177332142Y-83444580D02*
X177284523Y-83492200D01*
X177284523Y-83492200D02*
X177141666Y-83539819D01*
X177141666Y-83539819D02*
X177046428Y-83539819D01*
X177046428Y-83539819D02*
X176903571Y-83492200D01*
X176903571Y-83492200D02*
X176808333Y-83396961D01*
X176808333Y-83396961D02*
X176760714Y-83301723D01*
X176760714Y-83301723D02*
X176713095Y-83111247D01*
X176713095Y-83111247D02*
X176713095Y-82968390D01*
X176713095Y-82968390D02*
X176760714Y-82777914D01*
X176760714Y-82777914D02*
X176808333Y-82682676D01*
X176808333Y-82682676D02*
X176903571Y-82587438D01*
X176903571Y-82587438D02*
X177046428Y-82539819D01*
X177046428Y-82539819D02*
X177141666Y-82539819D01*
X177141666Y-82539819D02*
X177284523Y-82587438D01*
X177284523Y-82587438D02*
X177332142Y-82635057D01*
X177665476Y-82539819D02*
X178284523Y-82539819D01*
X178284523Y-82539819D02*
X177951190Y-82920771D01*
X177951190Y-82920771D02*
X178094047Y-82920771D01*
X178094047Y-82920771D02*
X178189285Y-82968390D01*
X178189285Y-82968390D02*
X178236904Y-83016009D01*
X178236904Y-83016009D02*
X178284523Y-83111247D01*
X178284523Y-83111247D02*
X178284523Y-83349342D01*
X178284523Y-83349342D02*
X178236904Y-83444580D01*
X178236904Y-83444580D02*
X178189285Y-83492200D01*
X178189285Y-83492200D02*
X178094047Y-83539819D01*
X178094047Y-83539819D02*
X177808333Y-83539819D01*
X177808333Y-83539819D02*
X177713095Y-83492200D01*
X177713095Y-83492200D02*
X177665476Y-83444580D01*
X179189285Y-82539819D02*
X178713095Y-82539819D01*
X178713095Y-82539819D02*
X178665476Y-83016009D01*
X178665476Y-83016009D02*
X178713095Y-82968390D01*
X178713095Y-82968390D02*
X178808333Y-82920771D01*
X178808333Y-82920771D02*
X179046428Y-82920771D01*
X179046428Y-82920771D02*
X179141666Y-82968390D01*
X179141666Y-82968390D02*
X179189285Y-83016009D01*
X179189285Y-83016009D02*
X179236904Y-83111247D01*
X179236904Y-83111247D02*
X179236904Y-83349342D01*
X179236904Y-83349342D02*
X179189285Y-83444580D01*
X179189285Y-83444580D02*
X179141666Y-83492200D01*
X179141666Y-83492200D02*
X179046428Y-83539819D01*
X179046428Y-83539819D02*
X178808333Y-83539819D01*
X178808333Y-83539819D02*
X178713095Y-83492200D01*
X178713095Y-83492200D02*
X178665476Y-83444580D01*
X140594875Y-119985368D02*
X140594875Y-118982462D01*
X140594875Y-118982462D02*
X140833662Y-118982462D01*
X140833662Y-118982462D02*
X140976934Y-119030219D01*
X140976934Y-119030219D02*
X141072449Y-119125734D01*
X141072449Y-119125734D02*
X141120206Y-119221249D01*
X141120206Y-119221249D02*
X141167964Y-119412279D01*
X141167964Y-119412279D02*
X141167964Y-119555551D01*
X141167964Y-119555551D02*
X141120206Y-119746581D01*
X141120206Y-119746581D02*
X141072449Y-119842096D01*
X141072449Y-119842096D02*
X140976934Y-119937611D01*
X140976934Y-119937611D02*
X140833662Y-119985368D01*
X140833662Y-119985368D02*
X140594875Y-119985368D01*
X141741053Y-119412279D02*
X141645538Y-119364521D01*
X141645538Y-119364521D02*
X141597781Y-119316764D01*
X141597781Y-119316764D02*
X141550023Y-119221249D01*
X141550023Y-119221249D02*
X141550023Y-119173492D01*
X141550023Y-119173492D02*
X141597781Y-119077977D01*
X141597781Y-119077977D02*
X141645538Y-119030219D01*
X141645538Y-119030219D02*
X141741053Y-118982462D01*
X141741053Y-118982462D02*
X141932083Y-118982462D01*
X141932083Y-118982462D02*
X142027598Y-119030219D01*
X142027598Y-119030219D02*
X142075355Y-119077977D01*
X142075355Y-119077977D02*
X142123112Y-119173492D01*
X142123112Y-119173492D02*
X142123112Y-119221249D01*
X142123112Y-119221249D02*
X142075355Y-119316764D01*
X142075355Y-119316764D02*
X142027598Y-119364521D01*
X142027598Y-119364521D02*
X141932083Y-119412279D01*
X141932083Y-119412279D02*
X141741053Y-119412279D01*
X141741053Y-119412279D02*
X141645538Y-119460036D01*
X141645538Y-119460036D02*
X141597781Y-119507794D01*
X141597781Y-119507794D02*
X141550023Y-119603309D01*
X141550023Y-119603309D02*
X141550023Y-119794338D01*
X141550023Y-119794338D02*
X141597781Y-119889853D01*
X141597781Y-119889853D02*
X141645538Y-119937611D01*
X141645538Y-119937611D02*
X141741053Y-119985368D01*
X141741053Y-119985368D02*
X141932083Y-119985368D01*
X141932083Y-119985368D02*
X142027598Y-119937611D01*
X142027598Y-119937611D02*
X142075355Y-119889853D01*
X142075355Y-119889853D02*
X142123112Y-119794338D01*
X142123112Y-119794338D02*
X142123112Y-119603309D01*
X142123112Y-119603309D02*
X142075355Y-119507794D01*
X142075355Y-119507794D02*
X142027598Y-119460036D01*
X142027598Y-119460036D02*
X141932083Y-119412279D01*
X180023809Y-77028628D02*
X180023809Y-77504819D01*
X179690476Y-76504819D02*
X180023809Y-77028628D01*
X180023809Y-77028628D02*
X180357142Y-76504819D01*
X180642857Y-76600057D02*
X180690476Y-76552438D01*
X180690476Y-76552438D02*
X180785714Y-76504819D01*
X180785714Y-76504819D02*
X181023809Y-76504819D01*
X181023809Y-76504819D02*
X181119047Y-76552438D01*
X181119047Y-76552438D02*
X181166666Y-76600057D01*
X181166666Y-76600057D02*
X181214285Y-76695295D01*
X181214285Y-76695295D02*
X181214285Y-76790533D01*
X181214285Y-76790533D02*
X181166666Y-76933390D01*
X181166666Y-76933390D02*
X180595238Y-77504819D01*
X180595238Y-77504819D02*
X181214285Y-77504819D01*
X211507142Y-72004580D02*
X211459523Y-72052200D01*
X211459523Y-72052200D02*
X211316666Y-72099819D01*
X211316666Y-72099819D02*
X211221428Y-72099819D01*
X211221428Y-72099819D02*
X211078571Y-72052200D01*
X211078571Y-72052200D02*
X210983333Y-71956961D01*
X210983333Y-71956961D02*
X210935714Y-71861723D01*
X210935714Y-71861723D02*
X210888095Y-71671247D01*
X210888095Y-71671247D02*
X210888095Y-71528390D01*
X210888095Y-71528390D02*
X210935714Y-71337914D01*
X210935714Y-71337914D02*
X210983333Y-71242676D01*
X210983333Y-71242676D02*
X211078571Y-71147438D01*
X211078571Y-71147438D02*
X211221428Y-71099819D01*
X211221428Y-71099819D02*
X211316666Y-71099819D01*
X211316666Y-71099819D02*
X211459523Y-71147438D01*
X211459523Y-71147438D02*
X211507142Y-71195057D01*
X212459523Y-72099819D02*
X211888095Y-72099819D01*
X212173809Y-72099819D02*
X212173809Y-71099819D01*
X212173809Y-71099819D02*
X212078571Y-71242676D01*
X212078571Y-71242676D02*
X211983333Y-71337914D01*
X211983333Y-71337914D02*
X211888095Y-71385533D01*
X213078571Y-71099819D02*
X213173809Y-71099819D01*
X213173809Y-71099819D02*
X213269047Y-71147438D01*
X213269047Y-71147438D02*
X213316666Y-71195057D01*
X213316666Y-71195057D02*
X213364285Y-71290295D01*
X213364285Y-71290295D02*
X213411904Y-71480771D01*
X213411904Y-71480771D02*
X213411904Y-71718866D01*
X213411904Y-71718866D02*
X213364285Y-71909342D01*
X213364285Y-71909342D02*
X213316666Y-72004580D01*
X213316666Y-72004580D02*
X213269047Y-72052200D01*
X213269047Y-72052200D02*
X213173809Y-72099819D01*
X213173809Y-72099819D02*
X213078571Y-72099819D01*
X213078571Y-72099819D02*
X212983333Y-72052200D01*
X212983333Y-72052200D02*
X212935714Y-72004580D01*
X212935714Y-72004580D02*
X212888095Y-71909342D01*
X212888095Y-71909342D02*
X212840476Y-71718866D01*
X212840476Y-71718866D02*
X212840476Y-71480771D01*
X212840476Y-71480771D02*
X212888095Y-71290295D01*
X212888095Y-71290295D02*
X212935714Y-71195057D01*
X212935714Y-71195057D02*
X212983333Y-71147438D01*
X212983333Y-71147438D02*
X213078571Y-71099819D01*
X195907142Y-110804819D02*
X195573809Y-110328628D01*
X195335714Y-110804819D02*
X195335714Y-109804819D01*
X195335714Y-109804819D02*
X195716666Y-109804819D01*
X195716666Y-109804819D02*
X195811904Y-109852438D01*
X195811904Y-109852438D02*
X195859523Y-109900057D01*
X195859523Y-109900057D02*
X195907142Y-109995295D01*
X195907142Y-109995295D02*
X195907142Y-110138152D01*
X195907142Y-110138152D02*
X195859523Y-110233390D01*
X195859523Y-110233390D02*
X195811904Y-110281009D01*
X195811904Y-110281009D02*
X195716666Y-110328628D01*
X195716666Y-110328628D02*
X195335714Y-110328628D01*
X196240476Y-109804819D02*
X196859523Y-109804819D01*
X196859523Y-109804819D02*
X196526190Y-110185771D01*
X196526190Y-110185771D02*
X196669047Y-110185771D01*
X196669047Y-110185771D02*
X196764285Y-110233390D01*
X196764285Y-110233390D02*
X196811904Y-110281009D01*
X196811904Y-110281009D02*
X196859523Y-110376247D01*
X196859523Y-110376247D02*
X196859523Y-110614342D01*
X196859523Y-110614342D02*
X196811904Y-110709580D01*
X196811904Y-110709580D02*
X196764285Y-110757200D01*
X196764285Y-110757200D02*
X196669047Y-110804819D01*
X196669047Y-110804819D02*
X196383333Y-110804819D01*
X196383333Y-110804819D02*
X196288095Y-110757200D01*
X196288095Y-110757200D02*
X196240476Y-110709580D01*
X197192857Y-109804819D02*
X197859523Y-109804819D01*
X197859523Y-109804819D02*
X197430952Y-110804819D01*
X131679819Y-106463094D02*
X132489342Y-106463094D01*
X132489342Y-106463094D02*
X132584580Y-106415475D01*
X132584580Y-106415475D02*
X132632200Y-106367856D01*
X132632200Y-106367856D02*
X132679819Y-106272618D01*
X132679819Y-106272618D02*
X132679819Y-106082142D01*
X132679819Y-106082142D02*
X132632200Y-105986904D01*
X132632200Y-105986904D02*
X132584580Y-105939285D01*
X132584580Y-105939285D02*
X132489342Y-105891666D01*
X132489342Y-105891666D02*
X131679819Y-105891666D01*
X132679819Y-104891666D02*
X132679819Y-105463094D01*
X132679819Y-105177380D02*
X131679819Y-105177380D01*
X131679819Y-105177380D02*
X131822676Y-105272618D01*
X131822676Y-105272618D02*
X131917914Y-105367856D01*
X131917914Y-105367856D02*
X131965533Y-105463094D01*
X131775057Y-104510713D02*
X131727438Y-104463094D01*
X131727438Y-104463094D02*
X131679819Y-104367856D01*
X131679819Y-104367856D02*
X131679819Y-104129761D01*
X131679819Y-104129761D02*
X131727438Y-104034523D01*
X131727438Y-104034523D02*
X131775057Y-103986904D01*
X131775057Y-103986904D02*
X131870295Y-103939285D01*
X131870295Y-103939285D02*
X131965533Y-103939285D01*
X131965533Y-103939285D02*
X132108390Y-103986904D01*
X132108390Y-103986904D02*
X132679819Y-104558332D01*
X132679819Y-104558332D02*
X132679819Y-103939285D01*
X147104819Y-104308094D02*
X147914342Y-104308094D01*
X147914342Y-104308094D02*
X148009580Y-104260475D01*
X148009580Y-104260475D02*
X148057200Y-104212856D01*
X148057200Y-104212856D02*
X148104819Y-104117618D01*
X148104819Y-104117618D02*
X148104819Y-103927142D01*
X148104819Y-103927142D02*
X148057200Y-103831904D01*
X148057200Y-103831904D02*
X148009580Y-103784285D01*
X148009580Y-103784285D02*
X147914342Y-103736666D01*
X147914342Y-103736666D02*
X147104819Y-103736666D01*
X148104819Y-102736666D02*
X148104819Y-103308094D01*
X148104819Y-103022380D02*
X147104819Y-103022380D01*
X147104819Y-103022380D02*
X147247676Y-103117618D01*
X147247676Y-103117618D02*
X147342914Y-103212856D01*
X147342914Y-103212856D02*
X147390533Y-103308094D01*
X147104819Y-102403332D02*
X147104819Y-101784285D01*
X147104819Y-101784285D02*
X147485771Y-102117618D01*
X147485771Y-102117618D02*
X147485771Y-101974761D01*
X147485771Y-101974761D02*
X147533390Y-101879523D01*
X147533390Y-101879523D02*
X147581009Y-101831904D01*
X147581009Y-101831904D02*
X147676247Y-101784285D01*
X147676247Y-101784285D02*
X147914342Y-101784285D01*
X147914342Y-101784285D02*
X148009580Y-101831904D01*
X148009580Y-101831904D02*
X148057200Y-101879523D01*
X148057200Y-101879523D02*
X148104819Y-101974761D01*
X148104819Y-101974761D02*
X148104819Y-102260475D01*
X148104819Y-102260475D02*
X148057200Y-102355713D01*
X148057200Y-102355713D02*
X148009580Y-102403332D01*
X178383333Y-59047319D02*
X178050000Y-58571128D01*
X177811905Y-59047319D02*
X177811905Y-58047319D01*
X177811905Y-58047319D02*
X178192857Y-58047319D01*
X178192857Y-58047319D02*
X178288095Y-58094938D01*
X178288095Y-58094938D02*
X178335714Y-58142557D01*
X178335714Y-58142557D02*
X178383333Y-58237795D01*
X178383333Y-58237795D02*
X178383333Y-58380652D01*
X178383333Y-58380652D02*
X178335714Y-58475890D01*
X178335714Y-58475890D02*
X178288095Y-58523509D01*
X178288095Y-58523509D02*
X178192857Y-58571128D01*
X178192857Y-58571128D02*
X177811905Y-58571128D01*
X178764286Y-58142557D02*
X178811905Y-58094938D01*
X178811905Y-58094938D02*
X178907143Y-58047319D01*
X178907143Y-58047319D02*
X179145238Y-58047319D01*
X179145238Y-58047319D02*
X179240476Y-58094938D01*
X179240476Y-58094938D02*
X179288095Y-58142557D01*
X179288095Y-58142557D02*
X179335714Y-58237795D01*
X179335714Y-58237795D02*
X179335714Y-58333033D01*
X179335714Y-58333033D02*
X179288095Y-58475890D01*
X179288095Y-58475890D02*
X178716667Y-59047319D01*
X178716667Y-59047319D02*
X179335714Y-59047319D01*
X190554819Y-64000594D02*
X189554819Y-64000594D01*
X189554819Y-64000594D02*
X189554819Y-63762499D01*
X189554819Y-63762499D02*
X189602438Y-63619642D01*
X189602438Y-63619642D02*
X189697676Y-63524404D01*
X189697676Y-63524404D02*
X189792914Y-63476785D01*
X189792914Y-63476785D02*
X189983390Y-63429166D01*
X189983390Y-63429166D02*
X190126247Y-63429166D01*
X190126247Y-63429166D02*
X190316723Y-63476785D01*
X190316723Y-63476785D02*
X190411961Y-63524404D01*
X190411961Y-63524404D02*
X190507200Y-63619642D01*
X190507200Y-63619642D02*
X190554819Y-63762499D01*
X190554819Y-63762499D02*
X190554819Y-64000594D01*
X190554819Y-62476785D02*
X190554819Y-63048213D01*
X190554819Y-62762499D02*
X189554819Y-62762499D01*
X189554819Y-62762499D02*
X189697676Y-62857737D01*
X189697676Y-62857737D02*
X189792914Y-62952975D01*
X189792914Y-62952975D02*
X189840533Y-63048213D01*
X208547142Y-86274819D02*
X208213809Y-85798628D01*
X207975714Y-86274819D02*
X207975714Y-85274819D01*
X207975714Y-85274819D02*
X208356666Y-85274819D01*
X208356666Y-85274819D02*
X208451904Y-85322438D01*
X208451904Y-85322438D02*
X208499523Y-85370057D01*
X208499523Y-85370057D02*
X208547142Y-85465295D01*
X208547142Y-85465295D02*
X208547142Y-85608152D01*
X208547142Y-85608152D02*
X208499523Y-85703390D01*
X208499523Y-85703390D02*
X208451904Y-85751009D01*
X208451904Y-85751009D02*
X208356666Y-85798628D01*
X208356666Y-85798628D02*
X207975714Y-85798628D01*
X208880476Y-85274819D02*
X209499523Y-85274819D01*
X209499523Y-85274819D02*
X209166190Y-85655771D01*
X209166190Y-85655771D02*
X209309047Y-85655771D01*
X209309047Y-85655771D02*
X209404285Y-85703390D01*
X209404285Y-85703390D02*
X209451904Y-85751009D01*
X209451904Y-85751009D02*
X209499523Y-85846247D01*
X209499523Y-85846247D02*
X209499523Y-86084342D01*
X209499523Y-86084342D02*
X209451904Y-86179580D01*
X209451904Y-86179580D02*
X209404285Y-86227200D01*
X209404285Y-86227200D02*
X209309047Y-86274819D01*
X209309047Y-86274819D02*
X209023333Y-86274819D01*
X209023333Y-86274819D02*
X208928095Y-86227200D01*
X208928095Y-86227200D02*
X208880476Y-86179580D01*
X210070952Y-85703390D02*
X209975714Y-85655771D01*
X209975714Y-85655771D02*
X209928095Y-85608152D01*
X209928095Y-85608152D02*
X209880476Y-85512914D01*
X209880476Y-85512914D02*
X209880476Y-85465295D01*
X209880476Y-85465295D02*
X209928095Y-85370057D01*
X209928095Y-85370057D02*
X209975714Y-85322438D01*
X209975714Y-85322438D02*
X210070952Y-85274819D01*
X210070952Y-85274819D02*
X210261428Y-85274819D01*
X210261428Y-85274819D02*
X210356666Y-85322438D01*
X210356666Y-85322438D02*
X210404285Y-85370057D01*
X210404285Y-85370057D02*
X210451904Y-85465295D01*
X210451904Y-85465295D02*
X210451904Y-85512914D01*
X210451904Y-85512914D02*
X210404285Y-85608152D01*
X210404285Y-85608152D02*
X210356666Y-85655771D01*
X210356666Y-85655771D02*
X210261428Y-85703390D01*
X210261428Y-85703390D02*
X210070952Y-85703390D01*
X210070952Y-85703390D02*
X209975714Y-85751009D01*
X209975714Y-85751009D02*
X209928095Y-85798628D01*
X209928095Y-85798628D02*
X209880476Y-85893866D01*
X209880476Y-85893866D02*
X209880476Y-86084342D01*
X209880476Y-86084342D02*
X209928095Y-86179580D01*
X209928095Y-86179580D02*
X209975714Y-86227200D01*
X209975714Y-86227200D02*
X210070952Y-86274819D01*
X210070952Y-86274819D02*
X210261428Y-86274819D01*
X210261428Y-86274819D02*
X210356666Y-86227200D01*
X210356666Y-86227200D02*
X210404285Y-86179580D01*
X210404285Y-86179580D02*
X210451904Y-86084342D01*
X210451904Y-86084342D02*
X210451904Y-85893866D01*
X210451904Y-85893866D02*
X210404285Y-85798628D01*
X210404285Y-85798628D02*
X210356666Y-85751009D01*
X210356666Y-85751009D02*
X210261428Y-85703390D01*
X176616666Y-102164819D02*
X176616666Y-102879104D01*
X176616666Y-102879104D02*
X176569047Y-103021961D01*
X176569047Y-103021961D02*
X176473809Y-103117200D01*
X176473809Y-103117200D02*
X176330952Y-103164819D01*
X176330952Y-103164819D02*
X176235714Y-103164819D01*
X176997619Y-102164819D02*
X177664285Y-102164819D01*
X177664285Y-102164819D02*
X177235714Y-103164819D01*
X225895180Y-67535433D02*
X225895180Y-67059243D01*
X225895180Y-67059243D02*
X226895180Y-67059243D01*
X225895180Y-68392576D02*
X225895180Y-67821148D01*
X225895180Y-68106862D02*
X226895180Y-68106862D01*
X226895180Y-68106862D02*
X226752323Y-68011624D01*
X226752323Y-68011624D02*
X226657085Y-67916386D01*
X226657085Y-67916386D02*
X226609466Y-67821148D01*
X238344642Y-102754819D02*
X238011309Y-102278628D01*
X237773214Y-102754819D02*
X237773214Y-101754819D01*
X237773214Y-101754819D02*
X238154166Y-101754819D01*
X238154166Y-101754819D02*
X238249404Y-101802438D01*
X238249404Y-101802438D02*
X238297023Y-101850057D01*
X238297023Y-101850057D02*
X238344642Y-101945295D01*
X238344642Y-101945295D02*
X238344642Y-102088152D01*
X238344642Y-102088152D02*
X238297023Y-102183390D01*
X238297023Y-102183390D02*
X238249404Y-102231009D01*
X238249404Y-102231009D02*
X238154166Y-102278628D01*
X238154166Y-102278628D02*
X237773214Y-102278628D01*
X238677976Y-101754819D02*
X239297023Y-101754819D01*
X239297023Y-101754819D02*
X238963690Y-102135771D01*
X238963690Y-102135771D02*
X239106547Y-102135771D01*
X239106547Y-102135771D02*
X239201785Y-102183390D01*
X239201785Y-102183390D02*
X239249404Y-102231009D01*
X239249404Y-102231009D02*
X239297023Y-102326247D01*
X239297023Y-102326247D02*
X239297023Y-102564342D01*
X239297023Y-102564342D02*
X239249404Y-102659580D01*
X239249404Y-102659580D02*
X239201785Y-102707200D01*
X239201785Y-102707200D02*
X239106547Y-102754819D01*
X239106547Y-102754819D02*
X238820833Y-102754819D01*
X238820833Y-102754819D02*
X238725595Y-102707200D01*
X238725595Y-102707200D02*
X238677976Y-102659580D01*
X240154166Y-101754819D02*
X239963690Y-101754819D01*
X239963690Y-101754819D02*
X239868452Y-101802438D01*
X239868452Y-101802438D02*
X239820833Y-101850057D01*
X239820833Y-101850057D02*
X239725595Y-101992914D01*
X239725595Y-101992914D02*
X239677976Y-102183390D01*
X239677976Y-102183390D02*
X239677976Y-102564342D01*
X239677976Y-102564342D02*
X239725595Y-102659580D01*
X239725595Y-102659580D02*
X239773214Y-102707200D01*
X239773214Y-102707200D02*
X239868452Y-102754819D01*
X239868452Y-102754819D02*
X240058928Y-102754819D01*
X240058928Y-102754819D02*
X240154166Y-102707200D01*
X240154166Y-102707200D02*
X240201785Y-102659580D01*
X240201785Y-102659580D02*
X240249404Y-102564342D01*
X240249404Y-102564342D02*
X240249404Y-102326247D01*
X240249404Y-102326247D02*
X240201785Y-102231009D01*
X240201785Y-102231009D02*
X240154166Y-102183390D01*
X240154166Y-102183390D02*
X240058928Y-102135771D01*
X240058928Y-102135771D02*
X239868452Y-102135771D01*
X239868452Y-102135771D02*
X239773214Y-102183390D01*
X239773214Y-102183390D02*
X239725595Y-102231009D01*
X239725595Y-102231009D02*
X239677976Y-102326247D01*
X153540476Y-83874819D02*
X153540476Y-84589104D01*
X153540476Y-84589104D02*
X153492857Y-84731961D01*
X153492857Y-84731961D02*
X153397619Y-84827200D01*
X153397619Y-84827200D02*
X153254762Y-84874819D01*
X153254762Y-84874819D02*
X153159524Y-84874819D01*
X154540476Y-84874819D02*
X153969048Y-84874819D01*
X154254762Y-84874819D02*
X154254762Y-83874819D01*
X154254762Y-83874819D02*
X154159524Y-84017676D01*
X154159524Y-84017676D02*
X154064286Y-84112914D01*
X154064286Y-84112914D02*
X153969048Y-84160533D01*
X154921429Y-83970057D02*
X154969048Y-83922438D01*
X154969048Y-83922438D02*
X155064286Y-83874819D01*
X155064286Y-83874819D02*
X155302381Y-83874819D01*
X155302381Y-83874819D02*
X155397619Y-83922438D01*
X155397619Y-83922438D02*
X155445238Y-83970057D01*
X155445238Y-83970057D02*
X155492857Y-84065295D01*
X155492857Y-84065295D02*
X155492857Y-84160533D01*
X155492857Y-84160533D02*
X155445238Y-84303390D01*
X155445238Y-84303390D02*
X154873810Y-84874819D01*
X154873810Y-84874819D02*
X155492857Y-84874819D01*
X133674819Y-97042857D02*
X133198628Y-97376190D01*
X133674819Y-97614285D02*
X132674819Y-97614285D01*
X132674819Y-97614285D02*
X132674819Y-97233333D01*
X132674819Y-97233333D02*
X132722438Y-97138095D01*
X132722438Y-97138095D02*
X132770057Y-97090476D01*
X132770057Y-97090476D02*
X132865295Y-97042857D01*
X132865295Y-97042857D02*
X133008152Y-97042857D01*
X133008152Y-97042857D02*
X133103390Y-97090476D01*
X133103390Y-97090476D02*
X133151009Y-97138095D01*
X133151009Y-97138095D02*
X133198628Y-97233333D01*
X133198628Y-97233333D02*
X133198628Y-97614285D01*
X133008152Y-96185714D02*
X133674819Y-96185714D01*
X132627200Y-96423809D02*
X133341485Y-96661904D01*
X133341485Y-96661904D02*
X133341485Y-96042857D01*
X132674819Y-95757142D02*
X132674819Y-95090476D01*
X132674819Y-95090476D02*
X133674819Y-95519047D01*
X207543333Y-87719580D02*
X207495714Y-87767200D01*
X207495714Y-87767200D02*
X207352857Y-87814819D01*
X207352857Y-87814819D02*
X207257619Y-87814819D01*
X207257619Y-87814819D02*
X207114762Y-87767200D01*
X207114762Y-87767200D02*
X207019524Y-87671961D01*
X207019524Y-87671961D02*
X206971905Y-87576723D01*
X206971905Y-87576723D02*
X206924286Y-87386247D01*
X206924286Y-87386247D02*
X206924286Y-87243390D01*
X206924286Y-87243390D02*
X206971905Y-87052914D01*
X206971905Y-87052914D02*
X207019524Y-86957676D01*
X207019524Y-86957676D02*
X207114762Y-86862438D01*
X207114762Y-86862438D02*
X207257619Y-86814819D01*
X207257619Y-86814819D02*
X207352857Y-86814819D01*
X207352857Y-86814819D02*
X207495714Y-86862438D01*
X207495714Y-86862438D02*
X207543333Y-86910057D01*
X208400476Y-86814819D02*
X208210000Y-86814819D01*
X208210000Y-86814819D02*
X208114762Y-86862438D01*
X208114762Y-86862438D02*
X208067143Y-86910057D01*
X208067143Y-86910057D02*
X207971905Y-87052914D01*
X207971905Y-87052914D02*
X207924286Y-87243390D01*
X207924286Y-87243390D02*
X207924286Y-87624342D01*
X207924286Y-87624342D02*
X207971905Y-87719580D01*
X207971905Y-87719580D02*
X208019524Y-87767200D01*
X208019524Y-87767200D02*
X208114762Y-87814819D01*
X208114762Y-87814819D02*
X208305238Y-87814819D01*
X208305238Y-87814819D02*
X208400476Y-87767200D01*
X208400476Y-87767200D02*
X208448095Y-87719580D01*
X208448095Y-87719580D02*
X208495714Y-87624342D01*
X208495714Y-87624342D02*
X208495714Y-87386247D01*
X208495714Y-87386247D02*
X208448095Y-87291009D01*
X208448095Y-87291009D02*
X208400476Y-87243390D01*
X208400476Y-87243390D02*
X208305238Y-87195771D01*
X208305238Y-87195771D02*
X208114762Y-87195771D01*
X208114762Y-87195771D02*
X208019524Y-87243390D01*
X208019524Y-87243390D02*
X207971905Y-87291009D01*
X207971905Y-87291009D02*
X207924286Y-87386247D01*
X153754166Y-130979819D02*
X153754166Y-131694104D01*
X153754166Y-131694104D02*
X153706547Y-131836961D01*
X153706547Y-131836961D02*
X153611309Y-131932200D01*
X153611309Y-131932200D02*
X153468452Y-131979819D01*
X153468452Y-131979819D02*
X153373214Y-131979819D01*
X154658928Y-130979819D02*
X154468452Y-130979819D01*
X154468452Y-130979819D02*
X154373214Y-131027438D01*
X154373214Y-131027438D02*
X154325595Y-131075057D01*
X154325595Y-131075057D02*
X154230357Y-131217914D01*
X154230357Y-131217914D02*
X154182738Y-131408390D01*
X154182738Y-131408390D02*
X154182738Y-131789342D01*
X154182738Y-131789342D02*
X154230357Y-131884580D01*
X154230357Y-131884580D02*
X154277976Y-131932200D01*
X154277976Y-131932200D02*
X154373214Y-131979819D01*
X154373214Y-131979819D02*
X154563690Y-131979819D01*
X154563690Y-131979819D02*
X154658928Y-131932200D01*
X154658928Y-131932200D02*
X154706547Y-131884580D01*
X154706547Y-131884580D02*
X154754166Y-131789342D01*
X154754166Y-131789342D02*
X154754166Y-131551247D01*
X154754166Y-131551247D02*
X154706547Y-131456009D01*
X154706547Y-131456009D02*
X154658928Y-131408390D01*
X154658928Y-131408390D02*
X154563690Y-131360771D01*
X154563690Y-131360771D02*
X154373214Y-131360771D01*
X154373214Y-131360771D02*
X154277976Y-131408390D01*
X154277976Y-131408390D02*
X154230357Y-131456009D01*
X154230357Y-131456009D02*
X154182738Y-131551247D01*
X228304819Y-100861904D02*
X229114342Y-100861904D01*
X229114342Y-100861904D02*
X229209580Y-100814285D01*
X229209580Y-100814285D02*
X229257200Y-100766666D01*
X229257200Y-100766666D02*
X229304819Y-100671428D01*
X229304819Y-100671428D02*
X229304819Y-100480952D01*
X229304819Y-100480952D02*
X229257200Y-100385714D01*
X229257200Y-100385714D02*
X229209580Y-100338095D01*
X229209580Y-100338095D02*
X229114342Y-100290476D01*
X229114342Y-100290476D02*
X228304819Y-100290476D01*
X228304819Y-99909523D02*
X228304819Y-99290476D01*
X228304819Y-99290476D02*
X228685771Y-99623809D01*
X228685771Y-99623809D02*
X228685771Y-99480952D01*
X228685771Y-99480952D02*
X228733390Y-99385714D01*
X228733390Y-99385714D02*
X228781009Y-99338095D01*
X228781009Y-99338095D02*
X228876247Y-99290476D01*
X228876247Y-99290476D02*
X229114342Y-99290476D01*
X229114342Y-99290476D02*
X229209580Y-99338095D01*
X229209580Y-99338095D02*
X229257200Y-99385714D01*
X229257200Y-99385714D02*
X229304819Y-99480952D01*
X229304819Y-99480952D02*
X229304819Y-99766666D01*
X229304819Y-99766666D02*
X229257200Y-99861904D01*
X229257200Y-99861904D02*
X229209580Y-99909523D01*
X126590476Y-75374819D02*
X126590476Y-76089104D01*
X126590476Y-76089104D02*
X126542857Y-76231961D01*
X126542857Y-76231961D02*
X126447619Y-76327200D01*
X126447619Y-76327200D02*
X126304762Y-76374819D01*
X126304762Y-76374819D02*
X126209524Y-76374819D01*
X127590476Y-76374819D02*
X127019048Y-76374819D01*
X127304762Y-76374819D02*
X127304762Y-75374819D01*
X127304762Y-75374819D02*
X127209524Y-75517676D01*
X127209524Y-75517676D02*
X127114286Y-75612914D01*
X127114286Y-75612914D02*
X127019048Y-75660533D01*
X128542857Y-76374819D02*
X127971429Y-76374819D01*
X128257143Y-76374819D02*
X128257143Y-75374819D01*
X128257143Y-75374819D02*
X128161905Y-75517676D01*
X128161905Y-75517676D02*
X128066667Y-75612914D01*
X128066667Y-75612914D02*
X127971429Y-75660533D01*
X183333333Y-78359580D02*
X183285714Y-78407200D01*
X183285714Y-78407200D02*
X183142857Y-78454819D01*
X183142857Y-78454819D02*
X183047619Y-78454819D01*
X183047619Y-78454819D02*
X182904762Y-78407200D01*
X182904762Y-78407200D02*
X182809524Y-78311961D01*
X182809524Y-78311961D02*
X182761905Y-78216723D01*
X182761905Y-78216723D02*
X182714286Y-78026247D01*
X182714286Y-78026247D02*
X182714286Y-77883390D01*
X182714286Y-77883390D02*
X182761905Y-77692914D01*
X182761905Y-77692914D02*
X182809524Y-77597676D01*
X182809524Y-77597676D02*
X182904762Y-77502438D01*
X182904762Y-77502438D02*
X183047619Y-77454819D01*
X183047619Y-77454819D02*
X183142857Y-77454819D01*
X183142857Y-77454819D02*
X183285714Y-77502438D01*
X183285714Y-77502438D02*
X183333333Y-77550057D01*
X183809524Y-78454819D02*
X184000000Y-78454819D01*
X184000000Y-78454819D02*
X184095238Y-78407200D01*
X184095238Y-78407200D02*
X184142857Y-78359580D01*
X184142857Y-78359580D02*
X184238095Y-78216723D01*
X184238095Y-78216723D02*
X184285714Y-78026247D01*
X184285714Y-78026247D02*
X184285714Y-77645295D01*
X184285714Y-77645295D02*
X184238095Y-77550057D01*
X184238095Y-77550057D02*
X184190476Y-77502438D01*
X184190476Y-77502438D02*
X184095238Y-77454819D01*
X184095238Y-77454819D02*
X183904762Y-77454819D01*
X183904762Y-77454819D02*
X183809524Y-77502438D01*
X183809524Y-77502438D02*
X183761905Y-77550057D01*
X183761905Y-77550057D02*
X183714286Y-77645295D01*
X183714286Y-77645295D02*
X183714286Y-77883390D01*
X183714286Y-77883390D02*
X183761905Y-77978628D01*
X183761905Y-77978628D02*
X183809524Y-78026247D01*
X183809524Y-78026247D02*
X183904762Y-78073866D01*
X183904762Y-78073866D02*
X184095238Y-78073866D01*
X184095238Y-78073866D02*
X184190476Y-78026247D01*
X184190476Y-78026247D02*
X184238095Y-77978628D01*
X184238095Y-77978628D02*
X184285714Y-77883390D01*
X170759580Y-72367857D02*
X170807200Y-72415476D01*
X170807200Y-72415476D02*
X170854819Y-72558333D01*
X170854819Y-72558333D02*
X170854819Y-72653571D01*
X170854819Y-72653571D02*
X170807200Y-72796428D01*
X170807200Y-72796428D02*
X170711961Y-72891666D01*
X170711961Y-72891666D02*
X170616723Y-72939285D01*
X170616723Y-72939285D02*
X170426247Y-72986904D01*
X170426247Y-72986904D02*
X170283390Y-72986904D01*
X170283390Y-72986904D02*
X170092914Y-72939285D01*
X170092914Y-72939285D02*
X169997676Y-72891666D01*
X169997676Y-72891666D02*
X169902438Y-72796428D01*
X169902438Y-72796428D02*
X169854819Y-72653571D01*
X169854819Y-72653571D02*
X169854819Y-72558333D01*
X169854819Y-72558333D02*
X169902438Y-72415476D01*
X169902438Y-72415476D02*
X169950057Y-72367857D01*
X169854819Y-72034523D02*
X169854819Y-71415476D01*
X169854819Y-71415476D02*
X170235771Y-71748809D01*
X170235771Y-71748809D02*
X170235771Y-71605952D01*
X170235771Y-71605952D02*
X170283390Y-71510714D01*
X170283390Y-71510714D02*
X170331009Y-71463095D01*
X170331009Y-71463095D02*
X170426247Y-71415476D01*
X170426247Y-71415476D02*
X170664342Y-71415476D01*
X170664342Y-71415476D02*
X170759580Y-71463095D01*
X170759580Y-71463095D02*
X170807200Y-71510714D01*
X170807200Y-71510714D02*
X170854819Y-71605952D01*
X170854819Y-71605952D02*
X170854819Y-71891666D01*
X170854819Y-71891666D02*
X170807200Y-71986904D01*
X170807200Y-71986904D02*
X170759580Y-72034523D01*
X170283390Y-70844047D02*
X170235771Y-70939285D01*
X170235771Y-70939285D02*
X170188152Y-70986904D01*
X170188152Y-70986904D02*
X170092914Y-71034523D01*
X170092914Y-71034523D02*
X170045295Y-71034523D01*
X170045295Y-71034523D02*
X169950057Y-70986904D01*
X169950057Y-70986904D02*
X169902438Y-70939285D01*
X169902438Y-70939285D02*
X169854819Y-70844047D01*
X169854819Y-70844047D02*
X169854819Y-70653571D01*
X169854819Y-70653571D02*
X169902438Y-70558333D01*
X169902438Y-70558333D02*
X169950057Y-70510714D01*
X169950057Y-70510714D02*
X170045295Y-70463095D01*
X170045295Y-70463095D02*
X170092914Y-70463095D01*
X170092914Y-70463095D02*
X170188152Y-70510714D01*
X170188152Y-70510714D02*
X170235771Y-70558333D01*
X170235771Y-70558333D02*
X170283390Y-70653571D01*
X170283390Y-70653571D02*
X170283390Y-70844047D01*
X170283390Y-70844047D02*
X170331009Y-70939285D01*
X170331009Y-70939285D02*
X170378628Y-70986904D01*
X170378628Y-70986904D02*
X170473866Y-71034523D01*
X170473866Y-71034523D02*
X170664342Y-71034523D01*
X170664342Y-71034523D02*
X170759580Y-70986904D01*
X170759580Y-70986904D02*
X170807200Y-70939285D01*
X170807200Y-70939285D02*
X170854819Y-70844047D01*
X170854819Y-70844047D02*
X170854819Y-70653571D01*
X170854819Y-70653571D02*
X170807200Y-70558333D01*
X170807200Y-70558333D02*
X170759580Y-70510714D01*
X170759580Y-70510714D02*
X170664342Y-70463095D01*
X170664342Y-70463095D02*
X170473866Y-70463095D01*
X170473866Y-70463095D02*
X170378628Y-70510714D01*
X170378628Y-70510714D02*
X170331009Y-70558333D01*
X170331009Y-70558333D02*
X170283390Y-70653571D01*
X194863095Y-73779819D02*
X194863095Y-74589342D01*
X194863095Y-74589342D02*
X194910714Y-74684580D01*
X194910714Y-74684580D02*
X194958333Y-74732200D01*
X194958333Y-74732200D02*
X195053571Y-74779819D01*
X195053571Y-74779819D02*
X195244047Y-74779819D01*
X195244047Y-74779819D02*
X195339285Y-74732200D01*
X195339285Y-74732200D02*
X195386904Y-74684580D01*
X195386904Y-74684580D02*
X195434523Y-74589342D01*
X195434523Y-74589342D02*
X195434523Y-73779819D01*
X196339285Y-73779819D02*
X196148809Y-73779819D01*
X196148809Y-73779819D02*
X196053571Y-73827438D01*
X196053571Y-73827438D02*
X196005952Y-73875057D01*
X196005952Y-73875057D02*
X195910714Y-74017914D01*
X195910714Y-74017914D02*
X195863095Y-74208390D01*
X195863095Y-74208390D02*
X195863095Y-74589342D01*
X195863095Y-74589342D02*
X195910714Y-74684580D01*
X195910714Y-74684580D02*
X195958333Y-74732200D01*
X195958333Y-74732200D02*
X196053571Y-74779819D01*
X196053571Y-74779819D02*
X196244047Y-74779819D01*
X196244047Y-74779819D02*
X196339285Y-74732200D01*
X196339285Y-74732200D02*
X196386904Y-74684580D01*
X196386904Y-74684580D02*
X196434523Y-74589342D01*
X196434523Y-74589342D02*
X196434523Y-74351247D01*
X196434523Y-74351247D02*
X196386904Y-74256009D01*
X196386904Y-74256009D02*
X196339285Y-74208390D01*
X196339285Y-74208390D02*
X196244047Y-74160771D01*
X196244047Y-74160771D02*
X196053571Y-74160771D01*
X196053571Y-74160771D02*
X195958333Y-74208390D01*
X195958333Y-74208390D02*
X195910714Y-74256009D01*
X195910714Y-74256009D02*
X195863095Y-74351247D01*
X243291666Y-51929819D02*
X242958333Y-51453628D01*
X242720238Y-51929819D02*
X242720238Y-50929819D01*
X242720238Y-50929819D02*
X243101190Y-50929819D01*
X243101190Y-50929819D02*
X243196428Y-50977438D01*
X243196428Y-50977438D02*
X243244047Y-51025057D01*
X243244047Y-51025057D02*
X243291666Y-51120295D01*
X243291666Y-51120295D02*
X243291666Y-51263152D01*
X243291666Y-51263152D02*
X243244047Y-51358390D01*
X243244047Y-51358390D02*
X243196428Y-51406009D01*
X243196428Y-51406009D02*
X243101190Y-51453628D01*
X243101190Y-51453628D02*
X242720238Y-51453628D01*
X243720238Y-51406009D02*
X244053571Y-51406009D01*
X244196428Y-51929819D02*
X243720238Y-51929819D01*
X243720238Y-51929819D02*
X243720238Y-50929819D01*
X243720238Y-50929819D02*
X244196428Y-50929819D01*
X244958333Y-51406009D02*
X244625000Y-51406009D01*
X244625000Y-51929819D02*
X244625000Y-50929819D01*
X244625000Y-50929819D02*
X245101190Y-50929819D01*
X245625000Y-50929819D02*
X245625000Y-51167914D01*
X245386905Y-51072676D02*
X245625000Y-51167914D01*
X245625000Y-51167914D02*
X245863095Y-51072676D01*
X245482143Y-51358390D02*
X245625000Y-51167914D01*
X245625000Y-51167914D02*
X245767857Y-51358390D01*
X246386905Y-50929819D02*
X246386905Y-51167914D01*
X246148810Y-51072676D02*
X246386905Y-51167914D01*
X246386905Y-51167914D02*
X246625000Y-51072676D01*
X246244048Y-51358390D02*
X246386905Y-51167914D01*
X246386905Y-51167914D02*
X246529762Y-51358390D01*
X127066666Y-92924819D02*
X127066666Y-93639104D01*
X127066666Y-93639104D02*
X127019047Y-93781961D01*
X127019047Y-93781961D02*
X126923809Y-93877200D01*
X126923809Y-93877200D02*
X126780952Y-93924819D01*
X126780952Y-93924819D02*
X126685714Y-93924819D01*
X127590476Y-93924819D02*
X127780952Y-93924819D01*
X127780952Y-93924819D02*
X127876190Y-93877200D01*
X127876190Y-93877200D02*
X127923809Y-93829580D01*
X127923809Y-93829580D02*
X128019047Y-93686723D01*
X128019047Y-93686723D02*
X128066666Y-93496247D01*
X128066666Y-93496247D02*
X128066666Y-93115295D01*
X128066666Y-93115295D02*
X128019047Y-93020057D01*
X128019047Y-93020057D02*
X127971428Y-92972438D01*
X127971428Y-92972438D02*
X127876190Y-92924819D01*
X127876190Y-92924819D02*
X127685714Y-92924819D01*
X127685714Y-92924819D02*
X127590476Y-92972438D01*
X127590476Y-92972438D02*
X127542857Y-93020057D01*
X127542857Y-93020057D02*
X127495238Y-93115295D01*
X127495238Y-93115295D02*
X127495238Y-93353390D01*
X127495238Y-93353390D02*
X127542857Y-93448628D01*
X127542857Y-93448628D02*
X127590476Y-93496247D01*
X127590476Y-93496247D02*
X127685714Y-93543866D01*
X127685714Y-93543866D02*
X127876190Y-93543866D01*
X127876190Y-93543866D02*
X127971428Y-93496247D01*
X127971428Y-93496247D02*
X128019047Y-93448628D01*
X128019047Y-93448628D02*
X128066666Y-93353390D01*
X139574819Y-100232857D02*
X139098628Y-100566190D01*
X139574819Y-100804285D02*
X138574819Y-100804285D01*
X138574819Y-100804285D02*
X138574819Y-100423333D01*
X138574819Y-100423333D02*
X138622438Y-100328095D01*
X138622438Y-100328095D02*
X138670057Y-100280476D01*
X138670057Y-100280476D02*
X138765295Y-100232857D01*
X138765295Y-100232857D02*
X138908152Y-100232857D01*
X138908152Y-100232857D02*
X139003390Y-100280476D01*
X139003390Y-100280476D02*
X139051009Y-100328095D01*
X139051009Y-100328095D02*
X139098628Y-100423333D01*
X139098628Y-100423333D02*
X139098628Y-100804285D01*
X138908152Y-99375714D02*
X139574819Y-99375714D01*
X138527200Y-99613809D02*
X139241485Y-99851904D01*
X139241485Y-99851904D02*
X139241485Y-99232857D01*
X138574819Y-98375714D02*
X138574819Y-98851904D01*
X138574819Y-98851904D02*
X139051009Y-98899523D01*
X139051009Y-98899523D02*
X139003390Y-98851904D01*
X139003390Y-98851904D02*
X138955771Y-98756666D01*
X138955771Y-98756666D02*
X138955771Y-98518571D01*
X138955771Y-98518571D02*
X139003390Y-98423333D01*
X139003390Y-98423333D02*
X139051009Y-98375714D01*
X139051009Y-98375714D02*
X139146247Y-98328095D01*
X139146247Y-98328095D02*
X139384342Y-98328095D01*
X139384342Y-98328095D02*
X139479580Y-98375714D01*
X139479580Y-98375714D02*
X139527200Y-98423333D01*
X139527200Y-98423333D02*
X139574819Y-98518571D01*
X139574819Y-98518571D02*
X139574819Y-98756666D01*
X139574819Y-98756666D02*
X139527200Y-98851904D01*
X139527200Y-98851904D02*
X139479580Y-98899523D01*
X210557142Y-83689580D02*
X210509523Y-83737200D01*
X210509523Y-83737200D02*
X210366666Y-83784819D01*
X210366666Y-83784819D02*
X210271428Y-83784819D01*
X210271428Y-83784819D02*
X210128571Y-83737200D01*
X210128571Y-83737200D02*
X210033333Y-83641961D01*
X210033333Y-83641961D02*
X209985714Y-83546723D01*
X209985714Y-83546723D02*
X209938095Y-83356247D01*
X209938095Y-83356247D02*
X209938095Y-83213390D01*
X209938095Y-83213390D02*
X209985714Y-83022914D01*
X209985714Y-83022914D02*
X210033333Y-82927676D01*
X210033333Y-82927676D02*
X210128571Y-82832438D01*
X210128571Y-82832438D02*
X210271428Y-82784819D01*
X210271428Y-82784819D02*
X210366666Y-82784819D01*
X210366666Y-82784819D02*
X210509523Y-82832438D01*
X210509523Y-82832438D02*
X210557142Y-82880057D01*
X210938095Y-82880057D02*
X210985714Y-82832438D01*
X210985714Y-82832438D02*
X211080952Y-82784819D01*
X211080952Y-82784819D02*
X211319047Y-82784819D01*
X211319047Y-82784819D02*
X211414285Y-82832438D01*
X211414285Y-82832438D02*
X211461904Y-82880057D01*
X211461904Y-82880057D02*
X211509523Y-82975295D01*
X211509523Y-82975295D02*
X211509523Y-83070533D01*
X211509523Y-83070533D02*
X211461904Y-83213390D01*
X211461904Y-83213390D02*
X210890476Y-83784819D01*
X210890476Y-83784819D02*
X211509523Y-83784819D01*
X212461904Y-83784819D02*
X211890476Y-83784819D01*
X212176190Y-83784819D02*
X212176190Y-82784819D01*
X212176190Y-82784819D02*
X212080952Y-82927676D01*
X212080952Y-82927676D02*
X211985714Y-83022914D01*
X211985714Y-83022914D02*
X211890476Y-83070533D01*
X196339580Y-59242857D02*
X196387200Y-59290476D01*
X196387200Y-59290476D02*
X196434819Y-59433333D01*
X196434819Y-59433333D02*
X196434819Y-59528571D01*
X196434819Y-59528571D02*
X196387200Y-59671428D01*
X196387200Y-59671428D02*
X196291961Y-59766666D01*
X196291961Y-59766666D02*
X196196723Y-59814285D01*
X196196723Y-59814285D02*
X196006247Y-59861904D01*
X196006247Y-59861904D02*
X195863390Y-59861904D01*
X195863390Y-59861904D02*
X195672914Y-59814285D01*
X195672914Y-59814285D02*
X195577676Y-59766666D01*
X195577676Y-59766666D02*
X195482438Y-59671428D01*
X195482438Y-59671428D02*
X195434819Y-59528571D01*
X195434819Y-59528571D02*
X195434819Y-59433333D01*
X195434819Y-59433333D02*
X195482438Y-59290476D01*
X195482438Y-59290476D02*
X195530057Y-59242857D01*
X196434819Y-58290476D02*
X196434819Y-58861904D01*
X196434819Y-58576190D02*
X195434819Y-58576190D01*
X195434819Y-58576190D02*
X195577676Y-58671428D01*
X195577676Y-58671428D02*
X195672914Y-58766666D01*
X195672914Y-58766666D02*
X195720533Y-58861904D01*
X196434819Y-57814285D02*
X196434819Y-57623809D01*
X196434819Y-57623809D02*
X196387200Y-57528571D01*
X196387200Y-57528571D02*
X196339580Y-57480952D01*
X196339580Y-57480952D02*
X196196723Y-57385714D01*
X196196723Y-57385714D02*
X196006247Y-57338095D01*
X196006247Y-57338095D02*
X195625295Y-57338095D01*
X195625295Y-57338095D02*
X195530057Y-57385714D01*
X195530057Y-57385714D02*
X195482438Y-57433333D01*
X195482438Y-57433333D02*
X195434819Y-57528571D01*
X195434819Y-57528571D02*
X195434819Y-57719047D01*
X195434819Y-57719047D02*
X195482438Y-57814285D01*
X195482438Y-57814285D02*
X195530057Y-57861904D01*
X195530057Y-57861904D02*
X195625295Y-57909523D01*
X195625295Y-57909523D02*
X195863390Y-57909523D01*
X195863390Y-57909523D02*
X195958628Y-57861904D01*
X195958628Y-57861904D02*
X196006247Y-57814285D01*
X196006247Y-57814285D02*
X196053866Y-57719047D01*
X196053866Y-57719047D02*
X196053866Y-57528571D01*
X196053866Y-57528571D02*
X196006247Y-57433333D01*
X196006247Y-57433333D02*
X195958628Y-57385714D01*
X195958628Y-57385714D02*
X195863390Y-57338095D01*
X129429819Y-97889285D02*
X128429819Y-97889285D01*
X128429819Y-97889285D02*
X128429819Y-97651190D01*
X128429819Y-97651190D02*
X128477438Y-97508333D01*
X128477438Y-97508333D02*
X128572676Y-97413095D01*
X128572676Y-97413095D02*
X128667914Y-97365476D01*
X128667914Y-97365476D02*
X128858390Y-97317857D01*
X128858390Y-97317857D02*
X129001247Y-97317857D01*
X129001247Y-97317857D02*
X129191723Y-97365476D01*
X129191723Y-97365476D02*
X129286961Y-97413095D01*
X129286961Y-97413095D02*
X129382200Y-97508333D01*
X129382200Y-97508333D02*
X129429819Y-97651190D01*
X129429819Y-97651190D02*
X129429819Y-97889285D01*
X129429819Y-96365476D02*
X129429819Y-96936904D01*
X129429819Y-96651190D02*
X128429819Y-96651190D01*
X128429819Y-96651190D02*
X128572676Y-96746428D01*
X128572676Y-96746428D02*
X128667914Y-96841666D01*
X128667914Y-96841666D02*
X128715533Y-96936904D01*
X128525057Y-95984523D02*
X128477438Y-95936904D01*
X128477438Y-95936904D02*
X128429819Y-95841666D01*
X128429819Y-95841666D02*
X128429819Y-95603571D01*
X128429819Y-95603571D02*
X128477438Y-95508333D01*
X128477438Y-95508333D02*
X128525057Y-95460714D01*
X128525057Y-95460714D02*
X128620295Y-95413095D01*
X128620295Y-95413095D02*
X128715533Y-95413095D01*
X128715533Y-95413095D02*
X128858390Y-95460714D01*
X128858390Y-95460714D02*
X129429819Y-96032142D01*
X129429819Y-96032142D02*
X129429819Y-95413095D01*
X130679819Y-108789285D02*
X129679819Y-108789285D01*
X129679819Y-108789285D02*
X129679819Y-108551190D01*
X129679819Y-108551190D02*
X129727438Y-108408333D01*
X129727438Y-108408333D02*
X129822676Y-108313095D01*
X129822676Y-108313095D02*
X129917914Y-108265476D01*
X129917914Y-108265476D02*
X130108390Y-108217857D01*
X130108390Y-108217857D02*
X130251247Y-108217857D01*
X130251247Y-108217857D02*
X130441723Y-108265476D01*
X130441723Y-108265476D02*
X130536961Y-108313095D01*
X130536961Y-108313095D02*
X130632200Y-108408333D01*
X130632200Y-108408333D02*
X130679819Y-108551190D01*
X130679819Y-108551190D02*
X130679819Y-108789285D01*
X130679819Y-107265476D02*
X130679819Y-107836904D01*
X130679819Y-107551190D02*
X129679819Y-107551190D01*
X129679819Y-107551190D02*
X129822676Y-107646428D01*
X129822676Y-107646428D02*
X129917914Y-107741666D01*
X129917914Y-107741666D02*
X129965533Y-107836904D01*
X129679819Y-106646428D02*
X129679819Y-106551190D01*
X129679819Y-106551190D02*
X129727438Y-106455952D01*
X129727438Y-106455952D02*
X129775057Y-106408333D01*
X129775057Y-106408333D02*
X129870295Y-106360714D01*
X129870295Y-106360714D02*
X130060771Y-106313095D01*
X130060771Y-106313095D02*
X130298866Y-106313095D01*
X130298866Y-106313095D02*
X130489342Y-106360714D01*
X130489342Y-106360714D02*
X130584580Y-106408333D01*
X130584580Y-106408333D02*
X130632200Y-106455952D01*
X130632200Y-106455952D02*
X130679819Y-106551190D01*
X130679819Y-106551190D02*
X130679819Y-106646428D01*
X130679819Y-106646428D02*
X130632200Y-106741666D01*
X130632200Y-106741666D02*
X130584580Y-106789285D01*
X130584580Y-106789285D02*
X130489342Y-106836904D01*
X130489342Y-106836904D02*
X130298866Y-106884523D01*
X130298866Y-106884523D02*
X130060771Y-106884523D01*
X130060771Y-106884523D02*
X129870295Y-106836904D01*
X129870295Y-106836904D02*
X129775057Y-106789285D01*
X129775057Y-106789285D02*
X129727438Y-106741666D01*
X129727438Y-106741666D02*
X129679819Y-106646428D01*
X140184819Y-81832857D02*
X139708628Y-82166190D01*
X140184819Y-82404285D02*
X139184819Y-82404285D01*
X139184819Y-82404285D02*
X139184819Y-82023333D01*
X139184819Y-82023333D02*
X139232438Y-81928095D01*
X139232438Y-81928095D02*
X139280057Y-81880476D01*
X139280057Y-81880476D02*
X139375295Y-81832857D01*
X139375295Y-81832857D02*
X139518152Y-81832857D01*
X139518152Y-81832857D02*
X139613390Y-81880476D01*
X139613390Y-81880476D02*
X139661009Y-81928095D01*
X139661009Y-81928095D02*
X139708628Y-82023333D01*
X139708628Y-82023333D02*
X139708628Y-82404285D01*
X140184819Y-80880476D02*
X140184819Y-81451904D01*
X140184819Y-81166190D02*
X139184819Y-81166190D01*
X139184819Y-81166190D02*
X139327676Y-81261428D01*
X139327676Y-81261428D02*
X139422914Y-81356666D01*
X139422914Y-81356666D02*
X139470533Y-81451904D01*
X140184819Y-79928095D02*
X140184819Y-80499523D01*
X140184819Y-80213809D02*
X139184819Y-80213809D01*
X139184819Y-80213809D02*
X139327676Y-80309047D01*
X139327676Y-80309047D02*
X139422914Y-80404285D01*
X139422914Y-80404285D02*
X139470533Y-80499523D01*
X187729819Y-70117857D02*
X187253628Y-70451190D01*
X187729819Y-70689285D02*
X186729819Y-70689285D01*
X186729819Y-70689285D02*
X186729819Y-70308333D01*
X186729819Y-70308333D02*
X186777438Y-70213095D01*
X186777438Y-70213095D02*
X186825057Y-70165476D01*
X186825057Y-70165476D02*
X186920295Y-70117857D01*
X186920295Y-70117857D02*
X187063152Y-70117857D01*
X187063152Y-70117857D02*
X187158390Y-70165476D01*
X187158390Y-70165476D02*
X187206009Y-70213095D01*
X187206009Y-70213095D02*
X187253628Y-70308333D01*
X187253628Y-70308333D02*
X187253628Y-70689285D01*
X187729819Y-69165476D02*
X187729819Y-69736904D01*
X187729819Y-69451190D02*
X186729819Y-69451190D01*
X186729819Y-69451190D02*
X186872676Y-69546428D01*
X186872676Y-69546428D02*
X186967914Y-69641666D01*
X186967914Y-69641666D02*
X187015533Y-69736904D01*
X186729819Y-68546428D02*
X186729819Y-68451190D01*
X186729819Y-68451190D02*
X186777438Y-68355952D01*
X186777438Y-68355952D02*
X186825057Y-68308333D01*
X186825057Y-68308333D02*
X186920295Y-68260714D01*
X186920295Y-68260714D02*
X187110771Y-68213095D01*
X187110771Y-68213095D02*
X187348866Y-68213095D01*
X187348866Y-68213095D02*
X187539342Y-68260714D01*
X187539342Y-68260714D02*
X187634580Y-68308333D01*
X187634580Y-68308333D02*
X187682200Y-68355952D01*
X187682200Y-68355952D02*
X187729819Y-68451190D01*
X187729819Y-68451190D02*
X187729819Y-68546428D01*
X187729819Y-68546428D02*
X187682200Y-68641666D01*
X187682200Y-68641666D02*
X187634580Y-68689285D01*
X187634580Y-68689285D02*
X187539342Y-68736904D01*
X187539342Y-68736904D02*
X187348866Y-68784523D01*
X187348866Y-68784523D02*
X187110771Y-68784523D01*
X187110771Y-68784523D02*
X186920295Y-68736904D01*
X186920295Y-68736904D02*
X186825057Y-68689285D01*
X186825057Y-68689285D02*
X186777438Y-68641666D01*
X186777438Y-68641666D02*
X186729819Y-68546428D01*
X184557142Y-65989580D02*
X184509523Y-66037200D01*
X184509523Y-66037200D02*
X184366666Y-66084819D01*
X184366666Y-66084819D02*
X184271428Y-66084819D01*
X184271428Y-66084819D02*
X184128571Y-66037200D01*
X184128571Y-66037200D02*
X184033333Y-65941961D01*
X184033333Y-65941961D02*
X183985714Y-65846723D01*
X183985714Y-65846723D02*
X183938095Y-65656247D01*
X183938095Y-65656247D02*
X183938095Y-65513390D01*
X183938095Y-65513390D02*
X183985714Y-65322914D01*
X183985714Y-65322914D02*
X184033333Y-65227676D01*
X184033333Y-65227676D02*
X184128571Y-65132438D01*
X184128571Y-65132438D02*
X184271428Y-65084819D01*
X184271428Y-65084819D02*
X184366666Y-65084819D01*
X184366666Y-65084819D02*
X184509523Y-65132438D01*
X184509523Y-65132438D02*
X184557142Y-65180057D01*
X185509523Y-66084819D02*
X184938095Y-66084819D01*
X185223809Y-66084819D02*
X185223809Y-65084819D01*
X185223809Y-65084819D02*
X185128571Y-65227676D01*
X185128571Y-65227676D02*
X185033333Y-65322914D01*
X185033333Y-65322914D02*
X184938095Y-65370533D01*
X185842857Y-65084819D02*
X186509523Y-65084819D01*
X186509523Y-65084819D02*
X186080952Y-66084819D01*
X137007319Y-87341904D02*
X137816842Y-87341904D01*
X137816842Y-87341904D02*
X137912080Y-87294285D01*
X137912080Y-87294285D02*
X137959700Y-87246666D01*
X137959700Y-87246666D02*
X138007319Y-87151428D01*
X138007319Y-87151428D02*
X138007319Y-86960952D01*
X138007319Y-86960952D02*
X137959700Y-86865714D01*
X137959700Y-86865714D02*
X137912080Y-86818095D01*
X137912080Y-86818095D02*
X137816842Y-86770476D01*
X137816842Y-86770476D02*
X137007319Y-86770476D01*
X137102557Y-86341904D02*
X137054938Y-86294285D01*
X137054938Y-86294285D02*
X137007319Y-86199047D01*
X137007319Y-86199047D02*
X137007319Y-85960952D01*
X137007319Y-85960952D02*
X137054938Y-85865714D01*
X137054938Y-85865714D02*
X137102557Y-85818095D01*
X137102557Y-85818095D02*
X137197795Y-85770476D01*
X137197795Y-85770476D02*
X137293033Y-85770476D01*
X137293033Y-85770476D02*
X137435890Y-85818095D01*
X137435890Y-85818095D02*
X138007319Y-86389523D01*
X138007319Y-86389523D02*
X138007319Y-85770476D01*
X208373809Y-75178628D02*
X208373809Y-75654819D01*
X208040476Y-74654819D02*
X208373809Y-75178628D01*
X208373809Y-75178628D02*
X208707142Y-74654819D01*
X209564285Y-75654819D02*
X208992857Y-75654819D01*
X209278571Y-75654819D02*
X209278571Y-74654819D01*
X209278571Y-74654819D02*
X209183333Y-74797676D01*
X209183333Y-74797676D02*
X209088095Y-74892914D01*
X209088095Y-74892914D02*
X208992857Y-74940533D01*
X133591666Y-51904819D02*
X133258333Y-51428628D01*
X133020238Y-51904819D02*
X133020238Y-50904819D01*
X133020238Y-50904819D02*
X133401190Y-50904819D01*
X133401190Y-50904819D02*
X133496428Y-50952438D01*
X133496428Y-50952438D02*
X133544047Y-51000057D01*
X133544047Y-51000057D02*
X133591666Y-51095295D01*
X133591666Y-51095295D02*
X133591666Y-51238152D01*
X133591666Y-51238152D02*
X133544047Y-51333390D01*
X133544047Y-51333390D02*
X133496428Y-51381009D01*
X133496428Y-51381009D02*
X133401190Y-51428628D01*
X133401190Y-51428628D02*
X133020238Y-51428628D01*
X134020238Y-51381009D02*
X134353571Y-51381009D01*
X134496428Y-51904819D02*
X134020238Y-51904819D01*
X134020238Y-51904819D02*
X134020238Y-50904819D01*
X134020238Y-50904819D02*
X134496428Y-50904819D01*
X135258333Y-51381009D02*
X134925000Y-51381009D01*
X134925000Y-51904819D02*
X134925000Y-50904819D01*
X134925000Y-50904819D02*
X135401190Y-50904819D01*
X135925000Y-50904819D02*
X135925000Y-51142914D01*
X135686905Y-51047676D02*
X135925000Y-51142914D01*
X135925000Y-51142914D02*
X136163095Y-51047676D01*
X135782143Y-51333390D02*
X135925000Y-51142914D01*
X135925000Y-51142914D02*
X136067857Y-51333390D01*
X136686905Y-50904819D02*
X136686905Y-51142914D01*
X136448810Y-51047676D02*
X136686905Y-51142914D01*
X136686905Y-51142914D02*
X136925000Y-51047676D01*
X136544048Y-51333390D02*
X136686905Y-51142914D01*
X136686905Y-51142914D02*
X136829762Y-51333390D01*
X142413333Y-77794819D02*
X142080000Y-77318628D01*
X141841905Y-77794819D02*
X141841905Y-76794819D01*
X141841905Y-76794819D02*
X142222857Y-76794819D01*
X142222857Y-76794819D02*
X142318095Y-76842438D01*
X142318095Y-76842438D02*
X142365714Y-76890057D01*
X142365714Y-76890057D02*
X142413333Y-76985295D01*
X142413333Y-76985295D02*
X142413333Y-77128152D01*
X142413333Y-77128152D02*
X142365714Y-77223390D01*
X142365714Y-77223390D02*
X142318095Y-77271009D01*
X142318095Y-77271009D02*
X142222857Y-77318628D01*
X142222857Y-77318628D02*
X141841905Y-77318628D01*
X143318095Y-76794819D02*
X142841905Y-76794819D01*
X142841905Y-76794819D02*
X142794286Y-77271009D01*
X142794286Y-77271009D02*
X142841905Y-77223390D01*
X142841905Y-77223390D02*
X142937143Y-77175771D01*
X142937143Y-77175771D02*
X143175238Y-77175771D01*
X143175238Y-77175771D02*
X143270476Y-77223390D01*
X143270476Y-77223390D02*
X143318095Y-77271009D01*
X143318095Y-77271009D02*
X143365714Y-77366247D01*
X143365714Y-77366247D02*
X143365714Y-77604342D01*
X143365714Y-77604342D02*
X143318095Y-77699580D01*
X143318095Y-77699580D02*
X143270476Y-77747200D01*
X143270476Y-77747200D02*
X143175238Y-77794819D01*
X143175238Y-77794819D02*
X142937143Y-77794819D01*
X142937143Y-77794819D02*
X142841905Y-77747200D01*
X142841905Y-77747200D02*
X142794286Y-77699580D01*
X204013333Y-90249580D02*
X203965714Y-90297200D01*
X203965714Y-90297200D02*
X203822857Y-90344819D01*
X203822857Y-90344819D02*
X203727619Y-90344819D01*
X203727619Y-90344819D02*
X203584762Y-90297200D01*
X203584762Y-90297200D02*
X203489524Y-90201961D01*
X203489524Y-90201961D02*
X203441905Y-90106723D01*
X203441905Y-90106723D02*
X203394286Y-89916247D01*
X203394286Y-89916247D02*
X203394286Y-89773390D01*
X203394286Y-89773390D02*
X203441905Y-89582914D01*
X203441905Y-89582914D02*
X203489524Y-89487676D01*
X203489524Y-89487676D02*
X203584762Y-89392438D01*
X203584762Y-89392438D02*
X203727619Y-89344819D01*
X203727619Y-89344819D02*
X203822857Y-89344819D01*
X203822857Y-89344819D02*
X203965714Y-89392438D01*
X203965714Y-89392438D02*
X204013333Y-89440057D01*
X204870476Y-89678152D02*
X204870476Y-90344819D01*
X204632381Y-89297200D02*
X204394286Y-90011485D01*
X204394286Y-90011485D02*
X205013333Y-90011485D01*
X134547319Y-76382857D02*
X134071128Y-76716190D01*
X134547319Y-76954285D02*
X133547319Y-76954285D01*
X133547319Y-76954285D02*
X133547319Y-76573333D01*
X133547319Y-76573333D02*
X133594938Y-76478095D01*
X133594938Y-76478095D02*
X133642557Y-76430476D01*
X133642557Y-76430476D02*
X133737795Y-76382857D01*
X133737795Y-76382857D02*
X133880652Y-76382857D01*
X133880652Y-76382857D02*
X133975890Y-76430476D01*
X133975890Y-76430476D02*
X134023509Y-76478095D01*
X134023509Y-76478095D02*
X134071128Y-76573333D01*
X134071128Y-76573333D02*
X134071128Y-76954285D01*
X134547319Y-75430476D02*
X134547319Y-76001904D01*
X134547319Y-75716190D02*
X133547319Y-75716190D01*
X133547319Y-75716190D02*
X133690176Y-75811428D01*
X133690176Y-75811428D02*
X133785414Y-75906666D01*
X133785414Y-75906666D02*
X133833033Y-76001904D01*
X133642557Y-75049523D02*
X133594938Y-75001904D01*
X133594938Y-75001904D02*
X133547319Y-74906666D01*
X133547319Y-74906666D02*
X133547319Y-74668571D01*
X133547319Y-74668571D02*
X133594938Y-74573333D01*
X133594938Y-74573333D02*
X133642557Y-74525714D01*
X133642557Y-74525714D02*
X133737795Y-74478095D01*
X133737795Y-74478095D02*
X133833033Y-74478095D01*
X133833033Y-74478095D02*
X133975890Y-74525714D01*
X133975890Y-74525714D02*
X134547319Y-75097142D01*
X134547319Y-75097142D02*
X134547319Y-74478095D01*
X225527142Y-83259580D02*
X225479523Y-83307200D01*
X225479523Y-83307200D02*
X225336666Y-83354819D01*
X225336666Y-83354819D02*
X225241428Y-83354819D01*
X225241428Y-83354819D02*
X225098571Y-83307200D01*
X225098571Y-83307200D02*
X225003333Y-83211961D01*
X225003333Y-83211961D02*
X224955714Y-83116723D01*
X224955714Y-83116723D02*
X224908095Y-82926247D01*
X224908095Y-82926247D02*
X224908095Y-82783390D01*
X224908095Y-82783390D02*
X224955714Y-82592914D01*
X224955714Y-82592914D02*
X225003333Y-82497676D01*
X225003333Y-82497676D02*
X225098571Y-82402438D01*
X225098571Y-82402438D02*
X225241428Y-82354819D01*
X225241428Y-82354819D02*
X225336666Y-82354819D01*
X225336666Y-82354819D02*
X225479523Y-82402438D01*
X225479523Y-82402438D02*
X225527142Y-82450057D01*
X225860476Y-82354819D02*
X226479523Y-82354819D01*
X226479523Y-82354819D02*
X226146190Y-82735771D01*
X226146190Y-82735771D02*
X226289047Y-82735771D01*
X226289047Y-82735771D02*
X226384285Y-82783390D01*
X226384285Y-82783390D02*
X226431904Y-82831009D01*
X226431904Y-82831009D02*
X226479523Y-82926247D01*
X226479523Y-82926247D02*
X226479523Y-83164342D01*
X226479523Y-83164342D02*
X226431904Y-83259580D01*
X226431904Y-83259580D02*
X226384285Y-83307200D01*
X226384285Y-83307200D02*
X226289047Y-83354819D01*
X226289047Y-83354819D02*
X226003333Y-83354819D01*
X226003333Y-83354819D02*
X225908095Y-83307200D01*
X225908095Y-83307200D02*
X225860476Y-83259580D01*
X226812857Y-82354819D02*
X227431904Y-82354819D01*
X227431904Y-82354819D02*
X227098571Y-82735771D01*
X227098571Y-82735771D02*
X227241428Y-82735771D01*
X227241428Y-82735771D02*
X227336666Y-82783390D01*
X227336666Y-82783390D02*
X227384285Y-82831009D01*
X227384285Y-82831009D02*
X227431904Y-82926247D01*
X227431904Y-82926247D02*
X227431904Y-83164342D01*
X227431904Y-83164342D02*
X227384285Y-83259580D01*
X227384285Y-83259580D02*
X227336666Y-83307200D01*
X227336666Y-83307200D02*
X227241428Y-83354819D01*
X227241428Y-83354819D02*
X226955714Y-83354819D01*
X226955714Y-83354819D02*
X226860476Y-83307200D01*
X226860476Y-83307200D02*
X226812857Y-83259580D01*
X184947142Y-97164819D02*
X184613809Y-96688628D01*
X184375714Y-97164819D02*
X184375714Y-96164819D01*
X184375714Y-96164819D02*
X184756666Y-96164819D01*
X184756666Y-96164819D02*
X184851904Y-96212438D01*
X184851904Y-96212438D02*
X184899523Y-96260057D01*
X184899523Y-96260057D02*
X184947142Y-96355295D01*
X184947142Y-96355295D02*
X184947142Y-96498152D01*
X184947142Y-96498152D02*
X184899523Y-96593390D01*
X184899523Y-96593390D02*
X184851904Y-96641009D01*
X184851904Y-96641009D02*
X184756666Y-96688628D01*
X184756666Y-96688628D02*
X184375714Y-96688628D01*
X185899523Y-97164819D02*
X185328095Y-97164819D01*
X185613809Y-97164819D02*
X185613809Y-96164819D01*
X185613809Y-96164819D02*
X185518571Y-96307676D01*
X185518571Y-96307676D02*
X185423333Y-96402914D01*
X185423333Y-96402914D02*
X185328095Y-96450533D01*
X186232857Y-96164819D02*
X186851904Y-96164819D01*
X186851904Y-96164819D02*
X186518571Y-96545771D01*
X186518571Y-96545771D02*
X186661428Y-96545771D01*
X186661428Y-96545771D02*
X186756666Y-96593390D01*
X186756666Y-96593390D02*
X186804285Y-96641009D01*
X186804285Y-96641009D02*
X186851904Y-96736247D01*
X186851904Y-96736247D02*
X186851904Y-96974342D01*
X186851904Y-96974342D02*
X186804285Y-97069580D01*
X186804285Y-97069580D02*
X186756666Y-97117200D01*
X186756666Y-97117200D02*
X186661428Y-97164819D01*
X186661428Y-97164819D02*
X186375714Y-97164819D01*
X186375714Y-97164819D02*
X186280476Y-97117200D01*
X186280476Y-97117200D02*
X186232857Y-97069580D01*
X232779580Y-70387857D02*
X232827200Y-70435476D01*
X232827200Y-70435476D02*
X232874819Y-70578333D01*
X232874819Y-70578333D02*
X232874819Y-70673571D01*
X232874819Y-70673571D02*
X232827200Y-70816428D01*
X232827200Y-70816428D02*
X232731961Y-70911666D01*
X232731961Y-70911666D02*
X232636723Y-70959285D01*
X232636723Y-70959285D02*
X232446247Y-71006904D01*
X232446247Y-71006904D02*
X232303390Y-71006904D01*
X232303390Y-71006904D02*
X232112914Y-70959285D01*
X232112914Y-70959285D02*
X232017676Y-70911666D01*
X232017676Y-70911666D02*
X231922438Y-70816428D01*
X231922438Y-70816428D02*
X231874819Y-70673571D01*
X231874819Y-70673571D02*
X231874819Y-70578333D01*
X231874819Y-70578333D02*
X231922438Y-70435476D01*
X231922438Y-70435476D02*
X231970057Y-70387857D01*
X232874819Y-69435476D02*
X232874819Y-70006904D01*
X232874819Y-69721190D02*
X231874819Y-69721190D01*
X231874819Y-69721190D02*
X232017676Y-69816428D01*
X232017676Y-69816428D02*
X232112914Y-69911666D01*
X232112914Y-69911666D02*
X232160533Y-70006904D01*
X232208152Y-68578333D02*
X232874819Y-68578333D01*
X231827200Y-68816428D02*
X232541485Y-69054523D01*
X232541485Y-69054523D02*
X232541485Y-68435476D01*
X183161905Y-60854819D02*
X183161905Y-61664342D01*
X183161905Y-61664342D02*
X183209524Y-61759580D01*
X183209524Y-61759580D02*
X183257143Y-61807200D01*
X183257143Y-61807200D02*
X183352381Y-61854819D01*
X183352381Y-61854819D02*
X183542857Y-61854819D01*
X183542857Y-61854819D02*
X183638095Y-61807200D01*
X183638095Y-61807200D02*
X183685714Y-61759580D01*
X183685714Y-61759580D02*
X183733333Y-61664342D01*
X183733333Y-61664342D02*
X183733333Y-60854819D01*
X184733333Y-61854819D02*
X184161905Y-61854819D01*
X184447619Y-61854819D02*
X184447619Y-60854819D01*
X184447619Y-60854819D02*
X184352381Y-60997676D01*
X184352381Y-60997676D02*
X184257143Y-61092914D01*
X184257143Y-61092914D02*
X184161905Y-61140533D01*
X185685714Y-61854819D02*
X185114286Y-61854819D01*
X185400000Y-61854819D02*
X185400000Y-60854819D01*
X185400000Y-60854819D02*
X185304762Y-60997676D01*
X185304762Y-60997676D02*
X185209524Y-61092914D01*
X185209524Y-61092914D02*
X185114286Y-61140533D01*
X238357142Y-106854819D02*
X238023809Y-106378628D01*
X237785714Y-106854819D02*
X237785714Y-105854819D01*
X237785714Y-105854819D02*
X238166666Y-105854819D01*
X238166666Y-105854819D02*
X238261904Y-105902438D01*
X238261904Y-105902438D02*
X238309523Y-105950057D01*
X238309523Y-105950057D02*
X238357142Y-106045295D01*
X238357142Y-106045295D02*
X238357142Y-106188152D01*
X238357142Y-106188152D02*
X238309523Y-106283390D01*
X238309523Y-106283390D02*
X238261904Y-106331009D01*
X238261904Y-106331009D02*
X238166666Y-106378628D01*
X238166666Y-106378628D02*
X237785714Y-106378628D01*
X238690476Y-105854819D02*
X239309523Y-105854819D01*
X239309523Y-105854819D02*
X238976190Y-106235771D01*
X238976190Y-106235771D02*
X239119047Y-106235771D01*
X239119047Y-106235771D02*
X239214285Y-106283390D01*
X239214285Y-106283390D02*
X239261904Y-106331009D01*
X239261904Y-106331009D02*
X239309523Y-106426247D01*
X239309523Y-106426247D02*
X239309523Y-106664342D01*
X239309523Y-106664342D02*
X239261904Y-106759580D01*
X239261904Y-106759580D02*
X239214285Y-106807200D01*
X239214285Y-106807200D02*
X239119047Y-106854819D01*
X239119047Y-106854819D02*
X238833333Y-106854819D01*
X238833333Y-106854819D02*
X238738095Y-106807200D01*
X238738095Y-106807200D02*
X238690476Y-106759580D01*
X240166666Y-106188152D02*
X240166666Y-106854819D01*
X239928571Y-105807200D02*
X239690476Y-106521485D01*
X239690476Y-106521485D02*
X240309523Y-106521485D01*
X208161905Y-116354819D02*
X208161905Y-117164342D01*
X208161905Y-117164342D02*
X208209524Y-117259580D01*
X208209524Y-117259580D02*
X208257143Y-117307200D01*
X208257143Y-117307200D02*
X208352381Y-117354819D01*
X208352381Y-117354819D02*
X208542857Y-117354819D01*
X208542857Y-117354819D02*
X208638095Y-117307200D01*
X208638095Y-117307200D02*
X208685714Y-117259580D01*
X208685714Y-117259580D02*
X208733333Y-117164342D01*
X208733333Y-117164342D02*
X208733333Y-116354819D01*
X209733333Y-117354819D02*
X209161905Y-117354819D01*
X209447619Y-117354819D02*
X209447619Y-116354819D01*
X209447619Y-116354819D02*
X209352381Y-116497676D01*
X209352381Y-116497676D02*
X209257143Y-116592914D01*
X209257143Y-116592914D02*
X209161905Y-116640533D01*
X210352381Y-116354819D02*
X210447619Y-116354819D01*
X210447619Y-116354819D02*
X210542857Y-116402438D01*
X210542857Y-116402438D02*
X210590476Y-116450057D01*
X210590476Y-116450057D02*
X210638095Y-116545295D01*
X210638095Y-116545295D02*
X210685714Y-116735771D01*
X210685714Y-116735771D02*
X210685714Y-116973866D01*
X210685714Y-116973866D02*
X210638095Y-117164342D01*
X210638095Y-117164342D02*
X210590476Y-117259580D01*
X210590476Y-117259580D02*
X210542857Y-117307200D01*
X210542857Y-117307200D02*
X210447619Y-117354819D01*
X210447619Y-117354819D02*
X210352381Y-117354819D01*
X210352381Y-117354819D02*
X210257143Y-117307200D01*
X210257143Y-117307200D02*
X210209524Y-117259580D01*
X210209524Y-117259580D02*
X210161905Y-117164342D01*
X210161905Y-117164342D02*
X210114286Y-116973866D01*
X210114286Y-116973866D02*
X210114286Y-116735771D01*
X210114286Y-116735771D02*
X210161905Y-116545295D01*
X210161905Y-116545295D02*
X210209524Y-116450057D01*
X210209524Y-116450057D02*
X210257143Y-116402438D01*
X210257143Y-116402438D02*
X210352381Y-116354819D01*
X227689819Y-62350357D02*
X227213628Y-62683690D01*
X227689819Y-62921785D02*
X226689819Y-62921785D01*
X226689819Y-62921785D02*
X226689819Y-62540833D01*
X226689819Y-62540833D02*
X226737438Y-62445595D01*
X226737438Y-62445595D02*
X226785057Y-62397976D01*
X226785057Y-62397976D02*
X226880295Y-62350357D01*
X226880295Y-62350357D02*
X227023152Y-62350357D01*
X227023152Y-62350357D02*
X227118390Y-62397976D01*
X227118390Y-62397976D02*
X227166009Y-62445595D01*
X227166009Y-62445595D02*
X227213628Y-62540833D01*
X227213628Y-62540833D02*
X227213628Y-62921785D01*
X227023152Y-61493214D02*
X227689819Y-61493214D01*
X226642200Y-61731309D02*
X227356485Y-61969404D01*
X227356485Y-61969404D02*
X227356485Y-61350357D01*
X227689819Y-60445595D02*
X227689819Y-61017023D01*
X227689819Y-60731309D02*
X226689819Y-60731309D01*
X226689819Y-60731309D02*
X226832676Y-60826547D01*
X226832676Y-60826547D02*
X226927914Y-60921785D01*
X226927914Y-60921785D02*
X226975533Y-61017023D01*
D13*
%TO.C,D6*%
X177880000Y-53735500D02*
X177880000Y-58305500D01*
X177210000Y-53735500D02*
X177880000Y-53735500D01*
X174610000Y-53735500D02*
X173940000Y-53735500D01*
X173940000Y-53735500D02*
X173940000Y-58305500D01*
X177880000Y-58305500D02*
X177210000Y-58305500D01*
X173940000Y-58305500D02*
X174610000Y-58305500D01*
D14*
X176010000Y-52274500D02*
G75*
G02*
X175810000Y-52274500I-100000J0D01*
G01*
X175810000Y-52274500D02*
G75*
G02*
X176010000Y-52274500I100000J0D01*
G01*
D15*
%TO.C,R39*%
X233665000Y-63369536D02*
X233665000Y-63823664D01*
X235135000Y-63369536D02*
X235135000Y-63823664D01*
%TO.C,C25*%
X207911252Y-98515000D02*
X207388748Y-98515000D01*
X207911252Y-99985000D02*
X207388748Y-99985000D01*
%TO.C,C26*%
X208561252Y-96215000D02*
X208038748Y-96215000D01*
X208561252Y-97685000D02*
X208038748Y-97685000D01*
%TO.C,R25*%
X238585436Y-83715000D02*
X239039564Y-83715000D01*
X238585436Y-85185000D02*
X239039564Y-85185000D01*
%TO.C,R4*%
X131612064Y-81955000D02*
X131157936Y-81955000D01*
X131612064Y-83425000D02*
X131157936Y-83425000D01*
%TO.C,C5*%
X182386252Y-88040000D02*
X181863748Y-88040000D01*
X182386252Y-89510000D02*
X181863748Y-89510000D01*
D13*
%TO.C,U1*%
X230440000Y-62335000D02*
X230440000Y-61085000D01*
X232780000Y-61085000D02*
X232780000Y-62335000D01*
D14*
X231060000Y-63810000D02*
G75*
G02*
X230860000Y-63810000I-100000J0D01*
G01*
X230860000Y-63810000D02*
G75*
G02*
X231060000Y-63810000I100000J0D01*
G01*
D15*
%TO.C,J2*%
X126130000Y-86830000D02*
X126130000Y-81640000D01*
X128890000Y-81640000D02*
X126130000Y-81640000D01*
X128890000Y-86830000D02*
X126130000Y-86830000D01*
X128890000Y-86830000D02*
X128890000Y-81640000D01*
X128890000Y-88100000D02*
X128890000Y-89480000D01*
X128890000Y-89480000D02*
X127510000Y-89480000D01*
%TO.C,R6*%
X138807064Y-74955000D02*
X138352936Y-74955000D01*
X138807064Y-76425000D02*
X138352936Y-76425000D01*
%TO.C,C13*%
X176590000Y-89488748D02*
X176590000Y-90011252D01*
X178060000Y-89488748D02*
X178060000Y-90011252D01*
%TO.C,C12*%
X183015000Y-82868748D02*
X183015000Y-83391252D01*
X184485000Y-82868748D02*
X184485000Y-83391252D01*
%TO.C,R22*%
X238585436Y-89865000D02*
X239039564Y-89865000D01*
X238585436Y-91335000D02*
X239039564Y-91335000D01*
%TO.C,J8*%
X126050000Y-103600000D02*
X126050000Y-98410000D01*
X128810000Y-98410000D02*
X126050000Y-98410000D01*
X128810000Y-103600000D02*
X126050000Y-103600000D01*
X128810000Y-103600000D02*
X128810000Y-98410000D01*
X128810000Y-104870000D02*
X128810000Y-106250000D01*
X128810000Y-106250000D02*
X127430000Y-106250000D01*
%TO.C,D3*%
X180252500Y-94170000D02*
X180252500Y-96090000D01*
X180252500Y-96090000D02*
X182937500Y-96090000D01*
X182937500Y-94170000D02*
X180252500Y-94170000D01*
%TO.C,C39*%
X225135000Y-60938748D02*
X225135000Y-61461252D01*
X226605000Y-60938748D02*
X226605000Y-61461252D01*
%TO.C,C1*%
X175115000Y-80413748D02*
X175115000Y-80936252D01*
X176585000Y-80413748D02*
X176585000Y-80936252D01*
%TO.C,C24*%
X217011252Y-101365000D02*
X216488748Y-101365000D01*
X217011252Y-102835000D02*
X216488748Y-102835000D01*
%TO.C,C16*%
X238241252Y-65745000D02*
X237718748Y-65745000D01*
X238241252Y-67215000D02*
X237718748Y-67215000D01*
%TO.C,R16*%
X191865000Y-53710436D02*
X191865000Y-54164564D01*
X193335000Y-53710436D02*
X193335000Y-54164564D01*
%TO.C,R8*%
X149807064Y-85955000D02*
X149352936Y-85955000D01*
X149807064Y-87425000D02*
X149352936Y-87425000D01*
%TO.C,R3*%
X137845000Y-89962936D02*
X137845000Y-90417064D01*
X139315000Y-89962936D02*
X139315000Y-90417064D01*
%TO.C,R44*%
X138225000Y-95277064D02*
X138225000Y-94822936D01*
X139695000Y-95277064D02*
X139695000Y-94822936D01*
%TO.C,C11*%
X186536252Y-73215000D02*
X186013748Y-73215000D01*
X186536252Y-74685000D02*
X186013748Y-74685000D01*
%TO.C,R23*%
X238585436Y-87815000D02*
X239039564Y-87815000D01*
X238585436Y-89285000D02*
X239039564Y-89285000D01*
%TO.C,C15*%
X235885000Y-70971252D02*
X235885000Y-70448748D01*
X237355000Y-70971252D02*
X237355000Y-70448748D01*
%TO.C,D4*%
X189715000Y-69490000D02*
X189715000Y-71410000D01*
X189715000Y-71410000D02*
X192400000Y-71410000D01*
X192400000Y-69490000D02*
X189715000Y-69490000D01*
%TO.C,R50*%
X151687064Y-100235000D02*
X151232936Y-100235000D01*
X151687064Y-101705000D02*
X151232936Y-101705000D01*
%TO.C,R27*%
X238585436Y-79615000D02*
X239039564Y-79615000D01*
X238585436Y-81085000D02*
X239039564Y-81085000D01*
%TO.C,R46*%
X131667064Y-99055000D02*
X131212936Y-99055000D01*
X131667064Y-100525000D02*
X131212936Y-100525000D01*
%TO.C,D11*%
X127020000Y-90052500D02*
X127020000Y-91362500D01*
X128240000Y-90052500D02*
X127020000Y-90052500D01*
X128240000Y-90052500D02*
X128240000Y-91362500D01*
%TO.C,D2*%
X177770000Y-64420000D02*
X177770000Y-67105000D01*
X177770000Y-67105000D02*
X179690000Y-67105000D01*
X179690000Y-67105000D02*
X179690000Y-64420000D01*
%TO.C,C32*%
X229668748Y-57135000D02*
X230191252Y-57135000D01*
X229668748Y-58605000D02*
X230191252Y-58605000D01*
%TO.C,C27*%
X180490000Y-76782836D02*
X180490000Y-76567164D01*
X181210000Y-76782836D02*
X181210000Y-76567164D01*
%TO.C,R42*%
X181052064Y-81515000D02*
X180597936Y-81515000D01*
X181052064Y-82985000D02*
X180597936Y-82985000D01*
%TO.C,C7*%
X194415000Y-70861252D02*
X194415000Y-70338748D01*
X195885000Y-70861252D02*
X195885000Y-70338748D01*
D16*
%TO.C,U7*%
X202570000Y-107094200D02*
X202570000Y-111005800D01*
X202570000Y-111005800D02*
X212730000Y-111005800D01*
X212730000Y-107094200D02*
X202570000Y-107094200D01*
X212730000Y-107094200D02*
X212730000Y-108415000D01*
D17*
X212730000Y-107449800D02*
X202570000Y-107449800D01*
D16*
X212730000Y-109685000D02*
X212730000Y-111005800D01*
X212730000Y-109685000D02*
G75*
G02*
X212730000Y-108415000I0J635000D01*
G01*
D15*
%TO.C,R9*%
X180865000Y-72977064D02*
X180865000Y-72522936D01*
X182335000Y-72977064D02*
X182335000Y-72522936D01*
%TO.C,R40*%
X181822936Y-85615000D02*
X182277064Y-85615000D01*
X181822936Y-87085000D02*
X182277064Y-87085000D01*
%TO.C,D7*%
X232930000Y-71480000D02*
X228920000Y-71480000D01*
X232930000Y-73480000D02*
X228920000Y-73480000D01*
X232930000Y-73480000D02*
X232930000Y-71480000D01*
%TO.C,D9*%
X129610000Y-81457500D02*
X129610000Y-80147500D01*
X129610000Y-81457500D02*
X130830000Y-81457500D01*
X130830000Y-81457500D02*
X130830000Y-80147500D01*
D13*
%TO.C,U5*%
X174475000Y-73895000D02*
X174475000Y-71555000D01*
X179375000Y-73895000D02*
X179375000Y-71555000D01*
D14*
X175120000Y-76975000D02*
G75*
G02*
X174920000Y-76975000I-100000J0D01*
G01*
X174920000Y-76975000D02*
G75*
G02*
X175120000Y-76975000I100000J0D01*
G01*
D15*
%TO.C,R1*%
X190965000Y-58360436D02*
X190965000Y-58814564D01*
X192435000Y-58360436D02*
X192435000Y-58814564D01*
%TO.C,R33*%
X238772936Y-109365000D02*
X239227064Y-109365000D01*
X238772936Y-110835000D02*
X239227064Y-110835000D01*
%TO.C,FB1*%
X169477000Y-88270000D02*
G75*
G02*
X169477000Y-85730000I508000J1270000D01*
G01*
X170224932Y-84699932D02*
G75*
G02*
X175065000Y-84968000I2300068J-2300068D01*
G01*
X175049465Y-89019572D02*
G75*
G02*
X170239000Y-89286000I-2524465J2019572D01*
G01*
X175573000Y-85730000D02*
G75*
G02*
X175573000Y-88270000I-508000J-1270000D01*
G01*
D13*
%TO.C,D13*%
X200330000Y-57295000D02*
X201000000Y-57295000D01*
X200330000Y-61865000D02*
X200330000Y-57295000D01*
X201000000Y-61865000D02*
X200330000Y-61865000D01*
X203600000Y-61865000D02*
X204270000Y-61865000D01*
X204270000Y-57295000D02*
X203600000Y-57295000D01*
X204270000Y-61865000D02*
X204270000Y-57295000D01*
D14*
X202400000Y-63326000D02*
G75*
G02*
X202200000Y-63326000I-100000J0D01*
G01*
X202200000Y-63326000D02*
G75*
G02*
X202400000Y-63326000I100000J0D01*
G01*
D15*
%TO.C,R49*%
X144845000Y-96912936D02*
X144845000Y-97367064D01*
X146315000Y-96912936D02*
X146315000Y-97367064D01*
%TO.C,R43*%
X142037064Y-95065000D02*
X141582936Y-95065000D01*
X142037064Y-96535000D02*
X141582936Y-96535000D01*
%TO.C,C3*%
X218615000Y-107338748D02*
X218615000Y-107861252D01*
X220085000Y-107338748D02*
X220085000Y-107861252D01*
%TO.C,R15*%
X164950436Y-79595000D02*
X165404564Y-79595000D01*
X164950436Y-81065000D02*
X165404564Y-81065000D01*
%TO.C,J13*%
X193635000Y-124220000D02*
X193635000Y-129420000D01*
X203855000Y-126820000D02*
X203855000Y-129420000D01*
X203855000Y-129420000D02*
X193635000Y-129420000D01*
X206455000Y-124220000D02*
X193635000Y-124220000D01*
X206455000Y-124220000D02*
X206455000Y-126820000D01*
X206455000Y-126820000D02*
X203855000Y-126820000D01*
X206455000Y-128090000D02*
X206455000Y-129420000D01*
X206455000Y-129420000D02*
X205125000Y-129420000D01*
%TO.C,R35*%
X238772936Y-105265000D02*
X239227064Y-105265000D01*
X238772936Y-106735000D02*
X239227064Y-106735000D01*
%TO.C,R48*%
X138225000Y-105692936D02*
X138225000Y-106147064D01*
X139695000Y-105692936D02*
X139695000Y-106147064D01*
%TO.C,SW1*%
X169325000Y-79205000D02*
X169325000Y-79305000D01*
X169325000Y-81005000D02*
X173725000Y-81005000D01*
X173725000Y-77505000D02*
X169325000Y-77505000D01*
X173725000Y-79205000D02*
X173725000Y-79305000D01*
%TO.C,C22*%
X206138748Y-80915000D02*
X206661252Y-80915000D01*
X206138748Y-82385000D02*
X206661252Y-82385000D01*
%TO.C,J3*%
X197390000Y-66910000D02*
X197390000Y-65800000D01*
X198500000Y-66910000D02*
X197390000Y-66910000D01*
X199500000Y-64690000D02*
X215610000Y-64690000D01*
X199500000Y-66910000D02*
X199500000Y-64690000D01*
X199500000Y-66910000D02*
X215610000Y-66910000D01*
X215610000Y-66910000D02*
X215610000Y-64690000D01*
%TO.C,J10*%
X151145000Y-95670000D02*
X152525000Y-95670000D01*
X151145000Y-97050000D02*
X151145000Y-95670000D01*
X151145000Y-98320000D02*
X151145000Y-98430000D01*
X151145000Y-98320000D02*
X153905000Y-98320000D01*
X151145000Y-98430000D02*
X153905000Y-98430000D01*
X153905000Y-98320000D02*
X153905000Y-98430000D01*
%TO.C,D5*%
X206070000Y-57290000D02*
X206070000Y-58510000D01*
X206070000Y-58510000D02*
X207885000Y-58510000D01*
X207885000Y-57290000D02*
X206070000Y-57290000D01*
%TO.C,J4*%
X194770000Y-53130000D02*
X194770000Y-54680000D01*
X195070000Y-50330000D02*
X195070000Y-53130000D01*
X195070000Y-53130000D02*
X194770000Y-53130000D01*
X199820000Y-56380000D02*
X200220000Y-55930000D01*
X200220000Y-55930000D02*
X200620000Y-56380000D01*
X200620000Y-56380000D02*
X199820000Y-56380000D01*
X202770000Y-50330000D02*
X202770000Y-53130000D01*
X203070000Y-53130000D02*
X202770000Y-53130000D01*
X203070000Y-53130000D02*
X203070000Y-54680000D01*
%TO.C,U4*%
X143970000Y-90190000D02*
X143970000Y-88690000D01*
X143970000Y-90190000D02*
X143970000Y-91690000D01*
X147190000Y-90190000D02*
X147190000Y-88690000D01*
X147190000Y-90190000D02*
X147190000Y-91690000D01*
X147395000Y-88217500D02*
X147065000Y-87977500D01*
X147395000Y-87737500D01*
X147395000Y-88217500D01*
G36*
X147395000Y-88217500D02*
G01*
X147065000Y-87977500D01*
X147395000Y-87737500D01*
X147395000Y-88217500D01*
G37*
%TO.C,R7*%
X145345000Y-82962936D02*
X145345000Y-83417064D01*
X146815000Y-82962936D02*
X146815000Y-83417064D01*
%TO.C,C20*%
X172395000Y-61358748D02*
X172395000Y-61881252D01*
X173865000Y-61358748D02*
X173865000Y-61881252D01*
%TO.C,C2*%
X183661252Y-90990000D02*
X183138748Y-90990000D01*
X183661252Y-92460000D02*
X183138748Y-92460000D01*
%TO.C,R14*%
X191615000Y-74014564D02*
X191615000Y-73560436D01*
X193085000Y-74014564D02*
X193085000Y-73560436D01*
%TO.C,C35*%
X178082836Y-81565000D02*
X177867164Y-81565000D01*
X178082836Y-82285000D02*
X177867164Y-82285000D01*
D13*
%TO.C,D8*%
X139177500Y-121505000D02*
X143747500Y-121505000D01*
X139177500Y-122175000D02*
X139177500Y-121505000D01*
X139177500Y-124775000D02*
X139177500Y-125445000D01*
X139177500Y-125445000D02*
X143747500Y-125445000D01*
X143747500Y-121505000D02*
X143747500Y-122175000D01*
X143747500Y-125445000D02*
X143747500Y-124775000D01*
D14*
X137816500Y-123475000D02*
G75*
G02*
X137616500Y-123475000I-100000J0D01*
G01*
X137616500Y-123475000D02*
G75*
G02*
X137816500Y-123475000I100000J0D01*
G01*
D15*
%TO.C,Y2*%
X181985000Y-77815000D02*
X177865000Y-77815000D01*
X181985000Y-81135000D02*
X181985000Y-77815000D01*
%TO.C,C10*%
X211888748Y-72590000D02*
X212411252Y-72590000D01*
X211888748Y-74060000D02*
X212411252Y-74060000D01*
%TO.C,R37*%
X196777064Y-107965000D02*
X196322936Y-107965000D01*
X196777064Y-109435000D02*
X196322936Y-109435000D01*
%TO.C,U12*%
X133750000Y-104990000D02*
X133750000Y-103490000D01*
X133750000Y-104990000D02*
X133750000Y-106490000D01*
X136970000Y-104990000D02*
X136970000Y-103490000D01*
X136970000Y-104990000D02*
X136970000Y-106490000D01*
X137175000Y-103017500D02*
X136845000Y-102777500D01*
X137175000Y-102537500D01*
X137175000Y-103017500D01*
G36*
X137175000Y-103017500D02*
G01*
X136845000Y-102777500D01*
X137175000Y-102537500D01*
X137175000Y-103017500D01*
G37*
%TO.C,U13*%
X143590000Y-103070000D02*
X143590000Y-101570000D01*
X143590000Y-103070000D02*
X143590000Y-104570000D01*
X146810000Y-103070000D02*
X146810000Y-101570000D01*
X146810000Y-103070000D02*
X146810000Y-104570000D01*
X147015000Y-101097500D02*
X146685000Y-100857500D01*
X147015000Y-100617500D01*
X147015000Y-101097500D01*
G36*
X147015000Y-101097500D02*
G01*
X146685000Y-100857500D01*
X147015000Y-100617500D01*
X147015000Y-101097500D01*
G37*
%TO.C,R2*%
X177945000Y-61230436D02*
X177945000Y-61684564D01*
X179415000Y-61230436D02*
X179415000Y-61684564D01*
%TO.C,D1*%
X190790000Y-62262500D02*
X190790000Y-64947500D01*
X190790000Y-64947500D02*
X192710000Y-64947500D01*
X192710000Y-64947500D02*
X192710000Y-62262500D01*
%TO.C,R38*%
X209027064Y-83415000D02*
X208572936Y-83415000D01*
X209027064Y-84885000D02*
X208572936Y-84885000D01*
%TO.C,J7*%
X162950000Y-106050000D02*
X162950000Y-126250000D01*
X162950000Y-129050000D02*
X162950000Y-129150000D01*
X163150000Y-106050000D02*
X162950000Y-106050000D01*
X163650000Y-129850000D02*
X162950000Y-129150000D01*
X163650000Y-129850000D02*
X165850000Y-129850000D01*
X166550000Y-106050000D02*
X164350000Y-106050000D01*
X166550000Y-129150000D02*
X165850000Y-129850000D01*
X166550000Y-129150000D02*
X166550000Y-122850000D01*
X168250000Y-106050000D02*
X167850000Y-106050000D01*
X168450000Y-120950000D02*
X166550000Y-122850000D01*
X168450000Y-120950000D02*
X185450000Y-120950000D01*
X170650000Y-106050000D02*
X169550000Y-106050000D01*
X173150000Y-106050000D02*
X171950000Y-106050000D01*
X175650000Y-106050000D02*
X174450000Y-106050000D01*
X177350000Y-106050000D02*
X176950000Y-106050000D01*
X178950000Y-106050000D02*
X178650000Y-106050000D01*
X180650000Y-106050000D02*
X180250000Y-106050000D01*
X183150000Y-106050000D02*
X181950000Y-106050000D01*
X185450000Y-120950000D02*
X187350000Y-122850000D01*
X185650000Y-106050000D02*
X184450000Y-106050000D01*
X187350000Y-129150000D02*
X187350000Y-122850000D01*
X187350000Y-129150000D02*
X188050000Y-129850000D01*
X189950000Y-106050000D02*
X186950000Y-106050000D01*
X189950000Y-123150000D02*
X189950000Y-106050000D01*
X190250000Y-129850000D02*
X188050000Y-129850000D01*
X190250000Y-129850000D02*
X190950000Y-129150000D01*
X190950000Y-123850000D02*
X189950000Y-123150000D01*
X190950000Y-123850000D02*
X190950000Y-125050000D01*
X190950000Y-127750000D02*
X190950000Y-129150000D01*
D16*
%TO.C,L1*%
X223670300Y-65022400D02*
X223670300Y-70381800D01*
X223670300Y-70381800D02*
X224048550Y-70381800D01*
X224048550Y-65022400D02*
X223670300Y-65022400D01*
X228651450Y-70381800D02*
X229029700Y-70381800D01*
X229029700Y-65022400D02*
X228651450Y-65022400D01*
X229029700Y-70381800D02*
X229029700Y-65022400D01*
X226426200Y-64387400D02*
G75*
G02*
X226273800Y-64387400I-76200J0D01*
G01*
X226273800Y-64387400D02*
G75*
G02*
X226426200Y-64387400I76200J0D01*
G01*
D15*
%TO.C,R36*%
X238760436Y-103215000D02*
X239214564Y-103215000D01*
X238760436Y-104685000D02*
X239214564Y-104685000D01*
%TO.C,J12*%
X152970000Y-85420000D02*
X154350000Y-85420000D01*
X152970000Y-86800000D02*
X152970000Y-85420000D01*
X152970000Y-88070000D02*
X152970000Y-88180000D01*
X152970000Y-88070000D02*
X155730000Y-88070000D01*
X152970000Y-88180000D02*
X155730000Y-88180000D01*
X155730000Y-88070000D02*
X155730000Y-88180000D01*
%TO.C,R47*%
X134135000Y-96627064D02*
X134135000Y-96172936D01*
X135605000Y-96627064D02*
X135605000Y-96172936D01*
%TO.C,C6*%
X204838748Y-85315000D02*
X205361252Y-85315000D01*
X204838748Y-86785000D02*
X205361252Y-86785000D01*
%TO.C,J6*%
X150987500Y-113025000D02*
X157187500Y-113025000D01*
X150987500Y-121925000D02*
X150987500Y-113025000D01*
X150987500Y-127725000D02*
X150987500Y-124525000D01*
X151487500Y-127725000D02*
X150987500Y-127725000D01*
X151487500Y-130225000D02*
X151487500Y-127725000D01*
X156687500Y-127725000D02*
X156687500Y-130225000D01*
X156687500Y-130225000D02*
X151487500Y-130225000D01*
X157187500Y-113025000D02*
X157187500Y-114225000D01*
X157187500Y-117425000D02*
X157187500Y-123925000D01*
X157187500Y-123925000D02*
X159187500Y-123925000D01*
X157187500Y-126525000D02*
X157187500Y-127725000D01*
X157187500Y-126525000D02*
X159187500Y-126525000D01*
X157187500Y-127725000D02*
X156687500Y-127725000D01*
D14*
%TO.C,U3*%
X213200000Y-86100000D02*
X213200000Y-98600000D01*
X213200000Y-98600000D02*
X225700000Y-98600000D01*
X225700000Y-86100000D02*
X213200000Y-86100000D01*
X225700000Y-98600000D02*
X225700000Y-86100000D01*
D18*
X211454000Y-85468000D02*
G75*
G02*
X211754000Y-85466500I150004J-4D01*
G01*
X211754000Y-85469000D02*
G75*
G02*
X211454001Y-85468000I-149998J999D01*
G01*
D19*
X213899500Y-87102500D02*
G75*
G02*
X214499500Y-87100000I300005J-6D01*
G01*
X214499500Y-87105000D02*
G75*
G02*
X213899500Y-87102500I-299995J2495D01*
G01*
D15*
%TO.C,J11*%
X126020000Y-76920000D02*
X127400000Y-76920000D01*
X126020000Y-78300000D02*
X126020000Y-76920000D01*
X126020000Y-79570000D02*
X126020000Y-79680000D01*
X126020000Y-79570000D02*
X128780000Y-79570000D01*
X126020000Y-79680000D02*
X128780000Y-79680000D01*
X128780000Y-79570000D02*
X128780000Y-79680000D01*
%TO.C,C9*%
X184463748Y-75290000D02*
X184986252Y-75290000D01*
X184463748Y-76760000D02*
X184986252Y-76760000D01*
%TO.C,R26*%
X238572936Y-81665000D02*
X239027064Y-81665000D01*
X238572936Y-83135000D02*
X239027064Y-83135000D01*
%TO.C,C38*%
X171915000Y-70938748D02*
X171915000Y-71461252D01*
X173385000Y-70938748D02*
X173385000Y-71461252D01*
%TO.C,U6*%
X186515000Y-77215000D02*
X186515000Y-77915000D01*
X186515000Y-91435000D02*
X186515000Y-90735000D01*
X187215000Y-77215000D02*
X186515000Y-77215000D01*
X187215000Y-91435000D02*
X186515000Y-91435000D01*
X200035000Y-77215000D02*
X200735000Y-77215000D01*
X200035000Y-91435000D02*
X200735000Y-91435000D01*
X200735000Y-77215000D02*
X200735000Y-77915000D01*
X200735000Y-91435000D02*
X200735000Y-90735000D01*
X185887500Y-77915000D02*
X185547500Y-77445000D01*
X186227500Y-77445000D01*
X185887500Y-77915000D01*
G36*
X185887500Y-77915000D02*
G01*
X185547500Y-77445000D01*
X186227500Y-77445000D01*
X185887500Y-77915000D01*
G37*
%TO.C,J9*%
X126020000Y-94470000D02*
X127400000Y-94470000D01*
X126020000Y-95850000D02*
X126020000Y-94470000D01*
X126020000Y-97120000D02*
X126020000Y-97230000D01*
X126020000Y-97120000D02*
X128780000Y-97120000D01*
X126020000Y-97230000D02*
X128780000Y-97230000D01*
X128780000Y-97120000D02*
X128780000Y-97230000D01*
%TO.C,R45*%
X136735000Y-99362936D02*
X136735000Y-99817064D01*
X138205000Y-99362936D02*
X138205000Y-99817064D01*
%TO.C,C21*%
X211461252Y-80915000D02*
X210938748Y-80915000D01*
X211461252Y-82385000D02*
X210938748Y-82385000D01*
%TO.C,C19*%
X193565000Y-58338748D02*
X193565000Y-58861252D01*
X195035000Y-58338748D02*
X195035000Y-58861252D01*
%TO.C,D12*%
X129820000Y-98337500D02*
X129820000Y-97027500D01*
X129820000Y-98337500D02*
X131040000Y-98337500D01*
X131040000Y-98337500D02*
X131040000Y-97027500D01*
%TO.C,D10*%
X126650000Y-106712500D02*
X126650000Y-108022500D01*
X127870000Y-106712500D02*
X126650000Y-106712500D01*
X127870000Y-106712500D02*
X127870000Y-108022500D01*
%TO.C,R11*%
X137345000Y-80962936D02*
X137345000Y-81417064D01*
X138815000Y-80962936D02*
X138815000Y-81417064D01*
%TO.C,R10*%
X184890000Y-69247936D02*
X184890000Y-69702064D01*
X186360000Y-69247936D02*
X186360000Y-69702064D01*
%TO.C,C17*%
X185461252Y-63215000D02*
X184938748Y-63215000D01*
X185461252Y-64685000D02*
X184938748Y-64685000D01*
%TO.C,U2*%
X133470000Y-87190000D02*
X133470000Y-85690000D01*
X133470000Y-87190000D02*
X133470000Y-88690000D01*
X136690000Y-87190000D02*
X136690000Y-85690000D01*
X136690000Y-87190000D02*
X136690000Y-88690000D01*
X136895000Y-85217500D02*
X136565000Y-84977500D01*
X136895000Y-84737500D01*
X136895000Y-85217500D01*
G36*
X136895000Y-85217500D02*
G01*
X136565000Y-84977500D01*
X136895000Y-84737500D01*
X136895000Y-85217500D01*
G37*
%TO.C,Y1*%
X206090000Y-75890000D02*
X206090000Y-80510000D01*
X206090000Y-80510000D02*
X211610000Y-80510000D01*
%TO.C,R5*%
X142807064Y-74955000D02*
X142352936Y-74955000D01*
X142807064Y-76425000D02*
X142352936Y-76425000D01*
%TO.C,C4*%
X204188748Y-87515000D02*
X204711252Y-87515000D01*
X204188748Y-88985000D02*
X204711252Y-88985000D01*
%TO.C,R12*%
X133345000Y-79829564D02*
X133345000Y-79375436D01*
X134815000Y-79829564D02*
X134815000Y-79375436D01*
%TO.C,C33*%
X225195000Y-80081252D02*
X225195000Y-79558748D01*
X226665000Y-80081252D02*
X226665000Y-79558748D01*
%TO.C,R13*%
X185817064Y-94325000D02*
X185362936Y-94325000D01*
X185817064Y-95795000D02*
X185362936Y-95795000D01*
%TO.C,C14*%
X233635000Y-70981252D02*
X233635000Y-70458748D01*
X235105000Y-70981252D02*
X235105000Y-70458748D01*
%TO.C,U11*%
X182490000Y-53490000D02*
X182490000Y-54750000D01*
X182490000Y-60310000D02*
X182490000Y-59050000D01*
X186250000Y-53490000D02*
X182490000Y-53490000D01*
X186250000Y-60310000D02*
X182490000Y-60310000D01*
X187770000Y-60540000D02*
X187290000Y-60540000D01*
X187530000Y-60210000D01*
X187770000Y-60540000D01*
G36*
X187770000Y-60540000D02*
G01*
X187290000Y-60540000D01*
X187530000Y-60210000D01*
X187770000Y-60540000D01*
G37*
%TO.C,R34*%
X238772936Y-107315000D02*
X239227064Y-107315000D01*
X238772936Y-108785000D02*
X239227064Y-108785000D01*
%TO.C,R24*%
X238585436Y-85765000D02*
X239039564Y-85765000D01*
X238585436Y-87235000D02*
X239039564Y-87235000D01*
%TO.C,U10*%
X209170000Y-117797500D02*
X208370000Y-117797500D01*
X209170000Y-117797500D02*
X209970000Y-117797500D01*
X209170000Y-120917500D02*
X208370000Y-120917500D01*
X209170000Y-120917500D02*
X209970000Y-120917500D01*
X207870000Y-117847500D02*
X207630000Y-117517500D01*
X208110000Y-117517500D01*
X207870000Y-117847500D01*
G36*
X207870000Y-117847500D02*
G01*
X207630000Y-117517500D01*
X208110000Y-117517500D01*
X207870000Y-117847500D01*
G37*
%TO.C,R41*%
X228175000Y-61859564D02*
X228175000Y-61405436D01*
X229645000Y-61859564D02*
X229645000Y-61405436D01*
%TD*%
M02*
