%TF.GenerationSoftware,KiCad,Pcbnew,9.0.6*%
%TF.CreationDate,2026-03-13T13:57:13-04:00*%
%TF.ProjectId,senior_design,73656e69-6f72-45f6-9465-7369676e2e6b,rev?*%
%TF.SameCoordinates,Original*%
%TF.FileFunction,Soldermask,Bot*%
%TF.FilePolarity,Negative*%
%FSLAX46Y46*%
G04 Gerber Fmt 4.6, Leading zero omitted, Abs format (unit mm)*
G04 Created by KiCad (PCBNEW 9.0.6) date 2026-03-13 13:57:13*
%MOMM*%
%LPD*%
G01*
G04 APERTURE LIST*
G04 Aperture macros list*
%AMRoundRect*
0 Rectangle with rounded corners*
0 $1 Rounding radius*
0 $2 $3 $4 $5 $6 $7 $8 $9 X,Y pos of 4 corners*
0 Add a 4 corners polygon primitive as box body*
4,1,4,$2,$3,$4,$5,$6,$7,$8,$9,$2,$3,0*
0 Add four circle primitives for the rounded corners*
1,1,$1+$1,$2,$3*
1,1,$1+$1,$4,$5*
1,1,$1+$1,$6,$7*
1,1,$1+$1,$8,$9*
0 Add four rect primitives between the rounded corners*
20,1,$1+$1,$2,$3,$4,$5,0*
20,1,$1+$1,$4,$5,$6,$7,0*
20,1,$1+$1,$6,$7,$8,$9,0*
20,1,$1+$1,$8,$9,$2,$3,0*%
G04 Aperture macros list end*
%ADD10R,1.700000X1.700000*%
%ADD11C,1.700000*%
%ADD12C,3.200000*%
%ADD13C,2.000000*%
%ADD14R,1.350000X1.350000*%
%ADD15C,1.350000*%
%ADD16O,1.350000X1.700000*%
%ADD17O,1.100000X1.500000*%
%ADD18C,1.500000*%
%ADD19RoundRect,0.250000X-0.262500X-0.450000X0.262500X-0.450000X0.262500X0.450000X-0.262500X0.450000X0*%
%ADD20RoundRect,0.250000X0.337500X0.475000X-0.337500X0.475000X-0.337500X-0.475000X0.337500X-0.475000X0*%
%ADD21RoundRect,0.250000X0.475000X-0.250000X0.475000X0.250000X-0.475000X0.250000X-0.475000X-0.250000X0*%
%ADD22RoundRect,0.250000X-0.475000X0.337500X-0.475000X-0.337500X0.475000X-0.337500X0.475000X0.337500X0*%
%ADD23RoundRect,0.250000X-0.250000X-0.475000X0.250000X-0.475000X0.250000X0.475000X-0.250000X0.475000X0*%
%ADD24R,1.300000X0.300000*%
%ADD25R,2.200000X1.800000*%
%ADD26RoundRect,0.250000X-0.450000X0.350000X-0.450000X-0.350000X0.450000X-0.350000X0.450000X0.350000X0*%
%ADD27RoundRect,0.250000X0.250000X0.475000X-0.250000X0.475000X-0.250000X-0.475000X0.250000X-0.475000X0*%
G04 APERTURE END LIST*
D10*
%TO.C,J2*%
X127510000Y-88100000D03*
D11*
X127510000Y-85560000D03*
X127510000Y-83020000D03*
%TD*%
D12*
%TO.C,REF\u002A\u002A*%
X130220000Y-125660000D03*
%TD*%
D10*
%TO.C,J8*%
X127430000Y-104870000D03*
D11*
X127430000Y-102330000D03*
X127430000Y-99790000D03*
%TD*%
D12*
%TO.C,REF\u002A\u002A*%
X249320000Y-126150000D03*
%TD*%
D13*
%TO.C,FB1*%
X169985000Y-87000000D03*
X175065000Y-87000000D03*
%TD*%
D10*
%TO.C,J13*%
X205125000Y-128090000D03*
D11*
X205125000Y-125550000D03*
X202585000Y-128090000D03*
X202585000Y-125550000D03*
X200045000Y-128090000D03*
X200045000Y-125550000D03*
X197505000Y-128090000D03*
X197505000Y-125550000D03*
X194965000Y-128090000D03*
X194965000Y-125550000D03*
%TD*%
D14*
%TO.C,J3*%
X198500000Y-65800000D03*
D15*
X200500000Y-65800000D03*
X202500000Y-65800000D03*
X204500000Y-65800000D03*
X206500000Y-65800000D03*
X208500000Y-65800000D03*
X210500000Y-65800000D03*
X212500000Y-65800000D03*
X214500000Y-65800000D03*
%TD*%
D10*
%TO.C,J10*%
X152525000Y-97050000D03*
%TD*%
D16*
%TO.C,J4*%
X201650000Y-51950000D03*
D17*
X201340000Y-54950000D03*
X196500000Y-54950000D03*
D16*
X196190000Y-51950000D03*
%TD*%
D18*
%TO.C,J7*%
X164850000Y-112450000D03*
X189050000Y-112450000D03*
%TD*%
D10*
%TO.C,J12*%
X154350000Y-86800000D03*
%TD*%
D11*
%TO.C,J6*%
X154087500Y-124125000D03*
X154087500Y-117125000D03*
%TD*%
D10*
%TO.C,J11*%
X127400000Y-78300000D03*
%TD*%
D12*
%TO.C,REF\u002A\u002A*%
X249270000Y-54530000D03*
%TD*%
D10*
%TO.C,J9*%
X127400000Y-95850000D03*
%TD*%
D12*
%TO.C,REF\u002A\u002A*%
X130080000Y-54430000D03*
%TD*%
D19*
%TO.C,R31*%
X237887500Y-79150000D03*
X239712500Y-79150000D03*
%TD*%
D20*
%TO.C,C36*%
X156962500Y-109275000D03*
X154887500Y-109275000D03*
%TD*%
D21*
%TO.C,C30*%
X218000000Y-97000000D03*
X218000000Y-95100000D03*
%TD*%
D19*
%TO.C,R20*%
X238087500Y-101900000D03*
X239912500Y-101900000D03*
%TD*%
%TO.C,R28*%
X237887500Y-85300000D03*
X239712500Y-85300000D03*
%TD*%
D21*
%TO.C,C23*%
X223250000Y-78300000D03*
X223250000Y-76400000D03*
%TD*%
D22*
%TO.C,C37*%
X161100000Y-111350000D03*
X161100000Y-113425000D03*
%TD*%
D23*
%TO.C,C18*%
X231200000Y-90950000D03*
X233100000Y-90950000D03*
%TD*%
D24*
%TO.C,J5*%
X246550000Y-78500000D03*
X246550000Y-79000000D03*
X246550000Y-79500000D03*
X246550000Y-80000000D03*
X246550000Y-80500000D03*
X246550000Y-81000000D03*
X246550000Y-81500000D03*
X246550000Y-82000000D03*
X246550000Y-82500000D03*
X246550000Y-83000000D03*
X246550000Y-83500000D03*
X246550000Y-84000000D03*
X246550000Y-84500000D03*
X246550000Y-85000000D03*
X246550000Y-85500000D03*
X246550000Y-86000000D03*
X246550000Y-86500000D03*
X246550000Y-87000000D03*
X246550000Y-87500000D03*
X246550000Y-88000000D03*
X246550000Y-88500000D03*
X246550000Y-89000000D03*
X246550000Y-89500000D03*
X246550000Y-90000000D03*
X246550000Y-90500000D03*
X246550000Y-91000000D03*
X246550000Y-91500000D03*
X246550000Y-92000000D03*
X246550000Y-92500000D03*
X246550000Y-93000000D03*
X246550000Y-93500000D03*
X246550000Y-94000000D03*
X246550000Y-94500000D03*
X246550000Y-95000000D03*
X246550000Y-95500000D03*
X246550000Y-96000000D03*
X246550000Y-96500000D03*
X246550000Y-97000000D03*
X246550000Y-97500000D03*
X246550000Y-98000000D03*
D25*
X249800000Y-76600000D03*
X249800000Y-99900000D03*
%TD*%
D19*
%TO.C,R30*%
X237887500Y-81200000D03*
X239712500Y-81200000D03*
%TD*%
D26*
%TO.C,R51*%
X161075000Y-107325000D03*
X161075000Y-109325000D03*
%TD*%
D19*
%TO.C,R19*%
X238087500Y-97800000D03*
X239912500Y-97800000D03*
%TD*%
D23*
%TO.C,C29*%
X216000000Y-87650000D03*
X217900000Y-87650000D03*
%TD*%
%TO.C,C34*%
X217100000Y-90350000D03*
X219000000Y-90350000D03*
%TD*%
%TO.C,C8*%
X204530000Y-84180000D03*
X206430000Y-84180000D03*
%TD*%
D19*
%TO.C,R32*%
X237887500Y-77100000D03*
X239712500Y-77100000D03*
%TD*%
%TO.C,R18*%
X238087500Y-99850000D03*
X239912500Y-99850000D03*
%TD*%
%TO.C,R21*%
X238087500Y-95750000D03*
X239912500Y-95750000D03*
%TD*%
%TO.C,R17*%
X238087500Y-103950000D03*
X239912500Y-103950000D03*
%TD*%
D23*
%TO.C,C31*%
X230650000Y-93700000D03*
X232550000Y-93700000D03*
%TD*%
D19*
%TO.C,R29*%
X237887500Y-83250000D03*
X239712500Y-83250000D03*
%TD*%
D27*
%TO.C,C28*%
X208100000Y-92450000D03*
X206200000Y-92450000D03*
%TD*%
M02*
