%TF.GenerationSoftware,KiCad,Pcbnew,9.0.6*%
%TF.CreationDate,2026-03-13T13:57:13-04:00*%
%TF.ProjectId,senior_design,73656e69-6f72-45f6-9465-7369676e2e6b,rev?*%
%TF.SameCoordinates,Original*%
%TF.FileFunction,Paste,Top*%
%TF.FilePolarity,Positive*%
%FSLAX46Y46*%
G04 Gerber Fmt 4.6, Leading zero omitted, Abs format (unit mm)*
G04 Created by KiCad (PCBNEW 9.0.6) date 2026-03-13 13:57:13*
%MOMM*%
%LPD*%
G01*
G04 APERTURE LIST*
G04 Aperture macros list*
%AMRoundRect*
0 Rectangle with rounded corners*
0 $1 Rounding radius*
0 $2 $3 $4 $5 $6 $7 $8 $9 X,Y pos of 4 corners*
0 Add a 4 corners polygon primitive as box body*
4,1,4,$2,$3,$4,$5,$6,$7,$8,$9,$2,$3,0*
0 Add four circle primitives for the rounded corners*
1,1,$1+$1,$2,$3*
1,1,$1+$1,$4,$5*
1,1,$1+$1,$6,$7*
1,1,$1+$1,$8,$9*
0 Add four rect primitives between the rounded corners*
20,1,$1+$1,$2,$3,$4,$5,0*
20,1,$1+$1,$4,$5,$6,$7,0*
20,1,$1+$1,$6,$7,$8,$9,0*
20,1,$1+$1,$8,$9,$2,$3,0*%
G04 Aperture macros list end*
%ADD10RoundRect,0.159750X-0.905250X0.950250X-0.905250X-0.950250X0.905250X-0.950250X0.905250X0.950250X0*%
%ADD11RoundRect,0.250000X-0.450000X0.262500X-0.450000X-0.262500X0.450000X-0.262500X0.450000X0.262500X0*%
%ADD12RoundRect,0.250000X0.250000X0.475000X-0.250000X0.475000X-0.250000X-0.475000X0.250000X-0.475000X0*%
%ADD13RoundRect,0.250000X-0.262500X-0.450000X0.262500X-0.450000X0.262500X0.450000X-0.262500X0.450000X0*%
%ADD14RoundRect,0.250000X0.262500X0.450000X-0.262500X0.450000X-0.262500X-0.450000X0.262500X-0.450000X0*%
%ADD15RoundRect,0.050000X0.150000X-0.545000X0.150000X0.545000X-0.150000X0.545000X-0.150000X-0.545000X0*%
%ADD16RoundRect,0.250000X-0.475000X0.250000X-0.475000X-0.250000X0.475000X-0.250000X0.475000X0.250000X0*%
%ADD17RoundRect,0.243750X-0.243750X-0.456250X0.243750X-0.456250X0.243750X0.456250X-0.243750X0.456250X0*%
%ADD18RoundRect,0.250000X0.450000X-0.262500X0.450000X0.262500X-0.450000X0.262500X-0.450000X-0.262500X0*%
%ADD19RoundRect,0.250000X0.475000X-0.250000X0.475000X0.250000X-0.475000X0.250000X-0.475000X-0.250000X0*%
%ADD20RoundRect,0.050000X-0.250000X0.100000X-0.250000X-0.100000X0.250000X-0.100000X0.250000X0.100000X0*%
%ADD21RoundRect,0.243750X0.456250X-0.243750X0.456250X0.243750X-0.456250X0.243750X-0.456250X-0.243750X0*%
%ADD22RoundRect,0.250000X-0.250000X-0.475000X0.250000X-0.475000X0.250000X0.475000X-0.250000X0.475000X0*%
%ADD23RoundRect,0.140000X0.170000X-0.140000X0.170000X0.140000X-0.170000X0.140000X-0.170000X-0.140000X0*%
%ADD24R,0.600000X1.200000*%
%ADD25RoundRect,0.225000X0.225000X0.375000X-0.225000X0.375000X-0.225000X-0.375000X0.225000X-0.375000X0*%
%ADD26RoundRect,0.050000X0.250000X-0.100000X0.250000X0.100000X-0.250000X0.100000X-0.250000X-0.100000X0*%
%ADD27RoundRect,0.071250X0.213750X-0.913750X0.213750X0.913750X-0.213750X0.913750X-0.213750X-0.913750X0*%
%ADD28RoundRect,0.159750X0.905250X-0.950250X0.905250X0.950250X-0.905250X0.950250X-0.905250X-0.950250X0*%
%ADD29R,1.050000X0.650000*%
%ADD30RoundRect,0.075000X-0.390000X-0.275000X0.390000X-0.275000X0.390000X0.275000X-0.390000X0.275000X0*%
%ADD31RoundRect,0.075000X-0.075000X-0.275000X0.075000X-0.275000X0.075000X0.275000X-0.075000X0.275000X0*%
%ADD32R,0.400000X1.650000*%
%ADD33R,1.825000X0.700000*%
%ADD34R,2.000000X1.500000*%
%ADD35R,1.350000X2.000000*%
%ADD36R,1.430000X2.500000*%
%ADD37RoundRect,0.125000X-0.125000X0.687500X-0.125000X-0.687500X0.125000X-0.687500X0.125000X0.687500X0*%
%ADD38RoundRect,0.140000X0.140000X0.170000X-0.140000X0.170000X-0.140000X-0.170000X0.140000X-0.170000X0*%
%ADD39RoundRect,0.159750X-0.950250X-0.905250X0.950250X-0.905250X0.950250X0.905250X-0.950250X0.905250X0*%
%ADD40RoundRect,0.250000X0.450000X0.350000X-0.450000X0.350000X-0.450000X-0.350000X0.450000X-0.350000X0*%
%ADD41RoundRect,0.250400X-0.149600X-0.749600X0.149600X-0.749600X0.149600X0.749600X-0.149600X0.749600X0*%
%ADD42RoundRect,0.249900X-0.100100X-0.750100X0.100100X-0.750100X0.100100X0.750100X-0.100100X0.750100X0*%
%ADD43RoundRect,0.250200X-0.649800X-0.949800X0.649800X-0.949800X0.649800X0.949800X-0.649800X0.949800X0*%
%ADD44RoundRect,0.249900X-0.600100X-0.950100X0.600100X-0.950100X0.600100X0.950100X-0.600100X0.950100X0*%
%ADD45R,3.987800X1.498600*%
%ADD46R,2.800000X2.200000*%
%ADD47R,2.800000X2.800000*%
%ADD48O,1.600000X0.300000*%
%ADD49O,0.300000X1.600000*%
%ADD50RoundRect,0.075000X-0.725000X-0.075000X0.725000X-0.075000X0.725000X0.075000X-0.725000X0.075000X0*%
%ADD51RoundRect,0.075000X-0.075000X-0.725000X0.075000X-0.725000X0.075000X0.725000X-0.075000X0.725000X0*%
%ADD52RoundRect,0.250000X-0.800000X-0.650000X0.800000X-0.650000X0.800000X0.650000X-0.800000X0.650000X0*%
%ADD53RoundRect,0.375000X0.625000X0.375000X-0.625000X0.375000X-0.625000X-0.375000X0.625000X-0.375000X0*%
%ADD54RoundRect,0.500000X0.500000X1.400000X-0.500000X1.400000X-0.500000X-1.400000X0.500000X-1.400000X0*%
%ADD55RoundRect,0.150000X-0.512500X-0.150000X0.512500X-0.150000X0.512500X0.150000X-0.512500X0.150000X0*%
G04 APERTURE END LIST*
D10*
%TO.C,D6*%
X175910000Y-54340500D03*
X175910000Y-57700500D03*
%TD*%
D11*
%TO.C,R39*%
X234400000Y-62684100D03*
X234400000Y-64509100D03*
%TD*%
D12*
%TO.C,C25*%
X208600000Y-99250000D03*
X206700000Y-99250000D03*
%TD*%
%TO.C,C26*%
X209250000Y-96950000D03*
X207350000Y-96950000D03*
%TD*%
D13*
%TO.C,R25*%
X237900000Y-84450000D03*
X239725000Y-84450000D03*
%TD*%
D14*
%TO.C,R4*%
X132297500Y-82690000D03*
X130472500Y-82690000D03*
%TD*%
D12*
%TO.C,C5*%
X183075000Y-88775000D03*
X181175000Y-88775000D03*
%TD*%
D15*
%TO.C,U1*%
X230960000Y-62670000D03*
X231610000Y-62670000D03*
X232260000Y-62670000D03*
X232260000Y-60750000D03*
X230960000Y-60750000D03*
%TD*%
D14*
%TO.C,R6*%
X139492500Y-75690000D03*
X137667500Y-75690000D03*
%TD*%
D16*
%TO.C,C13*%
X177325000Y-88800000D03*
X177325000Y-90700000D03*
%TD*%
%TO.C,C12*%
X183750000Y-82180000D03*
X183750000Y-84080000D03*
%TD*%
D13*
%TO.C,R22*%
X237900000Y-90600000D03*
X239725000Y-90600000D03*
%TD*%
D17*
%TO.C,D3*%
X181000000Y-95130000D03*
X182875000Y-95130000D03*
%TD*%
D16*
%TO.C,C39*%
X225870000Y-60250000D03*
X225870000Y-62150000D03*
%TD*%
%TO.C,C1*%
X175850000Y-79725000D03*
X175850000Y-81625000D03*
%TD*%
D12*
%TO.C,C24*%
X217700000Y-102100000D03*
X215800000Y-102100000D03*
%TD*%
%TO.C,C16*%
X238930000Y-66480000D03*
X237030000Y-66480000D03*
%TD*%
D11*
%TO.C,R16*%
X192600000Y-53025000D03*
X192600000Y-54850000D03*
%TD*%
D14*
%TO.C,R8*%
X150492500Y-86690000D03*
X148667500Y-86690000D03*
%TD*%
D11*
%TO.C,R3*%
X138580000Y-89277500D03*
X138580000Y-91102500D03*
%TD*%
D18*
%TO.C,R44*%
X138960000Y-95962500D03*
X138960000Y-94137500D03*
%TD*%
D12*
%TO.C,C11*%
X187225000Y-73950000D03*
X185325000Y-73950000D03*
%TD*%
D13*
%TO.C,R23*%
X237900000Y-88550000D03*
X239725000Y-88550000D03*
%TD*%
D19*
%TO.C,C15*%
X236620000Y-71660000D03*
X236620000Y-69760000D03*
%TD*%
D17*
%TO.C,D4*%
X190462500Y-70450000D03*
X192337500Y-70450000D03*
%TD*%
D14*
%TO.C,R50*%
X152372500Y-100970000D03*
X150547500Y-100970000D03*
%TD*%
D13*
%TO.C,R27*%
X237900000Y-80350000D03*
X239725000Y-80350000D03*
%TD*%
D14*
%TO.C,R46*%
X132352500Y-99790000D03*
X130527500Y-99790000D03*
%TD*%
D20*
%TO.C,D11*%
X127630000Y-90512500D03*
X127630000Y-91212500D03*
%TD*%
D21*
%TO.C,D2*%
X178730000Y-66357500D03*
X178730000Y-64482500D03*
%TD*%
D22*
%TO.C,C32*%
X228980000Y-57870000D03*
X230880000Y-57870000D03*
%TD*%
D23*
%TO.C,C27*%
X180850000Y-77155000D03*
X180850000Y-76195000D03*
%TD*%
D14*
%TO.C,R42*%
X181737500Y-82250000D03*
X179912500Y-82250000D03*
%TD*%
D19*
%TO.C,C7*%
X195150000Y-71550000D03*
X195150000Y-69650000D03*
%TD*%
D24*
%TO.C,U7*%
X212095000Y-106250000D03*
X210825000Y-106250000D03*
X209555000Y-106250000D03*
X208285000Y-106250000D03*
X207015000Y-106250000D03*
X205745000Y-106250000D03*
X204475000Y-106250000D03*
X203205000Y-106250000D03*
X203205000Y-111850000D03*
X204475000Y-111850000D03*
X205745000Y-111850000D03*
X207015000Y-111850000D03*
X208285000Y-111850000D03*
X209555000Y-111850000D03*
X210825000Y-111850000D03*
X212095000Y-111850000D03*
%TD*%
D18*
%TO.C,R9*%
X181600000Y-73662500D03*
X181600000Y-71837500D03*
%TD*%
D13*
%TO.C,R40*%
X181137500Y-86350000D03*
X182962500Y-86350000D03*
%TD*%
D25*
%TO.C,D7*%
X232220000Y-72480000D03*
X228920000Y-72480000D03*
%TD*%
D26*
%TO.C,D9*%
X130220000Y-80997500D03*
X130220000Y-80297500D03*
%TD*%
D27*
%TO.C,U5*%
X175020000Y-75200000D03*
X176290000Y-75200000D03*
X177560000Y-75200000D03*
X178830000Y-75200000D03*
X178830000Y-70250000D03*
X177560000Y-70250000D03*
X176290000Y-70250000D03*
X175020000Y-70250000D03*
%TD*%
D11*
%TO.C,R1*%
X191700000Y-57675000D03*
X191700000Y-59500000D03*
%TD*%
D13*
%TO.C,R33*%
X238087500Y-110100000D03*
X239912500Y-110100000D03*
%TD*%
D28*
%TO.C,D13*%
X202300000Y-61260000D03*
X202300000Y-57900000D03*
%TD*%
D11*
%TO.C,R49*%
X145580000Y-96227500D03*
X145580000Y-98052500D03*
%TD*%
D14*
%TO.C,R43*%
X142722500Y-95800000D03*
X140897500Y-95800000D03*
%TD*%
D16*
%TO.C,C3*%
X219350000Y-106650000D03*
X219350000Y-108550000D03*
%TD*%
D13*
%TO.C,R15*%
X164265000Y-80330000D03*
X166090000Y-80330000D03*
%TD*%
%TO.C,R35*%
X238087500Y-106000000D03*
X239912500Y-106000000D03*
%TD*%
D11*
%TO.C,R48*%
X138960000Y-105007500D03*
X138960000Y-106832500D03*
%TD*%
D29*
%TO.C,SW1*%
X173600000Y-80330000D03*
X169450000Y-80330000D03*
X173600000Y-78180000D03*
X169475000Y-78180000D03*
%TD*%
D22*
%TO.C,C22*%
X205450000Y-81650000D03*
X207350000Y-81650000D03*
%TD*%
D30*
%TO.C,D5*%
X206800000Y-57900000D03*
D31*
X207685000Y-57900000D03*
%TD*%
D32*
%TO.C,J4*%
X200220000Y-54830000D03*
X199570000Y-54830000D03*
X198920000Y-54830000D03*
X198270000Y-54830000D03*
X197620000Y-54830000D03*
D33*
X201870000Y-53630000D03*
D34*
X201770000Y-54930000D03*
D35*
X201650000Y-52880000D03*
D36*
X199880000Y-51680000D03*
X197960000Y-51680000D03*
D35*
X196170000Y-52880000D03*
D34*
X196020000Y-54950000D03*
D33*
X195920000Y-53630000D03*
%TD*%
D37*
%TO.C,U4*%
X146555000Y-88077500D03*
X145905000Y-88077500D03*
X145255000Y-88077500D03*
X144605000Y-88077500D03*
X144605000Y-92302500D03*
X145255000Y-92302500D03*
X145905000Y-92302500D03*
X146555000Y-92302500D03*
%TD*%
D11*
%TO.C,R7*%
X146080000Y-82277500D03*
X146080000Y-84102500D03*
%TD*%
D16*
%TO.C,C20*%
X173130000Y-60670000D03*
X173130000Y-62570000D03*
%TD*%
D12*
%TO.C,C2*%
X184350000Y-91725000D03*
X182450000Y-91725000D03*
%TD*%
D18*
%TO.C,R14*%
X192350000Y-74700000D03*
X192350000Y-72875000D03*
%TD*%
D38*
%TO.C,C35*%
X178455000Y-81925000D03*
X177495000Y-81925000D03*
%TD*%
D39*
%TO.C,D8*%
X139782500Y-123475000D03*
X143142500Y-123475000D03*
%TD*%
D40*
%TO.C,Y2*%
X181025000Y-78675000D03*
X178825000Y-78675000D03*
X178825000Y-80275000D03*
X181025000Y-80275000D03*
%TD*%
D22*
%TO.C,C10*%
X211200000Y-73325000D03*
X213100000Y-73325000D03*
%TD*%
D14*
%TO.C,R37*%
X197462500Y-108700000D03*
X195637500Y-108700000D03*
%TD*%
D37*
%TO.C,U12*%
X136335000Y-102877500D03*
X135685000Y-102877500D03*
X135035000Y-102877500D03*
X134385000Y-102877500D03*
X134385000Y-107102500D03*
X135035000Y-107102500D03*
X135685000Y-107102500D03*
X136335000Y-107102500D03*
%TD*%
%TO.C,U13*%
X146175000Y-100957500D03*
X145525000Y-100957500D03*
X144875000Y-100957500D03*
X144225000Y-100957500D03*
X144225000Y-105182500D03*
X144875000Y-105182500D03*
X145525000Y-105182500D03*
X146175000Y-105182500D03*
%TD*%
D11*
%TO.C,R2*%
X178680000Y-60545000D03*
X178680000Y-62370000D03*
%TD*%
D21*
%TO.C,D1*%
X191750000Y-64200000D03*
X191750000Y-62325000D03*
%TD*%
D14*
%TO.C,R38*%
X209712500Y-84150000D03*
X207887500Y-84150000D03*
%TD*%
D41*
%TO.C,J7*%
X183830000Y-105250000D03*
X181330000Y-105250000D03*
X178030000Y-105250000D03*
X176330000Y-105250000D03*
X173830000Y-105250000D03*
X171330000Y-105250000D03*
X168900000Y-105250000D03*
X167200000Y-105250000D03*
X186330000Y-105250000D03*
X179630000Y-105250000D03*
D42*
X163710000Y-105250000D03*
D43*
X190150000Y-126450000D03*
D44*
X163700000Y-127650000D03*
%TD*%
D45*
%TO.C,L1*%
X226350000Y-65898700D03*
X226350000Y-69505500D03*
%TD*%
D13*
%TO.C,R36*%
X238075000Y-103950000D03*
X239900000Y-103950000D03*
%TD*%
D18*
%TO.C,R47*%
X134870000Y-97312500D03*
X134870000Y-95487500D03*
%TD*%
D22*
%TO.C,C6*%
X204150000Y-86050000D03*
X206050000Y-86050000D03*
%TD*%
D46*
%TO.C,J6*%
X150387500Y-123225000D03*
X157787500Y-125225000D03*
D47*
X157787500Y-115825000D03*
%TD*%
D48*
%TO.C,U3*%
X211900000Y-86350000D03*
X211900000Y-86850000D03*
X211900000Y-87350000D03*
X211900000Y-87850000D03*
X211900000Y-88350000D03*
X211900000Y-88850000D03*
X211900000Y-89350000D03*
X211900000Y-89850000D03*
X211900000Y-90350000D03*
X211900000Y-90850000D03*
X211900000Y-91350000D03*
X211900000Y-91850000D03*
X211900000Y-92350000D03*
X211900000Y-92850000D03*
X211900000Y-93350000D03*
X211900000Y-93850000D03*
X211900000Y-94350000D03*
X211900000Y-94850000D03*
X211900000Y-95350000D03*
X211900000Y-95850000D03*
X211900000Y-96350000D03*
X211900000Y-96850000D03*
X211900000Y-97350000D03*
X211900000Y-97850000D03*
X211900000Y-98350000D03*
D49*
X213450000Y-99900000D03*
X213950000Y-99900000D03*
X214450000Y-99900000D03*
X214950000Y-99900000D03*
X215450000Y-99900000D03*
X215950000Y-99900000D03*
X216450000Y-99900000D03*
X216950000Y-99900000D03*
X217450000Y-99900000D03*
X217950000Y-99900000D03*
X218450000Y-99900000D03*
X218950000Y-99900000D03*
X219450000Y-99900000D03*
X219950000Y-99900000D03*
X220450000Y-99900000D03*
X220950000Y-99900000D03*
X221450000Y-99900000D03*
X221950000Y-99900000D03*
X222450000Y-99900000D03*
X222950000Y-99900000D03*
X223450000Y-99900000D03*
X223950000Y-99900000D03*
X224450000Y-99900000D03*
X224950000Y-99900000D03*
X225450000Y-99900000D03*
D48*
X227000000Y-98350000D03*
X227000000Y-97850000D03*
X227000000Y-97350000D03*
X227000000Y-96850000D03*
X227000000Y-96350000D03*
X227000000Y-95850000D03*
X227000000Y-95350000D03*
X227000000Y-94850000D03*
X227000000Y-94350000D03*
X227000000Y-93850000D03*
X227000000Y-93350000D03*
X227000000Y-92850000D03*
X227000000Y-92350000D03*
X227000000Y-91850000D03*
X227000000Y-91350000D03*
X227000000Y-90850000D03*
X227000000Y-90350000D03*
X227000000Y-89850000D03*
X227000000Y-89350000D03*
X227000000Y-88850000D03*
X227000000Y-88350000D03*
X227000000Y-87850000D03*
X227000000Y-87350000D03*
X227000000Y-86850000D03*
X227000000Y-86350000D03*
D49*
X225450000Y-84800000D03*
X224950000Y-84800000D03*
X224450000Y-84800000D03*
X223950000Y-84800000D03*
X223450000Y-84800000D03*
X222950000Y-84800000D03*
X222450000Y-84800000D03*
X221950000Y-84800000D03*
X221450000Y-84800000D03*
X220950000Y-84800000D03*
X220450000Y-84800000D03*
X219950000Y-84800000D03*
X219450000Y-84800000D03*
X218950000Y-84800000D03*
X218450000Y-84800000D03*
X217950000Y-84800000D03*
X217450000Y-84800000D03*
X216950000Y-84800000D03*
X216450000Y-84800000D03*
X215950000Y-84800000D03*
X215450000Y-84800000D03*
X214950000Y-84800000D03*
X214450000Y-84800000D03*
X213950000Y-84800000D03*
X213450000Y-84800000D03*
%TD*%
D22*
%TO.C,C9*%
X183775000Y-76025000D03*
X185675000Y-76025000D03*
%TD*%
D13*
%TO.C,R26*%
X237887500Y-82400000D03*
X239712500Y-82400000D03*
%TD*%
D16*
%TO.C,C38*%
X172650000Y-70250000D03*
X172650000Y-72150000D03*
%TD*%
D50*
%TO.C,U6*%
X185950000Y-78325000D03*
X185950000Y-78825000D03*
X185950000Y-79325000D03*
X185950000Y-79825000D03*
X185950000Y-80325000D03*
X185950000Y-80825000D03*
X185950000Y-81325000D03*
X185950000Y-81825000D03*
X185950000Y-82325000D03*
X185950000Y-82825000D03*
X185950000Y-83325000D03*
X185950000Y-83825000D03*
X185950000Y-84325000D03*
X185950000Y-84825000D03*
X185950000Y-85325000D03*
X185950000Y-85825000D03*
X185950000Y-86325000D03*
X185950000Y-86825000D03*
X185950000Y-87325000D03*
X185950000Y-87825000D03*
X185950000Y-88325000D03*
X185950000Y-88825000D03*
X185950000Y-89325000D03*
X185950000Y-89825000D03*
X185950000Y-90325000D03*
D51*
X187625000Y-92000000D03*
X188125000Y-92000000D03*
X188625000Y-92000000D03*
X189125000Y-92000000D03*
X189625000Y-92000000D03*
X190125000Y-92000000D03*
X190625000Y-92000000D03*
X191125000Y-92000000D03*
X191625000Y-92000000D03*
X192125000Y-92000000D03*
X192625000Y-92000000D03*
X193125000Y-92000000D03*
X193625000Y-92000000D03*
X194125000Y-92000000D03*
X194625000Y-92000000D03*
X195125000Y-92000000D03*
X195625000Y-92000000D03*
X196125000Y-92000000D03*
X196625000Y-92000000D03*
X197125000Y-92000000D03*
X197625000Y-92000000D03*
X198125000Y-92000000D03*
X198625000Y-92000000D03*
X199125000Y-92000000D03*
X199625000Y-92000000D03*
D50*
X201300000Y-90325000D03*
X201300000Y-89825000D03*
X201300000Y-89325000D03*
X201300000Y-88825000D03*
X201300000Y-88325000D03*
X201300000Y-87825000D03*
X201300000Y-87325000D03*
X201300000Y-86825000D03*
X201300000Y-86325000D03*
X201300000Y-85825000D03*
X201300000Y-85325000D03*
X201300000Y-84825000D03*
X201300000Y-84325000D03*
X201300000Y-83825000D03*
X201300000Y-83325000D03*
X201300000Y-82825000D03*
X201300000Y-82325000D03*
X201300000Y-81825000D03*
X201300000Y-81325000D03*
X201300000Y-80825000D03*
X201300000Y-80325000D03*
X201300000Y-79825000D03*
X201300000Y-79325000D03*
X201300000Y-78825000D03*
X201300000Y-78325000D03*
D51*
X199625000Y-76650000D03*
X199125000Y-76650000D03*
X198625000Y-76650000D03*
X198125000Y-76650000D03*
X197625000Y-76650000D03*
X197125000Y-76650000D03*
X196625000Y-76650000D03*
X196125000Y-76650000D03*
X195625000Y-76650000D03*
X195125000Y-76650000D03*
X194625000Y-76650000D03*
X194125000Y-76650000D03*
X193625000Y-76650000D03*
X193125000Y-76650000D03*
X192625000Y-76650000D03*
X192125000Y-76650000D03*
X191625000Y-76650000D03*
X191125000Y-76650000D03*
X190625000Y-76650000D03*
X190125000Y-76650000D03*
X189625000Y-76650000D03*
X189125000Y-76650000D03*
X188625000Y-76650000D03*
X188125000Y-76650000D03*
X187625000Y-76650000D03*
%TD*%
D11*
%TO.C,R45*%
X137470000Y-98677500D03*
X137470000Y-100502500D03*
%TD*%
D12*
%TO.C,C21*%
X212150000Y-81650000D03*
X210250000Y-81650000D03*
%TD*%
D16*
%TO.C,C19*%
X194300000Y-57650000D03*
X194300000Y-59550000D03*
%TD*%
D26*
%TO.C,D12*%
X130430000Y-97877500D03*
X130430000Y-97177500D03*
%TD*%
D20*
%TO.C,D10*%
X127260000Y-107172500D03*
X127260000Y-107872500D03*
%TD*%
D11*
%TO.C,R11*%
X138080000Y-80277500D03*
X138080000Y-82102500D03*
%TD*%
%TO.C,R10*%
X185625000Y-68562500D03*
X185625000Y-70387500D03*
%TD*%
D12*
%TO.C,C17*%
X186150000Y-63950000D03*
X184250000Y-63950000D03*
%TD*%
D37*
%TO.C,U2*%
X136055000Y-85077500D03*
X135405000Y-85077500D03*
X134755000Y-85077500D03*
X134105000Y-85077500D03*
X134105000Y-89302500D03*
X134755000Y-89302500D03*
X135405000Y-89302500D03*
X136055000Y-89302500D03*
%TD*%
D52*
%TO.C,Y1*%
X207400000Y-79350000D03*
X210300000Y-79350000D03*
X210300000Y-77050000D03*
X207400000Y-77050000D03*
%TD*%
D14*
%TO.C,R5*%
X143492500Y-75690000D03*
X141667500Y-75690000D03*
%TD*%
D22*
%TO.C,C4*%
X203500000Y-88250000D03*
X205400000Y-88250000D03*
%TD*%
D18*
%TO.C,R12*%
X134080000Y-80515000D03*
X134080000Y-78690000D03*
%TD*%
D19*
%TO.C,C33*%
X225930000Y-80770000D03*
X225930000Y-78870000D03*
%TD*%
D14*
%TO.C,R13*%
X186502500Y-95060000D03*
X184677500Y-95060000D03*
%TD*%
D19*
%TO.C,C14*%
X234370000Y-71670000D03*
X234370000Y-69770000D03*
%TD*%
D53*
%TO.C,U11*%
X187550000Y-59200000D03*
X187550000Y-56900000D03*
D54*
X181250000Y-56900000D03*
D53*
X187550000Y-54600000D03*
%TD*%
D13*
%TO.C,R34*%
X238087500Y-108050000D03*
X239912500Y-108050000D03*
%TD*%
%TO.C,R24*%
X237900000Y-86500000D03*
X239725000Y-86500000D03*
%TD*%
D55*
%TO.C,U10*%
X208032500Y-118407500D03*
X208032500Y-119357500D03*
X208032500Y-120307500D03*
X210307500Y-120307500D03*
X210307500Y-119357500D03*
X210307500Y-118407500D03*
%TD*%
D18*
%TO.C,R41*%
X228910000Y-62545000D03*
X228910000Y-60720000D03*
%TD*%
M02*
