M48
; DRILL file {KiCad 9.0.6} date 2026-03-13T13:57:40-0400
; FORMAT={-:-/ absolute / metric / decimal}
; #@! TF.CreationDate,2026-03-13T13:57:40-04:00
; #@! TF.GenerationSoftware,Kicad,Pcbnew,9.0.6
; #@! TF.FileFunction,MixedPlating,1,2
FMAT,2
METRIC
; #@! TA.AperFunction,Plated,PTH,ViaDrill
T1C0.300
; #@! TA.AperFunction,Plated,PTH,ViaDrill
T2C0.381
; #@! TA.AperFunction,Plated,PTH,ComponentDrill
T3C0.650
; #@! TA.AperFunction,Plated,PTH,ComponentDrill
T4C0.700
; #@! TA.AperFunction,Plated,PTH,ComponentDrill
T5C0.800
; #@! TA.AperFunction,Plated,PTH,ComponentDrill
T6C1.000
; #@! TA.AperFunction,NonPlated,NPTH,ComponentDrill
T7C1.500
; #@! TA.AperFunction,NonPlated,NPTH,ComponentDrill
T8C1.700
; #@! TA.AperFunction,NonPlated,NPTH,ComponentDrill
T9C3.200
%
G90
G05
T1
X177.01Y-83.83
X193.0Y-59.4
X198.0Y-68.1
X198.34Y-74.68
X201.0Y-64.0
X208.685Y-57.9
X232.28Y-59.18
X242.28Y-75.2
X244.8Y-73.79
T2
X127.3Y-108.975
X127.625Y-92.15
X130.225Y-79.425
X130.475Y-96.025
X132.24Y-85.078
X133.1Y-102.8
X134.01Y-77.19
X134.375Y-93.725
X135.975Y-75.69
X136.213Y-124.1
X136.54Y-91.86
X136.54Y-93.96
X140.45Y-92.95
X144.175Y-99.5
X145.5Y-94.75
X146.08Y-81.125
X160.775Y-115.9
X160.85Y-127.65
X160.987Y-125.0
X169.425Y-76.925
X172.45Y-109.65
X172.625Y-73.375
X173.23Y-64.22
X173.5Y-77.025
X175.075Y-76.725
X175.325Y-78.225
X176.275Y-68.675
X176.325Y-76.725
X176.7Y-78.15
X177.325Y-80.925
X177.5Y-92.525
X177.6Y-76.775
X178.175Y-108.525
X178.275Y-83.2
X178.315Y-87.275
X178.73Y-67.72
X178.775Y-76.775
X180.825Y-75.375
X181.914Y-93.589
X182.05Y-84.075
X182.3Y-99.775
X182.325Y-101.175
X182.425Y-90.325
X182.77Y-63.95
X183.025Y-79.85
X183.85Y-96.825
X184.65Y-88.65
X185.1Y-72.225
X185.375Y-101.475
X186.975Y-76.025
X187.32Y-78.53
X187.45Y-81.16
X187.775Y-98.1
X187.85Y-83.325
X189.05Y-70.2
X189.3Y-61.5
X189.43Y-79.13
X189.5Y-59.5
X192.0Y-65.4
X192.2Y-126.45
X192.725Y-56.05
X193.05Y-87.25
X194.05Y-87.4
X195.25Y-68.45
X195.86Y-74.46
X196.2Y-96.1
X196.27Y-94.28
X196.669Y-73.897
X197.125Y-61.35
X197.575Y-56.5
X198.45Y-100.35
X199.23Y-122.195
X199.8Y-86.35
X202.35Y-96.05
X202.95Y-104.725
X203.1Y-74.875
X203.3Y-84.1
X203.4Y-100.45
X203.7Y-71.375
X203.9Y-113.5
X204.0Y-81.45
X204.45Y-90.65
X204.525Y-73.0
X204.75Y-98.05
X205.6Y-96.95
X206.1Y-101.35
X206.6Y-119.357
X207.0Y-104.65
X207.15Y-88.25
X207.65Y-86.5
X207.85Y-95.5
X208.7Y-102.2
X209.555Y-104.65
X209.875Y-92.375
X210.05Y-94.45
X210.25Y-88.65
X212.45Y-102.475
X212.55Y-99.825
X213.8Y-81.7
X213.838Y-103.025
X214.1Y-87.65
X214.1Y-93.25
X214.35Y-73.35
X214.4Y-95.1
X214.4Y-96.2
X214.5Y-86.9
X214.9Y-90.9
X215.2Y-98.0
X215.6Y-91.4
X215.7Y-96.6
X215.8Y-90.35
X215.8Y-97.4
X216.4Y-96.05
X216.65Y-91.9
X218.9Y-93.75
X219.2Y-110.3
X219.252Y-103.002
X219.35Y-105.15
X220.331Y-102.581
X220.45Y-83.13
X220.45Y-87.3
X220.525Y-95.175
X220.66Y-101.69
X221.05Y-97.35
X222.15Y-82.5
X222.15Y-105.0
X223.1Y-93.95
X225.3Y-88.85
X225.475Y-93.225
X225.57Y-56.13
X225.6Y-57.09
X225.65Y-106.35
X225.67Y-58.09
X225.88Y-77.72
X226.55Y-56.05
X226.59Y-57.11
X226.59Y-58.09
X227.39Y-57.13
X227.44Y-58.02
X227.49Y-56.05
X229.25Y-98.95
X229.3Y-93.7
X229.848Y-88.75
X230.05Y-98.22
X230.08Y-85.93
X230.4Y-86.68
X230.8Y-87.85
X230.905Y-97.605
X231.4Y-77.55
X231.73Y-87.35
X231.75Y-96.95
X231.99Y-66.93
X232.11Y-66.057
X232.19Y-65.237
X232.2Y-80.1
X232.24Y-64.537
X232.55Y-96.35
X232.8Y-82.0
X232.86Y-66.057
X232.94Y-64.607
X232.96Y-65.407
X232.97Y-66.89
X233.5Y-84.0
X233.91Y-65.95
X234.075Y-86.2
X239.85Y-92.5
X239.85Y-94.4
X240.9Y-79.15
X240.95Y-77.1
X240.961Y-90.511
X241.15Y-102.55
X241.6Y-88.98
X241.764Y-99.83
X241.95Y-83.15
X242.28Y-88.34
X242.35Y-98.2
X242.4Y-84.0
X242.92Y-96.53
X242.99Y-87.92
X243.075Y-91.675
X243.25Y-80.55
X243.44Y-95.75
X243.55Y-92.35
X243.65Y-87.4
X243.664Y-91.046
X243.95Y-81.95
X244.1Y-79.7
X244.2Y-83.0
X244.381Y-90.55
X244.55Y-88.26
X244.8Y-80.6
X244.95Y-90.0
X248.3Y-95.0
X248.775Y-96.275
X249.1Y-93.0
X249.65Y-96.8
X250.25Y-97.85
X250.8Y-92.5
T5
X169.985Y-87.0
X175.065Y-87.0
X198.5Y-65.8
X200.5Y-65.8
X202.5Y-65.8
X204.5Y-65.8
X206.5Y-65.8
X208.5Y-65.8
X210.5Y-65.8
X212.5Y-65.8
X214.5Y-65.8
T6
X127.4Y-78.3
X127.4Y-95.85
X127.43Y-99.79
X127.43Y-102.33
X127.43Y-104.87
X127.51Y-83.02
X127.51Y-85.56
X127.51Y-88.1
X152.525Y-97.05
X154.35Y-86.8
X194.965Y-125.55
X194.965Y-128.09
X197.505Y-125.55
X197.505Y-128.09
X200.045Y-125.55
X200.045Y-128.09
X202.585Y-125.55
X202.585Y-128.09
X205.125Y-125.55
X205.125Y-128.09
T7
X164.85Y-112.45
X189.05Y-112.45
T8
X154.088Y-117.125
X154.088Y-124.125
T9
X130.08Y-54.43
X130.22Y-125.66
X249.27Y-54.53
X249.32Y-126.15
T3
G00X196.5Y-54.75
M15
G01X196.5Y-55.15
M16
G05
G00X201.34Y-54.75
M15
G01X201.34Y-55.15
M16
G05
T4
G00X196.19Y-51.7
M15
G01X196.19Y-52.2
M16
G05
G00X201.65Y-51.7
M15
G01X201.65Y-52.2
M16
G05
M30
