%TF.GenerationSoftware,KiCad,Pcbnew,9.0.6*%
%TF.CreationDate,2026-03-13T13:57:13-04:00*%
%TF.ProjectId,senior_design,73656e69-6f72-45f6-9465-7369676e2e6b,rev?*%
%TF.SameCoordinates,Original*%
%TF.FileFunction,Legend,Bot*%
%TF.FilePolarity,Positive*%
%FSLAX46Y46*%
G04 Gerber Fmt 4.6, Leading zero omitted, Abs format (unit mm)*
G04 Created by KiCad (PCBNEW 9.0.6) date 2026-03-13 13:57:13*
%MOMM*%
%LPD*%
G01*
G04 APERTURE LIST*
%ADD10C,0.150000*%
%ADD11C,0.120000*%
G04 APERTURE END LIST*
D10*
X242867857Y-78329819D02*
X243201190Y-77853628D01*
X243439285Y-78329819D02*
X243439285Y-77329819D01*
X243439285Y-77329819D02*
X243058333Y-77329819D01*
X243058333Y-77329819D02*
X242963095Y-77377438D01*
X242963095Y-77377438D02*
X242915476Y-77425057D01*
X242915476Y-77425057D02*
X242867857Y-77520295D01*
X242867857Y-77520295D02*
X242867857Y-77663152D01*
X242867857Y-77663152D02*
X242915476Y-77758390D01*
X242915476Y-77758390D02*
X242963095Y-77806009D01*
X242963095Y-77806009D02*
X243058333Y-77853628D01*
X243058333Y-77853628D02*
X243439285Y-77853628D01*
X242534523Y-77329819D02*
X241915476Y-77329819D01*
X241915476Y-77329819D02*
X242248809Y-77710771D01*
X242248809Y-77710771D02*
X242105952Y-77710771D01*
X242105952Y-77710771D02*
X242010714Y-77758390D01*
X242010714Y-77758390D02*
X241963095Y-77806009D01*
X241963095Y-77806009D02*
X241915476Y-77901247D01*
X241915476Y-77901247D02*
X241915476Y-78139342D01*
X241915476Y-78139342D02*
X241963095Y-78234580D01*
X241963095Y-78234580D02*
X242010714Y-78282200D01*
X242010714Y-78282200D02*
X242105952Y-78329819D01*
X242105952Y-78329819D02*
X242391666Y-78329819D01*
X242391666Y-78329819D02*
X242486904Y-78282200D01*
X242486904Y-78282200D02*
X242534523Y-78234580D01*
X240963095Y-78329819D02*
X241534523Y-78329819D01*
X241248809Y-78329819D02*
X241248809Y-77329819D01*
X241248809Y-77329819D02*
X241344047Y-77472676D01*
X241344047Y-77472676D02*
X241439285Y-77567914D01*
X241439285Y-77567914D02*
X241534523Y-77615533D01*
X156567857Y-107954580D02*
X156615476Y-108002200D01*
X156615476Y-108002200D02*
X156758333Y-108049819D01*
X156758333Y-108049819D02*
X156853571Y-108049819D01*
X156853571Y-108049819D02*
X156996428Y-108002200D01*
X156996428Y-108002200D02*
X157091666Y-107906961D01*
X157091666Y-107906961D02*
X157139285Y-107811723D01*
X157139285Y-107811723D02*
X157186904Y-107621247D01*
X157186904Y-107621247D02*
X157186904Y-107478390D01*
X157186904Y-107478390D02*
X157139285Y-107287914D01*
X157139285Y-107287914D02*
X157091666Y-107192676D01*
X157091666Y-107192676D02*
X156996428Y-107097438D01*
X156996428Y-107097438D02*
X156853571Y-107049819D01*
X156853571Y-107049819D02*
X156758333Y-107049819D01*
X156758333Y-107049819D02*
X156615476Y-107097438D01*
X156615476Y-107097438D02*
X156567857Y-107145057D01*
X156234523Y-107049819D02*
X155615476Y-107049819D01*
X155615476Y-107049819D02*
X155948809Y-107430771D01*
X155948809Y-107430771D02*
X155805952Y-107430771D01*
X155805952Y-107430771D02*
X155710714Y-107478390D01*
X155710714Y-107478390D02*
X155663095Y-107526009D01*
X155663095Y-107526009D02*
X155615476Y-107621247D01*
X155615476Y-107621247D02*
X155615476Y-107859342D01*
X155615476Y-107859342D02*
X155663095Y-107954580D01*
X155663095Y-107954580D02*
X155710714Y-108002200D01*
X155710714Y-108002200D02*
X155805952Y-108049819D01*
X155805952Y-108049819D02*
X156091666Y-108049819D01*
X156091666Y-108049819D02*
X156186904Y-108002200D01*
X156186904Y-108002200D02*
X156234523Y-107954580D01*
X154758333Y-107049819D02*
X154948809Y-107049819D01*
X154948809Y-107049819D02*
X155044047Y-107097438D01*
X155044047Y-107097438D02*
X155091666Y-107145057D01*
X155091666Y-107145057D02*
X155186904Y-107287914D01*
X155186904Y-107287914D02*
X155234523Y-107478390D01*
X155234523Y-107478390D02*
X155234523Y-107859342D01*
X155234523Y-107859342D02*
X155186904Y-107954580D01*
X155186904Y-107954580D02*
X155139285Y-108002200D01*
X155139285Y-108002200D02*
X155044047Y-108049819D01*
X155044047Y-108049819D02*
X154853571Y-108049819D01*
X154853571Y-108049819D02*
X154758333Y-108002200D01*
X154758333Y-108002200D02*
X154710714Y-107954580D01*
X154710714Y-107954580D02*
X154663095Y-107859342D01*
X154663095Y-107859342D02*
X154663095Y-107621247D01*
X154663095Y-107621247D02*
X154710714Y-107526009D01*
X154710714Y-107526009D02*
X154758333Y-107478390D01*
X154758333Y-107478390D02*
X154853571Y-107430771D01*
X154853571Y-107430771D02*
X155044047Y-107430771D01*
X155044047Y-107430771D02*
X155139285Y-107478390D01*
X155139285Y-107478390D02*
X155186904Y-107526009D01*
X155186904Y-107526009D02*
X155234523Y-107621247D01*
X220109580Y-96357142D02*
X220157200Y-96309523D01*
X220157200Y-96309523D02*
X220204819Y-96166666D01*
X220204819Y-96166666D02*
X220204819Y-96071428D01*
X220204819Y-96071428D02*
X220157200Y-95928571D01*
X220157200Y-95928571D02*
X220061961Y-95833333D01*
X220061961Y-95833333D02*
X219966723Y-95785714D01*
X219966723Y-95785714D02*
X219776247Y-95738095D01*
X219776247Y-95738095D02*
X219633390Y-95738095D01*
X219633390Y-95738095D02*
X219442914Y-95785714D01*
X219442914Y-95785714D02*
X219347676Y-95833333D01*
X219347676Y-95833333D02*
X219252438Y-95928571D01*
X219252438Y-95928571D02*
X219204819Y-96071428D01*
X219204819Y-96071428D02*
X219204819Y-96166666D01*
X219204819Y-96166666D02*
X219252438Y-96309523D01*
X219252438Y-96309523D02*
X219300057Y-96357142D01*
X219204819Y-96690476D02*
X219204819Y-97309523D01*
X219204819Y-97309523D02*
X219585771Y-96976190D01*
X219585771Y-96976190D02*
X219585771Y-97119047D01*
X219585771Y-97119047D02*
X219633390Y-97214285D01*
X219633390Y-97214285D02*
X219681009Y-97261904D01*
X219681009Y-97261904D02*
X219776247Y-97309523D01*
X219776247Y-97309523D02*
X220014342Y-97309523D01*
X220014342Y-97309523D02*
X220109580Y-97261904D01*
X220109580Y-97261904D02*
X220157200Y-97214285D01*
X220157200Y-97214285D02*
X220204819Y-97119047D01*
X220204819Y-97119047D02*
X220204819Y-96833333D01*
X220204819Y-96833333D02*
X220157200Y-96738095D01*
X220157200Y-96738095D02*
X220109580Y-96690476D01*
X219204819Y-97928571D02*
X219204819Y-98023809D01*
X219204819Y-98023809D02*
X219252438Y-98119047D01*
X219252438Y-98119047D02*
X219300057Y-98166666D01*
X219300057Y-98166666D02*
X219395295Y-98214285D01*
X219395295Y-98214285D02*
X219585771Y-98261904D01*
X219585771Y-98261904D02*
X219823866Y-98261904D01*
X219823866Y-98261904D02*
X220014342Y-98214285D01*
X220014342Y-98214285D02*
X220109580Y-98166666D01*
X220109580Y-98166666D02*
X220157200Y-98119047D01*
X220157200Y-98119047D02*
X220204819Y-98023809D01*
X220204819Y-98023809D02*
X220204819Y-97928571D01*
X220204819Y-97928571D02*
X220157200Y-97833333D01*
X220157200Y-97833333D02*
X220109580Y-97785714D01*
X220109580Y-97785714D02*
X220014342Y-97738095D01*
X220014342Y-97738095D02*
X219823866Y-97690476D01*
X219823866Y-97690476D02*
X219585771Y-97690476D01*
X219585771Y-97690476D02*
X219395295Y-97738095D01*
X219395295Y-97738095D02*
X219300057Y-97785714D01*
X219300057Y-97785714D02*
X219252438Y-97833333D01*
X219252438Y-97833333D02*
X219204819Y-97928571D01*
X243080357Y-102404819D02*
X243413690Y-101928628D01*
X243651785Y-102404819D02*
X243651785Y-101404819D01*
X243651785Y-101404819D02*
X243270833Y-101404819D01*
X243270833Y-101404819D02*
X243175595Y-101452438D01*
X243175595Y-101452438D02*
X243127976Y-101500057D01*
X243127976Y-101500057D02*
X243080357Y-101595295D01*
X243080357Y-101595295D02*
X243080357Y-101738152D01*
X243080357Y-101738152D02*
X243127976Y-101833390D01*
X243127976Y-101833390D02*
X243175595Y-101881009D01*
X243175595Y-101881009D02*
X243270833Y-101928628D01*
X243270833Y-101928628D02*
X243651785Y-101928628D01*
X242699404Y-101500057D02*
X242651785Y-101452438D01*
X242651785Y-101452438D02*
X242556547Y-101404819D01*
X242556547Y-101404819D02*
X242318452Y-101404819D01*
X242318452Y-101404819D02*
X242223214Y-101452438D01*
X242223214Y-101452438D02*
X242175595Y-101500057D01*
X242175595Y-101500057D02*
X242127976Y-101595295D01*
X242127976Y-101595295D02*
X242127976Y-101690533D01*
X242127976Y-101690533D02*
X242175595Y-101833390D01*
X242175595Y-101833390D02*
X242747023Y-102404819D01*
X242747023Y-102404819D02*
X242127976Y-102404819D01*
X241508928Y-101404819D02*
X241413690Y-101404819D01*
X241413690Y-101404819D02*
X241318452Y-101452438D01*
X241318452Y-101452438D02*
X241270833Y-101500057D01*
X241270833Y-101500057D02*
X241223214Y-101595295D01*
X241223214Y-101595295D02*
X241175595Y-101785771D01*
X241175595Y-101785771D02*
X241175595Y-102023866D01*
X241175595Y-102023866D02*
X241223214Y-102214342D01*
X241223214Y-102214342D02*
X241270833Y-102309580D01*
X241270833Y-102309580D02*
X241318452Y-102357200D01*
X241318452Y-102357200D02*
X241413690Y-102404819D01*
X241413690Y-102404819D02*
X241508928Y-102404819D01*
X241508928Y-102404819D02*
X241604166Y-102357200D01*
X241604166Y-102357200D02*
X241651785Y-102309580D01*
X241651785Y-102309580D02*
X241699404Y-102214342D01*
X241699404Y-102214342D02*
X241747023Y-102023866D01*
X241747023Y-102023866D02*
X241747023Y-101785771D01*
X241747023Y-101785771D02*
X241699404Y-101595295D01*
X241699404Y-101595295D02*
X241651785Y-101500057D01*
X241651785Y-101500057D02*
X241604166Y-101452438D01*
X241604166Y-101452438D02*
X241508928Y-101404819D01*
X236092857Y-84429819D02*
X236426190Y-83953628D01*
X236664285Y-84429819D02*
X236664285Y-83429819D01*
X236664285Y-83429819D02*
X236283333Y-83429819D01*
X236283333Y-83429819D02*
X236188095Y-83477438D01*
X236188095Y-83477438D02*
X236140476Y-83525057D01*
X236140476Y-83525057D02*
X236092857Y-83620295D01*
X236092857Y-83620295D02*
X236092857Y-83763152D01*
X236092857Y-83763152D02*
X236140476Y-83858390D01*
X236140476Y-83858390D02*
X236188095Y-83906009D01*
X236188095Y-83906009D02*
X236283333Y-83953628D01*
X236283333Y-83953628D02*
X236664285Y-83953628D01*
X235711904Y-83525057D02*
X235664285Y-83477438D01*
X235664285Y-83477438D02*
X235569047Y-83429819D01*
X235569047Y-83429819D02*
X235330952Y-83429819D01*
X235330952Y-83429819D02*
X235235714Y-83477438D01*
X235235714Y-83477438D02*
X235188095Y-83525057D01*
X235188095Y-83525057D02*
X235140476Y-83620295D01*
X235140476Y-83620295D02*
X235140476Y-83715533D01*
X235140476Y-83715533D02*
X235188095Y-83858390D01*
X235188095Y-83858390D02*
X235759523Y-84429819D01*
X235759523Y-84429819D02*
X235140476Y-84429819D01*
X234569047Y-83858390D02*
X234664285Y-83810771D01*
X234664285Y-83810771D02*
X234711904Y-83763152D01*
X234711904Y-83763152D02*
X234759523Y-83667914D01*
X234759523Y-83667914D02*
X234759523Y-83620295D01*
X234759523Y-83620295D02*
X234711904Y-83525057D01*
X234711904Y-83525057D02*
X234664285Y-83477438D01*
X234664285Y-83477438D02*
X234569047Y-83429819D01*
X234569047Y-83429819D02*
X234378571Y-83429819D01*
X234378571Y-83429819D02*
X234283333Y-83477438D01*
X234283333Y-83477438D02*
X234235714Y-83525057D01*
X234235714Y-83525057D02*
X234188095Y-83620295D01*
X234188095Y-83620295D02*
X234188095Y-83667914D01*
X234188095Y-83667914D02*
X234235714Y-83763152D01*
X234235714Y-83763152D02*
X234283333Y-83810771D01*
X234283333Y-83810771D02*
X234378571Y-83858390D01*
X234378571Y-83858390D02*
X234569047Y-83858390D01*
X234569047Y-83858390D02*
X234664285Y-83906009D01*
X234664285Y-83906009D02*
X234711904Y-83953628D01*
X234711904Y-83953628D02*
X234759523Y-84048866D01*
X234759523Y-84048866D02*
X234759523Y-84239342D01*
X234759523Y-84239342D02*
X234711904Y-84334580D01*
X234711904Y-84334580D02*
X234664285Y-84382200D01*
X234664285Y-84382200D02*
X234569047Y-84429819D01*
X234569047Y-84429819D02*
X234378571Y-84429819D01*
X234378571Y-84429819D02*
X234283333Y-84382200D01*
X234283333Y-84382200D02*
X234235714Y-84334580D01*
X234235714Y-84334580D02*
X234188095Y-84239342D01*
X234188095Y-84239342D02*
X234188095Y-84048866D01*
X234188095Y-84048866D02*
X234235714Y-83953628D01*
X234235714Y-83953628D02*
X234283333Y-83906009D01*
X234283333Y-83906009D02*
X234378571Y-83858390D01*
X235459580Y-52963742D02*
X235507200Y-52916123D01*
X235507200Y-52916123D02*
X235554819Y-52773266D01*
X235554819Y-52773266D02*
X235554819Y-52678028D01*
X235554819Y-52678028D02*
X235507200Y-52535171D01*
X235507200Y-52535171D02*
X235411961Y-52439933D01*
X235411961Y-52439933D02*
X235316723Y-52392314D01*
X235316723Y-52392314D02*
X235126247Y-52344695D01*
X235126247Y-52344695D02*
X234983390Y-52344695D01*
X234983390Y-52344695D02*
X234792914Y-52392314D01*
X234792914Y-52392314D02*
X234697676Y-52439933D01*
X234697676Y-52439933D02*
X234602438Y-52535171D01*
X234602438Y-52535171D02*
X234554819Y-52678028D01*
X234554819Y-52678028D02*
X234554819Y-52773266D01*
X234554819Y-52773266D02*
X234602438Y-52916123D01*
X234602438Y-52916123D02*
X234650057Y-52963742D01*
X234650057Y-53344695D02*
X234602438Y-53392314D01*
X234602438Y-53392314D02*
X234554819Y-53487552D01*
X234554819Y-53487552D02*
X234554819Y-53725647D01*
X234554819Y-53725647D02*
X234602438Y-53820885D01*
X234602438Y-53820885D02*
X234650057Y-53868504D01*
X234650057Y-53868504D02*
X234745295Y-53916123D01*
X234745295Y-53916123D02*
X234840533Y-53916123D01*
X234840533Y-53916123D02*
X234983390Y-53868504D01*
X234983390Y-53868504D02*
X235554819Y-53297076D01*
X235554819Y-53297076D02*
X235554819Y-53916123D01*
X234554819Y-54249457D02*
X234554819Y-54868504D01*
X234554819Y-54868504D02*
X234935771Y-54535171D01*
X234935771Y-54535171D02*
X234935771Y-54678028D01*
X234935771Y-54678028D02*
X234983390Y-54773266D01*
X234983390Y-54773266D02*
X235031009Y-54820885D01*
X235031009Y-54820885D02*
X235126247Y-54868504D01*
X235126247Y-54868504D02*
X235364342Y-54868504D01*
X235364342Y-54868504D02*
X235459580Y-54820885D01*
X235459580Y-54820885D02*
X235507200Y-54773266D01*
X235507200Y-54773266D02*
X235554819Y-54678028D01*
X235554819Y-54678028D02*
X235554819Y-54392314D01*
X235554819Y-54392314D02*
X235507200Y-54297076D01*
X235507200Y-54297076D02*
X235459580Y-54249457D01*
X159779580Y-111744642D02*
X159827200Y-111697023D01*
X159827200Y-111697023D02*
X159874819Y-111554166D01*
X159874819Y-111554166D02*
X159874819Y-111458928D01*
X159874819Y-111458928D02*
X159827200Y-111316071D01*
X159827200Y-111316071D02*
X159731961Y-111220833D01*
X159731961Y-111220833D02*
X159636723Y-111173214D01*
X159636723Y-111173214D02*
X159446247Y-111125595D01*
X159446247Y-111125595D02*
X159303390Y-111125595D01*
X159303390Y-111125595D02*
X159112914Y-111173214D01*
X159112914Y-111173214D02*
X159017676Y-111220833D01*
X159017676Y-111220833D02*
X158922438Y-111316071D01*
X158922438Y-111316071D02*
X158874819Y-111458928D01*
X158874819Y-111458928D02*
X158874819Y-111554166D01*
X158874819Y-111554166D02*
X158922438Y-111697023D01*
X158922438Y-111697023D02*
X158970057Y-111744642D01*
X158874819Y-112077976D02*
X158874819Y-112697023D01*
X158874819Y-112697023D02*
X159255771Y-112363690D01*
X159255771Y-112363690D02*
X159255771Y-112506547D01*
X159255771Y-112506547D02*
X159303390Y-112601785D01*
X159303390Y-112601785D02*
X159351009Y-112649404D01*
X159351009Y-112649404D02*
X159446247Y-112697023D01*
X159446247Y-112697023D02*
X159684342Y-112697023D01*
X159684342Y-112697023D02*
X159779580Y-112649404D01*
X159779580Y-112649404D02*
X159827200Y-112601785D01*
X159827200Y-112601785D02*
X159874819Y-112506547D01*
X159874819Y-112506547D02*
X159874819Y-112220833D01*
X159874819Y-112220833D02*
X159827200Y-112125595D01*
X159827200Y-112125595D02*
X159779580Y-112077976D01*
X158874819Y-113030357D02*
X158874819Y-113697023D01*
X158874819Y-113697023D02*
X159874819Y-113268452D01*
X232792857Y-92989580D02*
X232840476Y-93037200D01*
X232840476Y-93037200D02*
X232983333Y-93084819D01*
X232983333Y-93084819D02*
X233078571Y-93084819D01*
X233078571Y-93084819D02*
X233221428Y-93037200D01*
X233221428Y-93037200D02*
X233316666Y-92941961D01*
X233316666Y-92941961D02*
X233364285Y-92846723D01*
X233364285Y-92846723D02*
X233411904Y-92656247D01*
X233411904Y-92656247D02*
X233411904Y-92513390D01*
X233411904Y-92513390D02*
X233364285Y-92322914D01*
X233364285Y-92322914D02*
X233316666Y-92227676D01*
X233316666Y-92227676D02*
X233221428Y-92132438D01*
X233221428Y-92132438D02*
X233078571Y-92084819D01*
X233078571Y-92084819D02*
X232983333Y-92084819D01*
X232983333Y-92084819D02*
X232840476Y-92132438D01*
X232840476Y-92132438D02*
X232792857Y-92180057D01*
X231840476Y-93084819D02*
X232411904Y-93084819D01*
X232126190Y-93084819D02*
X232126190Y-92084819D01*
X232126190Y-92084819D02*
X232221428Y-92227676D01*
X232221428Y-92227676D02*
X232316666Y-92322914D01*
X232316666Y-92322914D02*
X232411904Y-92370533D01*
X231269047Y-92513390D02*
X231364285Y-92465771D01*
X231364285Y-92465771D02*
X231411904Y-92418152D01*
X231411904Y-92418152D02*
X231459523Y-92322914D01*
X231459523Y-92322914D02*
X231459523Y-92275295D01*
X231459523Y-92275295D02*
X231411904Y-92180057D01*
X231411904Y-92180057D02*
X231364285Y-92132438D01*
X231364285Y-92132438D02*
X231269047Y-92084819D01*
X231269047Y-92084819D02*
X231078571Y-92084819D01*
X231078571Y-92084819D02*
X230983333Y-92132438D01*
X230983333Y-92132438D02*
X230935714Y-92180057D01*
X230935714Y-92180057D02*
X230888095Y-92275295D01*
X230888095Y-92275295D02*
X230888095Y-92322914D01*
X230888095Y-92322914D02*
X230935714Y-92418152D01*
X230935714Y-92418152D02*
X230983333Y-92465771D01*
X230983333Y-92465771D02*
X231078571Y-92513390D01*
X231078571Y-92513390D02*
X231269047Y-92513390D01*
X231269047Y-92513390D02*
X231364285Y-92561009D01*
X231364285Y-92561009D02*
X231411904Y-92608628D01*
X231411904Y-92608628D02*
X231459523Y-92703866D01*
X231459523Y-92703866D02*
X231459523Y-92894342D01*
X231459523Y-92894342D02*
X231411904Y-92989580D01*
X231411904Y-92989580D02*
X231364285Y-93037200D01*
X231364285Y-93037200D02*
X231269047Y-93084819D01*
X231269047Y-93084819D02*
X231078571Y-93084819D01*
X231078571Y-93084819D02*
X230983333Y-93037200D01*
X230983333Y-93037200D02*
X230935714Y-92989580D01*
X230935714Y-92989580D02*
X230888095Y-92894342D01*
X230888095Y-92894342D02*
X230888095Y-92703866D01*
X230888095Y-92703866D02*
X230935714Y-92608628D01*
X230935714Y-92608628D02*
X230983333Y-92561009D01*
X230983333Y-92561009D02*
X231078571Y-92513390D01*
X242717857Y-80354819D02*
X243051190Y-79878628D01*
X243289285Y-80354819D02*
X243289285Y-79354819D01*
X243289285Y-79354819D02*
X242908333Y-79354819D01*
X242908333Y-79354819D02*
X242813095Y-79402438D01*
X242813095Y-79402438D02*
X242765476Y-79450057D01*
X242765476Y-79450057D02*
X242717857Y-79545295D01*
X242717857Y-79545295D02*
X242717857Y-79688152D01*
X242717857Y-79688152D02*
X242765476Y-79783390D01*
X242765476Y-79783390D02*
X242813095Y-79831009D01*
X242813095Y-79831009D02*
X242908333Y-79878628D01*
X242908333Y-79878628D02*
X243289285Y-79878628D01*
X242384523Y-79354819D02*
X241765476Y-79354819D01*
X241765476Y-79354819D02*
X242098809Y-79735771D01*
X242098809Y-79735771D02*
X241955952Y-79735771D01*
X241955952Y-79735771D02*
X241860714Y-79783390D01*
X241860714Y-79783390D02*
X241813095Y-79831009D01*
X241813095Y-79831009D02*
X241765476Y-79926247D01*
X241765476Y-79926247D02*
X241765476Y-80164342D01*
X241765476Y-80164342D02*
X241813095Y-80259580D01*
X241813095Y-80259580D02*
X241860714Y-80307200D01*
X241860714Y-80307200D02*
X241955952Y-80354819D01*
X241955952Y-80354819D02*
X242241666Y-80354819D01*
X242241666Y-80354819D02*
X242336904Y-80307200D01*
X242336904Y-80307200D02*
X242384523Y-80259580D01*
X241146428Y-79354819D02*
X241051190Y-79354819D01*
X241051190Y-79354819D02*
X240955952Y-79402438D01*
X240955952Y-79402438D02*
X240908333Y-79450057D01*
X240908333Y-79450057D02*
X240860714Y-79545295D01*
X240860714Y-79545295D02*
X240813095Y-79735771D01*
X240813095Y-79735771D02*
X240813095Y-79973866D01*
X240813095Y-79973866D02*
X240860714Y-80164342D01*
X240860714Y-80164342D02*
X240908333Y-80259580D01*
X240908333Y-80259580D02*
X240955952Y-80307200D01*
X240955952Y-80307200D02*
X241051190Y-80354819D01*
X241051190Y-80354819D02*
X241146428Y-80354819D01*
X241146428Y-80354819D02*
X241241666Y-80307200D01*
X241241666Y-80307200D02*
X241289285Y-80259580D01*
X241289285Y-80259580D02*
X241336904Y-80164342D01*
X241336904Y-80164342D02*
X241384523Y-79973866D01*
X241384523Y-79973866D02*
X241384523Y-79735771D01*
X241384523Y-79735771D02*
X241336904Y-79545295D01*
X241336904Y-79545295D02*
X241289285Y-79450057D01*
X241289285Y-79450057D02*
X241241666Y-79402438D01*
X241241666Y-79402438D02*
X241146428Y-79354819D01*
X159879819Y-107682142D02*
X159403628Y-107348809D01*
X159879819Y-107110714D02*
X158879819Y-107110714D01*
X158879819Y-107110714D02*
X158879819Y-107491666D01*
X158879819Y-107491666D02*
X158927438Y-107586904D01*
X158927438Y-107586904D02*
X158975057Y-107634523D01*
X158975057Y-107634523D02*
X159070295Y-107682142D01*
X159070295Y-107682142D02*
X159213152Y-107682142D01*
X159213152Y-107682142D02*
X159308390Y-107634523D01*
X159308390Y-107634523D02*
X159356009Y-107586904D01*
X159356009Y-107586904D02*
X159403628Y-107491666D01*
X159403628Y-107491666D02*
X159403628Y-107110714D01*
X158879819Y-108586904D02*
X158879819Y-108110714D01*
X158879819Y-108110714D02*
X159356009Y-108063095D01*
X159356009Y-108063095D02*
X159308390Y-108110714D01*
X159308390Y-108110714D02*
X159260771Y-108205952D01*
X159260771Y-108205952D02*
X159260771Y-108444047D01*
X159260771Y-108444047D02*
X159308390Y-108539285D01*
X159308390Y-108539285D02*
X159356009Y-108586904D01*
X159356009Y-108586904D02*
X159451247Y-108634523D01*
X159451247Y-108634523D02*
X159689342Y-108634523D01*
X159689342Y-108634523D02*
X159784580Y-108586904D01*
X159784580Y-108586904D02*
X159832200Y-108539285D01*
X159832200Y-108539285D02*
X159879819Y-108444047D01*
X159879819Y-108444047D02*
X159879819Y-108205952D01*
X159879819Y-108205952D02*
X159832200Y-108110714D01*
X159832200Y-108110714D02*
X159784580Y-108063095D01*
X159879819Y-109586904D02*
X159879819Y-109015476D01*
X159879819Y-109301190D02*
X158879819Y-109301190D01*
X158879819Y-109301190D02*
X159022676Y-109205952D01*
X159022676Y-109205952D02*
X159117914Y-109110714D01*
X159117914Y-109110714D02*
X159165533Y-109015476D01*
X242932857Y-98254819D02*
X243266190Y-97778628D01*
X243504285Y-98254819D02*
X243504285Y-97254819D01*
X243504285Y-97254819D02*
X243123333Y-97254819D01*
X243123333Y-97254819D02*
X243028095Y-97302438D01*
X243028095Y-97302438D02*
X242980476Y-97350057D01*
X242980476Y-97350057D02*
X242932857Y-97445295D01*
X242932857Y-97445295D02*
X242932857Y-97588152D01*
X242932857Y-97588152D02*
X242980476Y-97683390D01*
X242980476Y-97683390D02*
X243028095Y-97731009D01*
X243028095Y-97731009D02*
X243123333Y-97778628D01*
X243123333Y-97778628D02*
X243504285Y-97778628D01*
X241980476Y-98254819D02*
X242551904Y-98254819D01*
X242266190Y-98254819D02*
X242266190Y-97254819D01*
X242266190Y-97254819D02*
X242361428Y-97397676D01*
X242361428Y-97397676D02*
X242456666Y-97492914D01*
X242456666Y-97492914D02*
X242551904Y-97540533D01*
X241504285Y-98254819D02*
X241313809Y-98254819D01*
X241313809Y-98254819D02*
X241218571Y-98207200D01*
X241218571Y-98207200D02*
X241170952Y-98159580D01*
X241170952Y-98159580D02*
X241075714Y-98016723D01*
X241075714Y-98016723D02*
X241028095Y-97826247D01*
X241028095Y-97826247D02*
X241028095Y-97445295D01*
X241028095Y-97445295D02*
X241075714Y-97350057D01*
X241075714Y-97350057D02*
X241123333Y-97302438D01*
X241123333Y-97302438D02*
X241218571Y-97254819D01*
X241218571Y-97254819D02*
X241409047Y-97254819D01*
X241409047Y-97254819D02*
X241504285Y-97302438D01*
X241504285Y-97302438D02*
X241551904Y-97350057D01*
X241551904Y-97350057D02*
X241599523Y-97445295D01*
X241599523Y-97445295D02*
X241599523Y-97683390D01*
X241599523Y-97683390D02*
X241551904Y-97778628D01*
X241551904Y-97778628D02*
X241504285Y-97826247D01*
X241504285Y-97826247D02*
X241409047Y-97873866D01*
X241409047Y-97873866D02*
X241218571Y-97873866D01*
X241218571Y-97873866D02*
X241123333Y-97826247D01*
X241123333Y-97826247D02*
X241075714Y-97778628D01*
X241075714Y-97778628D02*
X241028095Y-97683390D01*
X217267857Y-89934580D02*
X217315476Y-89982200D01*
X217315476Y-89982200D02*
X217458333Y-90029819D01*
X217458333Y-90029819D02*
X217553571Y-90029819D01*
X217553571Y-90029819D02*
X217696428Y-89982200D01*
X217696428Y-89982200D02*
X217791666Y-89886961D01*
X217791666Y-89886961D02*
X217839285Y-89791723D01*
X217839285Y-89791723D02*
X217886904Y-89601247D01*
X217886904Y-89601247D02*
X217886904Y-89458390D01*
X217886904Y-89458390D02*
X217839285Y-89267914D01*
X217839285Y-89267914D02*
X217791666Y-89172676D01*
X217791666Y-89172676D02*
X217696428Y-89077438D01*
X217696428Y-89077438D02*
X217553571Y-89029819D01*
X217553571Y-89029819D02*
X217458333Y-89029819D01*
X217458333Y-89029819D02*
X217315476Y-89077438D01*
X217315476Y-89077438D02*
X217267857Y-89125057D01*
X216886904Y-89125057D02*
X216839285Y-89077438D01*
X216839285Y-89077438D02*
X216744047Y-89029819D01*
X216744047Y-89029819D02*
X216505952Y-89029819D01*
X216505952Y-89029819D02*
X216410714Y-89077438D01*
X216410714Y-89077438D02*
X216363095Y-89125057D01*
X216363095Y-89125057D02*
X216315476Y-89220295D01*
X216315476Y-89220295D02*
X216315476Y-89315533D01*
X216315476Y-89315533D02*
X216363095Y-89458390D01*
X216363095Y-89458390D02*
X216934523Y-90029819D01*
X216934523Y-90029819D02*
X216315476Y-90029819D01*
X215839285Y-90029819D02*
X215648809Y-90029819D01*
X215648809Y-90029819D02*
X215553571Y-89982200D01*
X215553571Y-89982200D02*
X215505952Y-89934580D01*
X215505952Y-89934580D02*
X215410714Y-89791723D01*
X215410714Y-89791723D02*
X215363095Y-89601247D01*
X215363095Y-89601247D02*
X215363095Y-89220295D01*
X215363095Y-89220295D02*
X215410714Y-89125057D01*
X215410714Y-89125057D02*
X215458333Y-89077438D01*
X215458333Y-89077438D02*
X215553571Y-89029819D01*
X215553571Y-89029819D02*
X215744047Y-89029819D01*
X215744047Y-89029819D02*
X215839285Y-89077438D01*
X215839285Y-89077438D02*
X215886904Y-89125057D01*
X215886904Y-89125057D02*
X215934523Y-89220295D01*
X215934523Y-89220295D02*
X215934523Y-89458390D01*
X215934523Y-89458390D02*
X215886904Y-89553628D01*
X215886904Y-89553628D02*
X215839285Y-89601247D01*
X215839285Y-89601247D02*
X215744047Y-89648866D01*
X215744047Y-89648866D02*
X215553571Y-89648866D01*
X215553571Y-89648866D02*
X215458333Y-89601247D01*
X215458333Y-89601247D02*
X215410714Y-89553628D01*
X215410714Y-89553628D02*
X215363095Y-89458390D01*
X222367857Y-90409580D02*
X222415476Y-90457200D01*
X222415476Y-90457200D02*
X222558333Y-90504819D01*
X222558333Y-90504819D02*
X222653571Y-90504819D01*
X222653571Y-90504819D02*
X222796428Y-90457200D01*
X222796428Y-90457200D02*
X222891666Y-90361961D01*
X222891666Y-90361961D02*
X222939285Y-90266723D01*
X222939285Y-90266723D02*
X222986904Y-90076247D01*
X222986904Y-90076247D02*
X222986904Y-89933390D01*
X222986904Y-89933390D02*
X222939285Y-89742914D01*
X222939285Y-89742914D02*
X222891666Y-89647676D01*
X222891666Y-89647676D02*
X222796428Y-89552438D01*
X222796428Y-89552438D02*
X222653571Y-89504819D01*
X222653571Y-89504819D02*
X222558333Y-89504819D01*
X222558333Y-89504819D02*
X222415476Y-89552438D01*
X222415476Y-89552438D02*
X222367857Y-89600057D01*
X222034523Y-89504819D02*
X221415476Y-89504819D01*
X221415476Y-89504819D02*
X221748809Y-89885771D01*
X221748809Y-89885771D02*
X221605952Y-89885771D01*
X221605952Y-89885771D02*
X221510714Y-89933390D01*
X221510714Y-89933390D02*
X221463095Y-89981009D01*
X221463095Y-89981009D02*
X221415476Y-90076247D01*
X221415476Y-90076247D02*
X221415476Y-90314342D01*
X221415476Y-90314342D02*
X221463095Y-90409580D01*
X221463095Y-90409580D02*
X221510714Y-90457200D01*
X221510714Y-90457200D02*
X221605952Y-90504819D01*
X221605952Y-90504819D02*
X221891666Y-90504819D01*
X221891666Y-90504819D02*
X221986904Y-90457200D01*
X221986904Y-90457200D02*
X222034523Y-90409580D01*
X220558333Y-89838152D02*
X220558333Y-90504819D01*
X220796428Y-89457200D02*
X221034523Y-90171485D01*
X221034523Y-90171485D02*
X220415476Y-90171485D01*
X205646666Y-86219580D02*
X205694285Y-86267200D01*
X205694285Y-86267200D02*
X205837142Y-86314819D01*
X205837142Y-86314819D02*
X205932380Y-86314819D01*
X205932380Y-86314819D02*
X206075237Y-86267200D01*
X206075237Y-86267200D02*
X206170475Y-86171961D01*
X206170475Y-86171961D02*
X206218094Y-86076723D01*
X206218094Y-86076723D02*
X206265713Y-85886247D01*
X206265713Y-85886247D02*
X206265713Y-85743390D01*
X206265713Y-85743390D02*
X206218094Y-85552914D01*
X206218094Y-85552914D02*
X206170475Y-85457676D01*
X206170475Y-85457676D02*
X206075237Y-85362438D01*
X206075237Y-85362438D02*
X205932380Y-85314819D01*
X205932380Y-85314819D02*
X205837142Y-85314819D01*
X205837142Y-85314819D02*
X205694285Y-85362438D01*
X205694285Y-85362438D02*
X205646666Y-85410057D01*
X205075237Y-85743390D02*
X205170475Y-85695771D01*
X205170475Y-85695771D02*
X205218094Y-85648152D01*
X205218094Y-85648152D02*
X205265713Y-85552914D01*
X205265713Y-85552914D02*
X205265713Y-85505295D01*
X205265713Y-85505295D02*
X205218094Y-85410057D01*
X205218094Y-85410057D02*
X205170475Y-85362438D01*
X205170475Y-85362438D02*
X205075237Y-85314819D01*
X205075237Y-85314819D02*
X204884761Y-85314819D01*
X204884761Y-85314819D02*
X204789523Y-85362438D01*
X204789523Y-85362438D02*
X204741904Y-85410057D01*
X204741904Y-85410057D02*
X204694285Y-85505295D01*
X204694285Y-85505295D02*
X204694285Y-85552914D01*
X204694285Y-85552914D02*
X204741904Y-85648152D01*
X204741904Y-85648152D02*
X204789523Y-85695771D01*
X204789523Y-85695771D02*
X204884761Y-85743390D01*
X204884761Y-85743390D02*
X205075237Y-85743390D01*
X205075237Y-85743390D02*
X205170475Y-85791009D01*
X205170475Y-85791009D02*
X205218094Y-85838628D01*
X205218094Y-85838628D02*
X205265713Y-85933866D01*
X205265713Y-85933866D02*
X205265713Y-86124342D01*
X205265713Y-86124342D02*
X205218094Y-86219580D01*
X205218094Y-86219580D02*
X205170475Y-86267200D01*
X205170475Y-86267200D02*
X205075237Y-86314819D01*
X205075237Y-86314819D02*
X204884761Y-86314819D01*
X204884761Y-86314819D02*
X204789523Y-86267200D01*
X204789523Y-86267200D02*
X204741904Y-86219580D01*
X204741904Y-86219580D02*
X204694285Y-86124342D01*
X204694285Y-86124342D02*
X204694285Y-85933866D01*
X204694285Y-85933866D02*
X204741904Y-85838628D01*
X204741904Y-85838628D02*
X204789523Y-85791009D01*
X204789523Y-85791009D02*
X204884761Y-85743390D01*
X239442857Y-75404819D02*
X239776190Y-74928628D01*
X240014285Y-75404819D02*
X240014285Y-74404819D01*
X240014285Y-74404819D02*
X239633333Y-74404819D01*
X239633333Y-74404819D02*
X239538095Y-74452438D01*
X239538095Y-74452438D02*
X239490476Y-74500057D01*
X239490476Y-74500057D02*
X239442857Y-74595295D01*
X239442857Y-74595295D02*
X239442857Y-74738152D01*
X239442857Y-74738152D02*
X239490476Y-74833390D01*
X239490476Y-74833390D02*
X239538095Y-74881009D01*
X239538095Y-74881009D02*
X239633333Y-74928628D01*
X239633333Y-74928628D02*
X240014285Y-74928628D01*
X239109523Y-74404819D02*
X238490476Y-74404819D01*
X238490476Y-74404819D02*
X238823809Y-74785771D01*
X238823809Y-74785771D02*
X238680952Y-74785771D01*
X238680952Y-74785771D02*
X238585714Y-74833390D01*
X238585714Y-74833390D02*
X238538095Y-74881009D01*
X238538095Y-74881009D02*
X238490476Y-74976247D01*
X238490476Y-74976247D02*
X238490476Y-75214342D01*
X238490476Y-75214342D02*
X238538095Y-75309580D01*
X238538095Y-75309580D02*
X238585714Y-75357200D01*
X238585714Y-75357200D02*
X238680952Y-75404819D01*
X238680952Y-75404819D02*
X238966666Y-75404819D01*
X238966666Y-75404819D02*
X239061904Y-75357200D01*
X239061904Y-75357200D02*
X239109523Y-75309580D01*
X238109523Y-74500057D02*
X238061904Y-74452438D01*
X238061904Y-74452438D02*
X237966666Y-74404819D01*
X237966666Y-74404819D02*
X237728571Y-74404819D01*
X237728571Y-74404819D02*
X237633333Y-74452438D01*
X237633333Y-74452438D02*
X237585714Y-74500057D01*
X237585714Y-74500057D02*
X237538095Y-74595295D01*
X237538095Y-74595295D02*
X237538095Y-74690533D01*
X237538095Y-74690533D02*
X237585714Y-74833390D01*
X237585714Y-74833390D02*
X238157142Y-75404819D01*
X238157142Y-75404819D02*
X237538095Y-75404819D01*
X236382857Y-100254819D02*
X236716190Y-99778628D01*
X236954285Y-100254819D02*
X236954285Y-99254819D01*
X236954285Y-99254819D02*
X236573333Y-99254819D01*
X236573333Y-99254819D02*
X236478095Y-99302438D01*
X236478095Y-99302438D02*
X236430476Y-99350057D01*
X236430476Y-99350057D02*
X236382857Y-99445295D01*
X236382857Y-99445295D02*
X236382857Y-99588152D01*
X236382857Y-99588152D02*
X236430476Y-99683390D01*
X236430476Y-99683390D02*
X236478095Y-99731009D01*
X236478095Y-99731009D02*
X236573333Y-99778628D01*
X236573333Y-99778628D02*
X236954285Y-99778628D01*
X235430476Y-100254819D02*
X236001904Y-100254819D01*
X235716190Y-100254819D02*
X235716190Y-99254819D01*
X235716190Y-99254819D02*
X235811428Y-99397676D01*
X235811428Y-99397676D02*
X235906666Y-99492914D01*
X235906666Y-99492914D02*
X236001904Y-99540533D01*
X234859047Y-99683390D02*
X234954285Y-99635771D01*
X234954285Y-99635771D02*
X235001904Y-99588152D01*
X235001904Y-99588152D02*
X235049523Y-99492914D01*
X235049523Y-99492914D02*
X235049523Y-99445295D01*
X235049523Y-99445295D02*
X235001904Y-99350057D01*
X235001904Y-99350057D02*
X234954285Y-99302438D01*
X234954285Y-99302438D02*
X234859047Y-99254819D01*
X234859047Y-99254819D02*
X234668571Y-99254819D01*
X234668571Y-99254819D02*
X234573333Y-99302438D01*
X234573333Y-99302438D02*
X234525714Y-99350057D01*
X234525714Y-99350057D02*
X234478095Y-99445295D01*
X234478095Y-99445295D02*
X234478095Y-99492914D01*
X234478095Y-99492914D02*
X234525714Y-99588152D01*
X234525714Y-99588152D02*
X234573333Y-99635771D01*
X234573333Y-99635771D02*
X234668571Y-99683390D01*
X234668571Y-99683390D02*
X234859047Y-99683390D01*
X234859047Y-99683390D02*
X234954285Y-99731009D01*
X234954285Y-99731009D02*
X235001904Y-99778628D01*
X235001904Y-99778628D02*
X235049523Y-99873866D01*
X235049523Y-99873866D02*
X235049523Y-100064342D01*
X235049523Y-100064342D02*
X235001904Y-100159580D01*
X235001904Y-100159580D02*
X234954285Y-100207200D01*
X234954285Y-100207200D02*
X234859047Y-100254819D01*
X234859047Y-100254819D02*
X234668571Y-100254819D01*
X234668571Y-100254819D02*
X234573333Y-100207200D01*
X234573333Y-100207200D02*
X234525714Y-100159580D01*
X234525714Y-100159580D02*
X234478095Y-100064342D01*
X234478095Y-100064342D02*
X234478095Y-99873866D01*
X234478095Y-99873866D02*
X234525714Y-99778628D01*
X234525714Y-99778628D02*
X234573333Y-99731009D01*
X234573333Y-99731009D02*
X234668571Y-99683390D01*
X236232857Y-95954819D02*
X236566190Y-95478628D01*
X236804285Y-95954819D02*
X236804285Y-94954819D01*
X236804285Y-94954819D02*
X236423333Y-94954819D01*
X236423333Y-94954819D02*
X236328095Y-95002438D01*
X236328095Y-95002438D02*
X236280476Y-95050057D01*
X236280476Y-95050057D02*
X236232857Y-95145295D01*
X236232857Y-95145295D02*
X236232857Y-95288152D01*
X236232857Y-95288152D02*
X236280476Y-95383390D01*
X236280476Y-95383390D02*
X236328095Y-95431009D01*
X236328095Y-95431009D02*
X236423333Y-95478628D01*
X236423333Y-95478628D02*
X236804285Y-95478628D01*
X235851904Y-95050057D02*
X235804285Y-95002438D01*
X235804285Y-95002438D02*
X235709047Y-94954819D01*
X235709047Y-94954819D02*
X235470952Y-94954819D01*
X235470952Y-94954819D02*
X235375714Y-95002438D01*
X235375714Y-95002438D02*
X235328095Y-95050057D01*
X235328095Y-95050057D02*
X235280476Y-95145295D01*
X235280476Y-95145295D02*
X235280476Y-95240533D01*
X235280476Y-95240533D02*
X235328095Y-95383390D01*
X235328095Y-95383390D02*
X235899523Y-95954819D01*
X235899523Y-95954819D02*
X235280476Y-95954819D01*
X234328095Y-95954819D02*
X234899523Y-95954819D01*
X234613809Y-95954819D02*
X234613809Y-94954819D01*
X234613809Y-94954819D02*
X234709047Y-95097676D01*
X234709047Y-95097676D02*
X234804285Y-95192914D01*
X234804285Y-95192914D02*
X234899523Y-95240533D01*
X239480357Y-106504819D02*
X239813690Y-106028628D01*
X240051785Y-106504819D02*
X240051785Y-105504819D01*
X240051785Y-105504819D02*
X239670833Y-105504819D01*
X239670833Y-105504819D02*
X239575595Y-105552438D01*
X239575595Y-105552438D02*
X239527976Y-105600057D01*
X239527976Y-105600057D02*
X239480357Y-105695295D01*
X239480357Y-105695295D02*
X239480357Y-105838152D01*
X239480357Y-105838152D02*
X239527976Y-105933390D01*
X239527976Y-105933390D02*
X239575595Y-105981009D01*
X239575595Y-105981009D02*
X239670833Y-106028628D01*
X239670833Y-106028628D02*
X240051785Y-106028628D01*
X238527976Y-106504819D02*
X239099404Y-106504819D01*
X238813690Y-106504819D02*
X238813690Y-105504819D01*
X238813690Y-105504819D02*
X238908928Y-105647676D01*
X238908928Y-105647676D02*
X239004166Y-105742914D01*
X239004166Y-105742914D02*
X239099404Y-105790533D01*
X238194642Y-105504819D02*
X237527976Y-105504819D01*
X237527976Y-105504819D02*
X237956547Y-106504819D01*
X234879580Y-93177142D02*
X234927200Y-93129523D01*
X234927200Y-93129523D02*
X234974819Y-92986666D01*
X234974819Y-92986666D02*
X234974819Y-92891428D01*
X234974819Y-92891428D02*
X234927200Y-92748571D01*
X234927200Y-92748571D02*
X234831961Y-92653333D01*
X234831961Y-92653333D02*
X234736723Y-92605714D01*
X234736723Y-92605714D02*
X234546247Y-92558095D01*
X234546247Y-92558095D02*
X234403390Y-92558095D01*
X234403390Y-92558095D02*
X234212914Y-92605714D01*
X234212914Y-92605714D02*
X234117676Y-92653333D01*
X234117676Y-92653333D02*
X234022438Y-92748571D01*
X234022438Y-92748571D02*
X233974819Y-92891428D01*
X233974819Y-92891428D02*
X233974819Y-92986666D01*
X233974819Y-92986666D02*
X234022438Y-93129523D01*
X234022438Y-93129523D02*
X234070057Y-93177142D01*
X233974819Y-93510476D02*
X233974819Y-94129523D01*
X233974819Y-94129523D02*
X234355771Y-93796190D01*
X234355771Y-93796190D02*
X234355771Y-93939047D01*
X234355771Y-93939047D02*
X234403390Y-94034285D01*
X234403390Y-94034285D02*
X234451009Y-94081904D01*
X234451009Y-94081904D02*
X234546247Y-94129523D01*
X234546247Y-94129523D02*
X234784342Y-94129523D01*
X234784342Y-94129523D02*
X234879580Y-94081904D01*
X234879580Y-94081904D02*
X234927200Y-94034285D01*
X234927200Y-94034285D02*
X234974819Y-93939047D01*
X234974819Y-93939047D02*
X234974819Y-93653333D01*
X234974819Y-93653333D02*
X234927200Y-93558095D01*
X234927200Y-93558095D02*
X234879580Y-93510476D01*
X234974819Y-95081904D02*
X234974819Y-94510476D01*
X234974819Y-94796190D02*
X233974819Y-94796190D01*
X233974819Y-94796190D02*
X234117676Y-94700952D01*
X234117676Y-94700952D02*
X234212914Y-94605714D01*
X234212914Y-94605714D02*
X234260533Y-94510476D01*
X242767857Y-82329819D02*
X243101190Y-81853628D01*
X243339285Y-82329819D02*
X243339285Y-81329819D01*
X243339285Y-81329819D02*
X242958333Y-81329819D01*
X242958333Y-81329819D02*
X242863095Y-81377438D01*
X242863095Y-81377438D02*
X242815476Y-81425057D01*
X242815476Y-81425057D02*
X242767857Y-81520295D01*
X242767857Y-81520295D02*
X242767857Y-81663152D01*
X242767857Y-81663152D02*
X242815476Y-81758390D01*
X242815476Y-81758390D02*
X242863095Y-81806009D01*
X242863095Y-81806009D02*
X242958333Y-81853628D01*
X242958333Y-81853628D02*
X243339285Y-81853628D01*
X242386904Y-81425057D02*
X242339285Y-81377438D01*
X242339285Y-81377438D02*
X242244047Y-81329819D01*
X242244047Y-81329819D02*
X242005952Y-81329819D01*
X242005952Y-81329819D02*
X241910714Y-81377438D01*
X241910714Y-81377438D02*
X241863095Y-81425057D01*
X241863095Y-81425057D02*
X241815476Y-81520295D01*
X241815476Y-81520295D02*
X241815476Y-81615533D01*
X241815476Y-81615533D02*
X241863095Y-81758390D01*
X241863095Y-81758390D02*
X242434523Y-82329819D01*
X242434523Y-82329819D02*
X241815476Y-82329819D01*
X241339285Y-82329819D02*
X241148809Y-82329819D01*
X241148809Y-82329819D02*
X241053571Y-82282200D01*
X241053571Y-82282200D02*
X241005952Y-82234580D01*
X241005952Y-82234580D02*
X240910714Y-82091723D01*
X240910714Y-82091723D02*
X240863095Y-81901247D01*
X240863095Y-81901247D02*
X240863095Y-81520295D01*
X240863095Y-81520295D02*
X240910714Y-81425057D01*
X240910714Y-81425057D02*
X240958333Y-81377438D01*
X240958333Y-81377438D02*
X241053571Y-81329819D01*
X241053571Y-81329819D02*
X241244047Y-81329819D01*
X241244047Y-81329819D02*
X241339285Y-81377438D01*
X241339285Y-81377438D02*
X241386904Y-81425057D01*
X241386904Y-81425057D02*
X241434523Y-81520295D01*
X241434523Y-81520295D02*
X241434523Y-81758390D01*
X241434523Y-81758390D02*
X241386904Y-81853628D01*
X241386904Y-81853628D02*
X241339285Y-81901247D01*
X241339285Y-81901247D02*
X241244047Y-81948866D01*
X241244047Y-81948866D02*
X241053571Y-81948866D01*
X241053571Y-81948866D02*
X240958333Y-81901247D01*
X240958333Y-81901247D02*
X240910714Y-81853628D01*
X240910714Y-81853628D02*
X240863095Y-81758390D01*
X204222857Y-92629580D02*
X204270476Y-92677200D01*
X204270476Y-92677200D02*
X204413333Y-92724819D01*
X204413333Y-92724819D02*
X204508571Y-92724819D01*
X204508571Y-92724819D02*
X204651428Y-92677200D01*
X204651428Y-92677200D02*
X204746666Y-92581961D01*
X204746666Y-92581961D02*
X204794285Y-92486723D01*
X204794285Y-92486723D02*
X204841904Y-92296247D01*
X204841904Y-92296247D02*
X204841904Y-92153390D01*
X204841904Y-92153390D02*
X204794285Y-91962914D01*
X204794285Y-91962914D02*
X204746666Y-91867676D01*
X204746666Y-91867676D02*
X204651428Y-91772438D01*
X204651428Y-91772438D02*
X204508571Y-91724819D01*
X204508571Y-91724819D02*
X204413333Y-91724819D01*
X204413333Y-91724819D02*
X204270476Y-91772438D01*
X204270476Y-91772438D02*
X204222857Y-91820057D01*
X203841904Y-91820057D02*
X203794285Y-91772438D01*
X203794285Y-91772438D02*
X203699047Y-91724819D01*
X203699047Y-91724819D02*
X203460952Y-91724819D01*
X203460952Y-91724819D02*
X203365714Y-91772438D01*
X203365714Y-91772438D02*
X203318095Y-91820057D01*
X203318095Y-91820057D02*
X203270476Y-91915295D01*
X203270476Y-91915295D02*
X203270476Y-92010533D01*
X203270476Y-92010533D02*
X203318095Y-92153390D01*
X203318095Y-92153390D02*
X203889523Y-92724819D01*
X203889523Y-92724819D02*
X203270476Y-92724819D01*
X202699047Y-92153390D02*
X202794285Y-92105771D01*
X202794285Y-92105771D02*
X202841904Y-92058152D01*
X202841904Y-92058152D02*
X202889523Y-91962914D01*
X202889523Y-91962914D02*
X202889523Y-91915295D01*
X202889523Y-91915295D02*
X202841904Y-91820057D01*
X202841904Y-91820057D02*
X202794285Y-91772438D01*
X202794285Y-91772438D02*
X202699047Y-91724819D01*
X202699047Y-91724819D02*
X202508571Y-91724819D01*
X202508571Y-91724819D02*
X202413333Y-91772438D01*
X202413333Y-91772438D02*
X202365714Y-91820057D01*
X202365714Y-91820057D02*
X202318095Y-91915295D01*
X202318095Y-91915295D02*
X202318095Y-91962914D01*
X202318095Y-91962914D02*
X202365714Y-92058152D01*
X202365714Y-92058152D02*
X202413333Y-92105771D01*
X202413333Y-92105771D02*
X202508571Y-92153390D01*
X202508571Y-92153390D02*
X202699047Y-92153390D01*
X202699047Y-92153390D02*
X202794285Y-92201009D01*
X202794285Y-92201009D02*
X202841904Y-92248628D01*
X202841904Y-92248628D02*
X202889523Y-92343866D01*
X202889523Y-92343866D02*
X202889523Y-92534342D01*
X202889523Y-92534342D02*
X202841904Y-92629580D01*
X202841904Y-92629580D02*
X202794285Y-92677200D01*
X202794285Y-92677200D02*
X202699047Y-92724819D01*
X202699047Y-92724819D02*
X202508571Y-92724819D01*
X202508571Y-92724819D02*
X202413333Y-92677200D01*
X202413333Y-92677200D02*
X202365714Y-92629580D01*
X202365714Y-92629580D02*
X202318095Y-92534342D01*
X202318095Y-92534342D02*
X202318095Y-92343866D01*
X202318095Y-92343866D02*
X202365714Y-92248628D01*
X202365714Y-92248628D02*
X202413333Y-92201009D01*
X202413333Y-92201009D02*
X202508571Y-92153390D01*
D11*
%TO.C,R31*%
X238572936Y-78415000D02*
X239027064Y-78415000D01*
X238572936Y-79885000D02*
X239027064Y-79885000D01*
%TO.C,C36*%
X156186252Y-108540000D02*
X155663748Y-108540000D01*
X156186252Y-110010000D02*
X155663748Y-110010000D01*
%TO.C,C30*%
X217265000Y-96311252D02*
X217265000Y-95788748D01*
X218735000Y-96311252D02*
X218735000Y-95788748D01*
%TO.C,R20*%
X238772936Y-101165000D02*
X239227064Y-101165000D01*
X238772936Y-102635000D02*
X239227064Y-102635000D01*
%TO.C,R28*%
X238572936Y-84565000D02*
X239027064Y-84565000D01*
X238572936Y-86035000D02*
X239027064Y-86035000D01*
%TO.C,C23*%
X222515000Y-77611252D02*
X222515000Y-77088748D01*
X223985000Y-77611252D02*
X223985000Y-77088748D01*
%TO.C,C37*%
X160365000Y-112126248D02*
X160365000Y-112648752D01*
X161835000Y-112126248D02*
X161835000Y-112648752D01*
%TO.C,C18*%
X231888748Y-90215000D02*
X232411252Y-90215000D01*
X231888748Y-91685000D02*
X232411252Y-91685000D01*
%TO.C,J5*%
X247100000Y-76600000D02*
X248440000Y-76600000D01*
X247100000Y-78090000D02*
X245900000Y-78090000D01*
X247100000Y-78090000D02*
X247100000Y-76600000D01*
X247100000Y-98410000D02*
X247100000Y-99900000D01*
X247100000Y-99900000D02*
X248440000Y-99900000D01*
X251160000Y-76600000D02*
X252400000Y-76600000D01*
X252400000Y-99900000D02*
X251160000Y-99900000D01*
%TO.C,R30*%
X238572936Y-80465000D02*
X239027064Y-80465000D01*
X238572936Y-81935000D02*
X239027064Y-81935000D01*
%TO.C,R51*%
X160340000Y-108097936D02*
X160340000Y-108552064D01*
X161810000Y-108097936D02*
X161810000Y-108552064D01*
%TO.C,R19*%
X238772936Y-97065000D02*
X239227064Y-97065000D01*
X238772936Y-98535000D02*
X239227064Y-98535000D01*
%TO.C,C29*%
X216688748Y-86915000D02*
X217211252Y-86915000D01*
X216688748Y-88385000D02*
X217211252Y-88385000D01*
%TO.C,C34*%
X217788748Y-89615000D02*
X218311252Y-89615000D01*
X217788748Y-91085000D02*
X218311252Y-91085000D01*
%TO.C,C8*%
X205218748Y-83445000D02*
X205741252Y-83445000D01*
X205218748Y-84915000D02*
X205741252Y-84915000D01*
%TO.C,R32*%
X238572936Y-76365000D02*
X239027064Y-76365000D01*
X238572936Y-77835000D02*
X239027064Y-77835000D01*
%TO.C,R18*%
X238772936Y-99115000D02*
X239227064Y-99115000D01*
X238772936Y-100585000D02*
X239227064Y-100585000D01*
%TO.C,R21*%
X238772936Y-95015000D02*
X239227064Y-95015000D01*
X238772936Y-96485000D02*
X239227064Y-96485000D01*
%TO.C,R17*%
X238772936Y-103215000D02*
X239227064Y-103215000D01*
X238772936Y-104685000D02*
X239227064Y-104685000D01*
%TO.C,C31*%
X231338748Y-92965000D02*
X231861252Y-92965000D01*
X231338748Y-94435000D02*
X231861252Y-94435000D01*
%TO.C,R29*%
X238572936Y-82515000D02*
X239027064Y-82515000D01*
X238572936Y-83985000D02*
X239027064Y-83985000D01*
%TO.C,C28*%
X207411252Y-91715000D02*
X206888748Y-91715000D01*
X207411252Y-93185000D02*
X206888748Y-93185000D01*
%TD*%
M02*
